<svg xmlns="http://www.w3.org/2000/svg" viewBox="0 0 750 500"><g id="freepik--background-complete--inject-71"><circle cx="697.25" cy="269.98" r="28.58" transform="translate(-43.67 169.58) rotate(-13.45)" style="fill:#fff"></circle><path d="M697.25,241.41l.46.06,1.36.1,1,.06,1.19.19a21.5,21.5,0,0,1,2.94.61,27.4,27.4,0,0,1,7.55,3.18,28.56,28.56,0,0,1,10.42,37.69,29.05,29.05,0,0,1-2.23,3.46,30.3,30.3,0,0,1-2.72,3.2,31.37,31.37,0,0,1-3.28,2.77,27,27,0,0,1-7.78,4,27.92,27.92,0,0,1-17.82,0,27.26,27.26,0,0,1-7.78-4,33.57,33.57,0,0,1-3.28-2.77,32.87,32.87,0,0,1-2.72-3.2,29.05,29.05,0,0,1-2.23-3.46,29,29,0,0,1-2.87-18.54,28.49,28.49,0,0,1,13.3-19.15,27.28,27.28,0,0,1,7.55-3.18,21.2,21.2,0,0,1,2.94-.61l1.19-.19,1-.06,1.36-.1.46-.06a1.64,1.64,0,0,0-.46,0l-1.36,0-1,0c-.37,0-.77.1-1.2.16a19.7,19.7,0,0,0-3,.55,27.23,27.23,0,0,0-7.68,3.11,28.79,28.79,0,0,0-13.66,19.38,28.86,28.86,0,0,0,1.21,15.17,30.56,30.56,0,0,0,1.65,3.77,31.75,31.75,0,0,0,5,6.83,32.62,32.62,0,0,0,3.35,2.84,27.84,27.84,0,0,0,8,4.14,28.51,28.51,0,0,0,18.25,0,27.91,27.91,0,0,0,8-4.14,31.59,31.59,0,0,0,3.35-2.84,30.72,30.72,0,0,0,2.78-3.28,29.17,29.17,0,0,0,2.27-3.55,29.73,29.73,0,0,0,1.65-3.77,28.86,28.86,0,0,0,1.21-15.17,28.79,28.79,0,0,0-13.66-19.38,27.11,27.11,0,0,0-7.68-3.11,21,21,0,0,0-3-.55c-.43-.06-.83-.13-1.2-.16l-1,0-1.37,0A1.64,1.64,0,0,0,697.25,241.41Z" style="fill:#e0e0e0"></path><path d="M677,231.4a4.83,4.83,0,1,0,4.82,4.82A4.82,4.82,0,0,0,677,231.4Z" style="fill:#fff"></path><path d="M677,231.4c0,.06.43.07,1.14.28a4.83,4.83,0,0,1,2.5,1.77,4.53,4.53,0,1,1-7.28,0,4.81,4.81,0,0,1,2.49-1.77c.72-.21,1.15-.22,1.15-.28a2.42,2.42,0,0,0-1.21,0,4.76,4.76,0,0,0-2.82,1.74,5,5,0,0,0-.8,4.82,5.13,5.13,0,0,0,9.66,0,5,5,0,0,0-.8-4.82,4.79,4.79,0,0,0-2.82-1.74A2.41,2.41,0,0,0,677,231.4Z" style="fill:#e0e0e0"></path><path d="M696.87,283.18a3.7,3.7,0,0,1-3.93-3.65,4,4,0,0,1,7.89,0A3.72,3.72,0,0,1,696.87,283.18Zm2.64-9.18h-5.25l-1.32-15.47h7.86Z" style="fill:#e0e0e0"></path><path d="M49.07,296.7a68.81,68.81,0,0,0,61.29-5.56C91.87,286.18,65.53,286.93,49.07,296.7Z" style="fill:#ebebeb"></path><path d="M38,278.77A58.71,58.71,0,0,0,90.32,274C74.54,269.79,52.06,270.43,38,278.77Z" style="fill:#ebebeb"></path><path d="M30.79,262.43a47,47,0,0,0,41.89-3.81C60,255.23,42,255.75,30.79,262.43Z" style="fill:#ebebeb"></path><path d="M107.76,231.62a69.69,69.69,0,0,1,0,62.38C101.05,275.79,99.4,249.13,107.76,231.62Z" style="fill:#ebebeb"></path><path d="M88.65,222.1a59.52,59.52,0,0,1,0,53.24C82.92,259.79,81.52,237.05,88.65,222.1Z" style="fill:#ebebeb"></path><path d="M71.5,216.29a47.7,47.7,0,0,1,0,42.65C66.91,246.49,65.78,228.26,71.5,216.29Z" style="fill:#ebebeb"></path><path d="M24.35,218.51c6.52,15.07,24.42,29.88,40.45,33.43C56.94,234.38,41.5,220.89,24.35,218.51Z" style="fill:#ebebeb"></path><path d="M134.48,316.06c-.32.35-18-15.33-39.6-35S56.12,245.1,56.43,244.75s18.05,15.33,39.6,35S134.8,315.71,134.48,316.06Z" style="fill:#ebebeb"></path><path d="M514.3,139.51A83.81,83.81,0,0,0,536.87,211C538,187.73,530.22,156.57,514.3,139.51Z" style="fill:#ebebeb"></path><path d="M532.77,121.68a71.55,71.55,0,0,0,19.26,61C553,162.84,546.36,136.24,532.77,121.68Z" style="fill:#ebebeb"></path><path d="M550.35,108.83a57.32,57.32,0,0,0,15.43,48.89C566.53,141.79,561.23,120.49,550.35,108.83Z" style="fill:#ebebeb"></path><path d="M607.05,192.47a85,85,0,0,1-74.28,16.2C552.72,196,584,187.06,607.05,192.47Z" style="fill:#ebebeb"></path><path d="M613.42,167.24A72.52,72.52,0,0,1,550,181.07C567.05,170.22,593.77,162.63,613.42,167.24Z" style="fill:#ebebeb"></path><path d="M615.87,145.3a58.09,58.09,0,0,1-50.77,11.07C578.73,147.69,600.13,141.61,615.87,145.3Z" style="fill:#ebebeb"></path><path d="M601,89.74c-16.24,11.68-29.22,36.84-29.27,56.85C590.54,132.67,602.59,110.78,601,89.74Z" style="fill:#ebebeb"></path><path d="M513.47,246.24C513,246,527,220.76,544.86,190s32.71-55.51,33.21-55.22-13.56,25.47-31.4,56.26S514,246.53,513.47,246.24Z" style="fill:#ebebeb"></path><path d="M615,374.2a66.51,66.51,0,0,0-59.44,3C573.26,382.72,598.73,383,615,374.2Z" style="fill:#ebebeb"></path><path d="M625,392a56.81,56.81,0,0,0-50.73,2.57C589.37,399.22,611.11,399.47,625,392Z" style="fill:#ebebeb"></path><path d="M631.36,408a45.46,45.46,0,0,0-40.62,2.06C602.82,413.84,620.23,414,631.36,408Z" style="fill:#ebebeb"></path><path d="M555.8,434.83a67.46,67.46,0,0,1,2.42-60.28C564,392.41,564.55,418.23,555.8,434.83Z" style="fill:#ebebeb"></path><path d="M573.9,444.76A57.56,57.56,0,0,1,576,393.32C580.88,408.56,581.37,430.6,573.9,444.76Z" style="fill:#ebebeb"></path><path d="M590.25,451a46.09,46.09,0,0,1,1.66-41.2C595.85,422,596.24,439.68,590.25,451Z" style="fill:#ebebeb"></path><path d="M635.89,450.7c-5.72-14.81-22.44-29.81-37.79-33.85C605,434.11,619.41,447.74,635.89,450.7Z" style="fill:#ebebeb"></path><path d="M533.23,352.21c.32-.32,16.85,15.51,36.92,35.36s36.07,36.22,35.75,36.54-16.85-15.5-36.92-35.36S532.91,352.53,533.23,352.21Z" style="fill:#ebebeb"></path><rect x="158.35" y="24.17" width="409.38" height="449.44" style="fill:#fafafa"></rect><circle cx="81.04" cy="94.17" r="31.25" transform="translate(-24.21 28.16) rotate(-17.19)" style="fill:#fff"></circle><path d="M81,62.92a3.34,3.34,0,0,0,.51.06l1.48.11,1.09.08c.4,0,.83.13,1.3.2a23.24,23.24,0,0,1,3.22.67,29.7,29.7,0,0,1,8.25,3.47,31,31,0,0,1,13.18,37.19,32.53,32.53,0,0,1-1.78,4,31.07,31.07,0,0,1-2.43,3.78,34,34,0,0,1-3,3.51,35.93,35.93,0,0,1-3.58,3,29.92,29.92,0,0,1-8.51,4.41,33.06,33.06,0,0,1-9.74,1.6,33.39,33.39,0,0,1-9.75-1.59A29.81,29.81,0,0,1,62.79,119a33.61,33.61,0,0,1-3.58-3,35.34,35.34,0,0,1-3-3.51A28.66,28.66,0,0,1,52,104.7,31.06,31.06,0,0,1,65.19,67.51,29.63,29.63,0,0,1,73.45,64a22.84,22.84,0,0,1,3.21-.67c.47-.07.9-.16,1.3-.2l1.09-.08L80.54,63l.5-.06a2,2,0,0,0-.51,0l-1.49,0L78,63c-.41,0-.84.11-1.32.17a22.53,22.53,0,0,0-3.25.6,29.63,29.63,0,0,0-8.4,3.4,31.41,31.41,0,0,0-13.62,37.78,32,32,0,0,0,1.81,4.13,32.61,32.61,0,0,0,2.48,3.88,34.36,34.36,0,0,0,3,3.59,36.41,36.41,0,0,0,3.66,3.11,30.84,30.84,0,0,0,8.71,4.53,34,34,0,0,0,10,1.63,33.58,33.58,0,0,0,10-1.64,30.21,30.21,0,0,0,8.71-4.53,33.1,33.1,0,0,0,3.66-3.1,36.88,36.88,0,0,0,3-3.59,33.93,33.93,0,0,0,2.48-3.88,33.31,33.31,0,0,0,1.8-4.13,31.64,31.64,0,0,0,1.33-16.59A31.57,31.57,0,0,0,97.11,67.15a29.63,29.63,0,0,0-8.4-3.4,22.65,22.65,0,0,0-3.26-.6c-.47-.06-.91-.14-1.31-.17l-1.1,0-1.49,0A2,2,0,0,0,81,62.92Z" style="fill:#e0e0e0"></path><path d="M104.66,125.11a5.28,5.28,0,1,0,5.28,5.28A5.27,5.27,0,0,0,104.66,125.11Z" style="fill:#fff"></path><path d="M104.66,125.11c0,.07.47.07,1.26.31a5.27,5.27,0,0,1,2.73,1.94,5,5,0,1,1-8,0,5.24,5.24,0,0,1,2.73-1.94c.78-.24,1.26-.24,1.25-.31a2.69,2.69,0,0,0-1.32,0,5.28,5.28,0,0,0-3.08,1.9,5.51,5.51,0,0,0-.88,5.27,5.6,5.6,0,0,0,10.56,0,5.54,5.54,0,0,0-.87-5.27,5.31,5.31,0,0,0-3.08-1.9A2.76,2.76,0,0,0,104.66,125.11Z" style="fill:#e0e0e0"></path><path d="M81.75,108.42a4,4,0,0,1-4.3-4,4.33,4.33,0,0,1,8.63,0A4.08,4.08,0,0,1,81.75,108.42Zm2.89-10H78.89L77.45,81.46H86Z" style="fill:#e0e0e0"></path></g><g id="freepik--Bricks--inject-71"><rect x="222.92" y="232.72" width="53.99" height="14.28" style="fill:#e0e0e0"></rect><path d="M254.09,262a.76.76,0,0,1,0-.26c0-.19,0-.43,0-.73,0-.67,0-1.61,0-2.81,0-2.46,0-6-.09-10.48l.17.17-54,.11c.12-.13-.28.27.27-.28h0V255c0,2.38,0,4.73,0,7l-.27-.26,38.48.12,11.36.07,3.07,0,.8,0h.29a.67.67,0,0,1-.25,0l-.77,0-3,0-11.29.08-38.67.12h-.27V247.77h0c.55-.55.15-.15.28-.27l54,.1h.16v.17c0,4.51-.07,8.09-.09,10.58,0,1.19,0,2.11,0,2.77,0,.29,0,.52,0,.71A1.57,1.57,0,0,1,254.09,262Z" style="fill:#263238"></path><rect x="468.81" y="377.74" width="53.99" height="14.28" style="fill:#e0e0e0"></rect><rect x="294.55" y="340.99" width="53.99" height="14.28" style="fill:#ebebeb"></rect><path d="M500,407.07s0-.1,0-.26l0-.74c0-.67,0-1.61,0-2.81,0-2.46,0-6-.09-10.48l.16.17-54,.11.28-.28h0v3.65c0,1.21,0,2.41,0,3.6v7l-.27-.27,38.48.12,11.35.08,3.08,0,.8,0a.9.9,0,0,1,.28,0h-.25l-.77,0-3,0-11.29.07-38.67.12h-.27V392.79h0l.27-.27,54,.1h.17v.17c0,4.51-.07,8.09-.09,10.58,0,1.19,0,2.11,0,2.78,0,.28,0,.52,0,.7A1,1,0,0,1,500,407.07Z" style="fill:#263238"></path><rect x="294.55" y="120.08" width="53.99" height="14.28" style="fill:#e0e0e0"></rect><rect x="196.1" y="60" width="53.99" height="14.28" style="fill:#ebebeb"></rect><path d="M325.71,149.41s0-.1,0-.26,0-.44,0-.74c0-.67,0-1.61,0-2.81,0-2.46-.05-6-.09-10.48l.16.17-54,.11.28-.28h0v3.65c0,1.21,0,2.41,0,3.6v7l-.27-.27,38.48.12,11.36.08,3.07,0,.8,0a.9.9,0,0,1,.28,0h-.25l-.77,0-3,0-11.29.07-38.67.12h-.27V135.13h0l.27-.27,54,.1h.17v.17c0,4.51-.07,8.09-.09,10.58,0,1.19,0,2.11,0,2.78,0,.28,0,.52,0,.7A.6.6,0,0,1,325.71,149.41Z" style="fill:#263238"></path><path d="M512.74,169.28a1.61,1.61,0,0,1,0-.26c0-.19,0-.44,0-.74,0-.67,0-1.61,0-2.81,0-2.46,0-6-.09-10.48l.17.17-54,.11c.12-.13-.28.27.27-.28h0v7.25c0,2.38,0,4.73,0,7l-.26-.27,38.47.12,11.36.08,3.07,0,.8,0a1,1,0,0,1,.29,0h-.25l-.77,0-3,0-11.3.07-38.66.13h-.27v-.27c0-2.3,0-4.65,0-7V155h0c.55-.55.15-.15.28-.27l54,.1h.17V155c0,4.51-.08,8.09-.1,10.58,0,1.19,0,2.11,0,2.78v.7C512.75,169.21,512.74,169.28,512.74,169.28Z" style="fill:#263238"></path><path d="M520.06,155a1.52,1.52,0,0,1,0-.27c0-.2,0-.45,0-.76,0-.7,0-1.65,0-2.86,0-2.5-.06-6-.11-10.39l.2.2-32.44.07.27-.27h0v7.35c0,2.39,0,4.7,0,6.92l-.26-.26,23.2.12,6.76.08,1.83,0,.65,0a4.08,4.08,0,0,1-.59,0l-1.77,0-6.7.07-23.38.12h-.26V155q0-3.33,0-6.92c0-1.2,0-2.41,0-3.64v-3.71h0l.28-.28,32.44.08h.2v.2c0,4.4-.08,8-.11,10.51,0,1.19,0,2.13,0,2.82A7.93,7.93,0,0,1,520.06,155Z" style="fill:#263238"></path><path d="M445.54,279.71a1.46,1.46,0,0,1,0-.26c0-.19,0-.43,0-.73,0-.68,0-1.61,0-2.81,0-2.47,0-6-.09-10.48l.17.16-54,.11.27-.27h0v7.23c0,2.39,0,4.73,0,7l-.27-.27,38.48.12,11.36.08,3.07,0,.8,0,.29,0-.25,0h-.77l-3,0-11.29.08-38.67.12h-.27V265.45h0l.28-.28,54,.11h.17v.17c0,4.51-.07,8.09-.09,10.58,0,1.18,0,2.11,0,2.77,0,.29,0,.52,0,.7A1.85,1.85,0,0,1,445.54,279.71Z" style="fill:#263238"></path><path d="M477.77,67.16a.87.87,0,0,1,0-.26l0-.74c0-.67,0-1.61,0-2.81,0-2.46-.05-6-.09-10.48l.17.17-54,.11c.12-.13-.28.27.27-.28h0v7.25c0,2.38,0,4.73,0,7l-.27-.27,38.48.12,11.36.08,3.07,0,.8,0a1.06,1.06,0,0,1,.29,0h-.25l-.77,0-3,0-11.29.07-38.67.12h-.27V52.88h0c.55-.55.15-.15.28-.27l54,.1h.16v.17c0,4.51-.07,8.09-.09,10.58,0,1.19,0,2.11,0,2.78,0,.28,0,.51,0,.7A2.07,2.07,0,0,1,477.77,67.16Z" style="fill:#263238"></path><path d="M289.45,455.12s0-.09,0-.26,0-.43,0-.73c0-.67,0-1.61,0-2.81,0-2.47-.06-6-.1-10.48l.17.16-54,.11.27-.27h0v14.26l-.27-.27,38.48.12,11.35.08,3.07,0h.81l.28,0a1,1,0,0,1-.25,0h-.77l-3,0-11.3.08-38.66.12h-.27v-.27q0-3.45,0-7v-7.23h0l.28-.28,54,.11h.17v.17c0,4.51-.07,8.09-.09,10.58,0,1.18,0,2.11,0,2.77,0,.29,0,.52,0,.7S289.46,455.13,289.45,455.12Z" style="fill:#263238"></path></g><g id="freepik--character-1--inject-71"><path d="M153.21,183.47l-19.91,24.7q6.69,10,13.37,20.09A55.18,55.18,0,0,0,153.21,183.47Z" style="fill:#263238"></path><path d="M84.3,154.52c5.61-5.28,13.38-7.85,21.07-8.29s15.37,1.09,22.8,3.14c4.17,1.15,8.38,2.51,11.84,5.11,6.31,4.74,13.34,11.07,15.32,18.7,3.92,15.11,2,30.48.31,34.72-2.15,5.44-8.35,8.39-13.54,11.1l-66-45.72A26.5,26.5,0,0,1,84.3,154.52Z" style="fill:#263238"></path><path d="M77.63,164.75l11.58-5.34c-2.51,17.55,5.11,54.18,5.67,71.9C88.71,226,73.15,208.9,71.66,200.88S62.85,167.17,77.63,164.75Z" style="fill:#263238"></path><path d="M77.41,192.34C75,180,79.23,163,91.66,161.18L121.5,161c9.57-.05,17.53,6,20.59,15,.15.45,0-.12.13.23l4,26.81,11.14,43c-1.64,12.28-17.91,20-33.69,27-.37-1-3.27-10.15-3.27-10.15s-4.09-16-4.09-15.93-20.42,2.49-28.87-16.93C83.21,220.42,80,206.05,77.41,192.34Z" style="fill:#ffbf9d"></path><path d="M91.5,205.55a2.68,2.68,0,0,0,3.18,2,2.58,2.58,0,0,0,2.07-3,2.69,2.69,0,0,0-3.18-2A2.56,2.56,0,0,0,91.5,205.55Z" style="fill:#263238"></path><path d="M82.51,199.48c.41.25,2-1.71,4.79-2.43s5.21.16,5.42-.26c.11-.19-.37-.72-1.43-1.14a7.36,7.36,0,0,0-4.45-.2,7,7,0,0,0-3.71,2.35C82.44,198.68,82.31,199.37,82.51,199.48Z" style="fill:#263238"></path><path d="M115.54,199.45a2.68,2.68,0,0,0,3.18,2,2.55,2.55,0,0,0,2.07-3,2.67,2.67,0,0,0-3.17-2A2.57,2.57,0,0,0,115.54,199.45Z" style="fill:#263238"></path><path d="M109,192.57c.41.25,2-1.71,4.8-2.43s5.2.16,5.42-.26c.11-.19-.38-.72-1.44-1.14a7.36,7.36,0,0,0-4.45-.2,7,7,0,0,0-3.7,2.35C109,191.77,108.83,192.45,109,192.57Z" style="fill:#263238"></path><path d="M106,216.77c0-.16-1.84,0-4.75.35-.73.11-1.44.14-1.69-.31a3.78,3.78,0,0,1-.07-2.24c.23-1.9.46-3.89.71-6,.93-8.49,1.41-15.39,1.07-15.43S99.9,200,99,208.47c-.21,2.09-.42,4.08-.61,6a4.25,4.25,0,0,0,.35,2.89,1.81,1.81,0,0,0,1.44.74,4.66,4.66,0,0,0,1.26-.14C104.28,217.37,106,216.93,106,216.77Z" style="fill:#263238"></path><path d="M141.26,232.81s-3,15.62-23.71,18.95L116.3,247A52.67,52.67,0,0,0,141.26,232.81Z" style="fill:#ff9a6c"></path><path d="M107.27,182.25c.47.69,3.17-.39,6.55-.84s6.26-.25,6.52-1c.11-.38-.54-1-1.8-1.43a11.5,11.5,0,0,0-10,1.43C107.51,181.17,107.06,181.92,107.27,182.25Z" style="fill:#263238"></path><path d="M81.19,190.7c.66.51,2.41-.65,4.72-1.28s4.38-.68,4.66-1.46c.12-.37-.36-.92-1.37-1.3a7.05,7.05,0,0,0-7.55,2.2C81,189.72,80.9,190.45,81.19,190.7Z" style="fill:#263238"></path><path d="M78.09,172.43c.44-3.36,3.3-6.06,6.54-7.08a17.89,17.89,0,0,1,10,.28c13.87,3.83,24.44,19,38.23,23.14,3.38,1,6.77-1.61,9.87.09s5.7,5,5.14,8.52a29.12,29.12,0,0,0,2.31-8.06,9.89,9.89,0,0,0-2.39-7.8c-1.5-1.52-3.67-2.41-4.69-4.28-.9-1.64-.68-3.66-1.23-5.45a12.13,12.13,0,0,0-3.2-4.68c-6.81-7-15.17-12.82-24.64-15.3a35.34,35.34,0,0,0-18.95,0A27.08,27.08,0,0,0,80,163c-2,3.18-4.14,6.47-1.88,9.48" style="fill:#263238"></path><path d="M143.14,191.44c.06-.63,9.62-7.19,12.68,4,3,10.86-8.58,11.58-8.68,11.27S143.14,191.44,143.14,191.44Z" style="fill:#ffbf9d"></path><path d="M149.38,201.68c0-.05.22.08.58.14a2,2,0,0,0,1.43-.36c1-.73,1.51-2.81,1-4.79a6.36,6.36,0,0,0-1.27-2.56,2.23,2.23,0,0,0-1.81-1.07,1,1,0,0,0-1,.82c-.06.34.06.54,0,.57s-.28-.11-.32-.59a1.24,1.24,0,0,1,.25-.79,1.43,1.43,0,0,1,1-.56,2.73,2.73,0,0,1,2.43,1.15,6.58,6.58,0,0,1,1.48,2.85c.52,2.21,0,4.56-1.49,5.44a2.08,2.08,0,0,1-1.81.18C149.47,201.93,149.35,201.71,149.38,201.68Z" style="fill:#ff9a6c"></path><path d="M146,184.71a4.32,4.32,0,0,1-.75-.19c-.49-.16-1.22-.35-2.13-.69a38.61,38.61,0,0,1-7.28-3.82,110.56,110.56,0,0,1-9.63-7.47,88.37,88.37,0,0,0-11.91-8.85,34.72,34.72,0,0,0-7-3.08,29.38,29.38,0,0,0-7-1.21A32.24,32.24,0,0,0,88.39,161a30.86,30.86,0,0,0-7.34,3.53c-.82.51-1.41,1-1.82,1.28a4.86,4.86,0,0,1-.65.44,3.58,3.58,0,0,1,.58-.52,18.19,18.19,0,0,1,1.78-1.36,28.87,28.87,0,0,1,7.33-3.71,31.75,31.75,0,0,1,12.06-1.72,29.48,29.48,0,0,1,7.13,1.2,35.73,35.73,0,0,1,7.11,3.11,85.67,85.67,0,0,1,12,8.94,119,119,0,0,0,9.53,7.53,41.4,41.4,0,0,0,7.15,3.93c.89.37,1.62.59,2.09.78A3.47,3.47,0,0,1,146,184.71Z" style="fill:#455a64"></path><path d="M144.08,188.51c.94,2.93,1.9,6,1.21,9s-3.68,5.71-6.66,4.9c-2.42-.65-3.76-3.19-4.74-5.5-2.84-6.68-5.15-13.57-8-20.21Z" style="fill:#263238"></path><path d="M79.42,166.55c0,.06.91-.43,2.64-.94a19.22,19.22,0,0,1,7.56-.56,24.27,24.27,0,0,1,5.12,1.14,50.11,50.11,0,0,1,5.59,2.35A57.39,57.39,0,0,1,112,176c1.89,1.58,3.64,3.26,5.45,4.76a28.59,28.59,0,0,0,5.65,3.78,50.74,50.74,0,0,0,10.81,3.76c3.17.74,5.77,1.17,7.57,1.46l2.07.31a2.67,2.67,0,0,0,.73.06,4,4,0,0,0-.71-.19l-2.05-.42c-1.78-.37-4.36-.86-7.5-1.66A51.4,51.4,0,0,1,123.38,184a28.31,28.31,0,0,1-5.52-3.72c-1.78-1.49-3.52-3.18-5.43-4.78a56.86,56.86,0,0,0-11.85-7.5,49.77,49.77,0,0,0-5.67-2.31,24.09,24.09,0,0,0-5.24-1.1,18.57,18.57,0,0,0-7.68.77,13.23,13.23,0,0,0-1.94.81A2.69,2.69,0,0,0,79.42,166.55Z" style="fill:#455a64"></path><path d="M141.4,180.67a4.59,4.59,0,0,0,1.14.4l3.18.9,1.07.29a3,3,0,0,0,1.29.09,1.18,1.18,0,0,0,.69-.37.94.94,0,0,0,.22-.82,2.51,2.51,0,0,0-.87-1.25l-4.54-4.29-.33.51a11.81,11.81,0,0,0,4,.84,11.62,11.62,0,0,0,4-.56,3.31,3.31,0,0,0,.94-.43,1.37,1.37,0,0,0,.66-.95,1.23,1.23,0,0,0-.47-1.06,5.4,5.4,0,0,0-.8-.52,23.71,23.71,0,0,1-4.93-3.71,40.65,40.65,0,0,1-3.67-4.4,6.22,6.22,0,0,0,.73,1.37,20.44,20.44,0,0,0,2.62,3.34,22.45,22.45,0,0,0,5,3.91c.51.28,1,.61,1,1s-.62.71-1.19.86a11.15,11.15,0,0,1-3.81.51,11.34,11.34,0,0,1-3.75-.77l-1.55-.61,1.23,1.12,4.59,4.24a2.13,2.13,0,0,1,.74.94c.07.31-.15.56-.5.63a5.71,5.71,0,0,1-2.17-.3l-3.23-.72A5.39,5.39,0,0,0,141.4,180.67Z" style="fill:#455a64"></path><path d="M109.81,221.44a5,5,0,0,1,4-2.78,4.57,4.57,0,0,1,3.45.92,2.82,2.82,0,0,1,.93,3.13,3.4,3.4,0,0,1-3.35,1.69,10.63,10.63,0,0,1-3.92-1.24,3.27,3.27,0,0,1-1-.61.93.93,0,0,1-.22-1" style="fill:#ff9a6c"></path><path d="M115.59,215.3c-.44.08.21,3-1.84,5.6s-5.25,3-5.18,3.43c0,.19.82.41,2.15.14a7.64,7.64,0,0,0,4.37-2.7,6.45,6.45,0,0,0,1.36-4.65C116.28,215.88,115.79,215.24,115.59,215.3Z" style="fill:#263238"></path><path d="M116.48,250.54S95.6,261,90.05,274.55s-4.39,22.14-2.7,36.08,9.15,66.19,12.7,75.19c2.77,7,6.36,16,24.88,12.79S157.32,393,157.32,393V245.16h0s-6.18,12.48-20.93,13.65C127.1,259.55,116.48,250.54,116.48,250.54Z" style="fill:#068C15"></path><path d="M116.8,364.57a8.81,8.81,0,0,1,1.43-.52c.93-.31,2.29-.71,4-1.15a94.2,94.2,0,0,1,13.44-2.48,95.34,95.34,0,0,1,13.66-.54c1.75.06,3.16.14,4.14.24a8.35,8.35,0,0,1,1.5.2,7.74,7.74,0,0,1-1.52,0c-1,0-2.38-.07-4.13-.09a116.23,116.23,0,0,0-13.59.7,117.66,117.66,0,0,0-13.41,2.31c-1.7.4-3.07.74-4,1A7.49,7.49,0,0,1,116.8,364.57Z" style="fill:#263238"></path><path d="M108.55,287.2a5.74,5.74,0,0,1,.06.81c0,.58,0,1.35.08,2.32.07,2,.16,4.93.32,8.53a153.39,153.39,0,0,0,3.48,27.85,99.53,99.53,0,0,0,4.61,14.74,59.75,59.75,0,0,0,6,11.1,53.1,53.1,0,0,0,5.37,6.58c.68.74,1.27,1.26,1.63,1.64a4.37,4.37,0,0,1,.56.6,4.8,4.8,0,0,1-.63-.52c-.39-.36-1-.85-1.7-1.58a48.29,48.29,0,0,1-5.54-6.51,58.1,58.1,0,0,1-6.09-11.12A96.21,96.21,0,0,1,112,326.83a144.06,144.06,0,0,1-3.35-28c-.12-3.6-.15-6.52-.15-8.53,0-1,0-1.75,0-2.33A3.93,3.93,0,0,1,108.55,287.2Z" style="fill:#263238"></path><path d="M157.32,458.39c-.14,0-.26-93.93-.26-209.78s.12-209.79.26-209.79.26,93.91.26,209.79S157.47,458.39,157.32,458.39Z" style="fill:#263238"></path><path d="M167.79,321.11s2.86-2.81.05-4.75-3.61-2-9.27-1-9.19,2.74-9.67,5.57a5.81,5.81,0,0,0,1,4.53s-2.84,1.33-2.77,6l1.55,4.43s-2.07,3.26-1.19,6a7.48,7.48,0,0,0,2.68,3.87s-1.63,6,0,9.16,6.88,9.69,6.88,9.69l-.1-17.11s11.47-7.46,11.95-11.3-.65-4.87-.65-4.87,2.85-2.69.16-5.09C168.43,326.2,170.94,323.28,167.79,321.11Z" style="fill:#ffbf9d"></path><path d="M167.92,331.34a24.67,24.67,0,0,1-2.87,1.87c-1.79,1.12-4.29,2.63-7,4.38-1.35.88-2.62,1.74-3.72,2.59a14.44,14.44,0,0,0-2.56,2.59,11.08,11.08,0,0,0-1.27,2.11,7.5,7.5,0,0,1-.36.84,6,6,0,0,1,1.33-3.17A14.21,14.21,0,0,1,154,339.8c1.11-.89,2.38-1.76,3.74-2.64,2.71-1.76,5.24-3.23,7.09-4.26A20.42,20.42,0,0,1,167.92,331.34Z" style="fill:#ff9a6c"></path><path d="M168.43,326.2a3.62,3.62,0,0,1-.9.39l-2.51.9c-2.11.77-5,1.8-8.2,3.12a34.66,34.66,0,0,0-4.31,2.09,12.09,12.09,0,0,0-4.2,4.83c-.26.57-.34.91-.38.9a6.21,6.21,0,0,1,1.46-3.34,10.38,10.38,0,0,1,2.87-2.8,31.62,31.62,0,0,1,4.36-2.16c3.18-1.33,6.14-2.31,8.28-3,1.08-.34,1.95-.59,2.56-.75A3.92,3.92,0,0,1,168.43,326.2Z" style="fill:#ff9a6c"></path><path d="M168,320.86a16,16,0,0,1-2.66.67c-1.65.37-3.92.86-6.43,1.45s-4.74,1.21-6.33,1.75-2.48,1.06-2.53,1,.19-.2.58-.47a12,12,0,0,1,1.82-.88,48.94,48.94,0,0,1,6.34-1.9c2.52-.6,4.81-1,6.48-1.31A12.35,12.35,0,0,1,168,320.86Z" style="fill:#ff9a6c"></path></g><g id="freepik--character-2--inject-71"><path d="M690.25,176.39a9,9,0,0,0,12.16-13.25,9.41,9.41,0,0,0,.91-17.83,11.26,11.26,0,0,0-10-16.51,12.66,12.66,0,0,0-13.3-8.12,9,9,0,0,0-14.55,9.18" style="fill:#263238"></path><path d="M673.84,127.4l1.71,1a38.34,38.34,0,0,1,15.2,49.73c-8.07,16.75-17.19,35.15-22.31,43.67-10.61,17.63-30,10-30,10l-11,22.23-23.56,4.72-18.77-31.27,41.45-79.64C635.78,128.47,654.72,117.68,673.84,127.4Z" style="fill:#ae7461"></path><path d="M638.44,231.81s-11.58-5.89-19.13-20.36c0,0-1.79,16.17,16.87,24.94Z" style="fill:#6f4439"></path><path d="M693.8,169s1.82-13.87-2-19.6c-4.66-6.94-11.62-1.45-16.8-6.8s-9.62-12-18.74-10.9c-10,1.18-8.89,6.75-13.93,14.39-20.42,30.94-31.54,36.56-24.4,20.54.78-1.76-3-5.74.37-13.11,4.41-9.55,10.47-20.72,16.24-26,4.86-4.41,10.13-6.35,18.06-7.23,12.52-1.4,24.58,5.47,32.24,11S702.69,155.5,693.8,169Z" style="fill:#263238"></path><path d="M619.33,166.81a5.59,5.59,0,0,0-2.49-7.69c-3.5-1.63-8.29-1.9-12.07,5.07-6.72,12.38,7.09,16.56,7.3,16.22S616.56,172,619.33,166.81Z" style="fill:#ae7461"></path><path d="M611.91,174.3c0-.07-.3,0-.75,0a2.44,2.44,0,0,1-1.63-.84c-1-1.19-1-3.86.13-6.13a8.08,8.08,0,0,1,2.27-2.75,2.84,2.84,0,0,1,2.52-.78,1.24,1.24,0,0,1,.95,1.28c0,.44-.23.64-.18.7s.38-.06.56-.63a1.53,1.53,0,0,0-.07-1,1.82,1.82,0,0,0-1-1,3.44,3.44,0,0,0-3.29.7,8.34,8.34,0,0,0-2.62,3c-1.27,2.54-1.26,5.56.25,7.05a2.6,2.6,0,0,0,2.14.74C611.72,174.58,611.94,174.34,611.91,174.3Z" style="fill:#6f4439"></path><path d="M633.33,143.42c.94,2,2,4.08,3.75,5.38s4.6,1.48,6-.22c.63-.76,1-1.86,1.94-2.19,1.12-.39,2.2.57,3.15,1.27,3.32,2.44,9.72,1,12.63-1.95a3.67,3.67,0,0,0,3.72,3.35,13.06,13.06,0,0,0,4.45-.89c1.78-.6,3.92-.81,5.39.35.82.66,1.35,1.68,2.3,2.13,1.68.79,3.55-.62,4.72-2.06s2.43-3.18,4.29-3.25c1.71-.07,3.07,1.34,4.41,2.42s3.44,1.84,4.65.62a3.35,3.35,0,0,0,.75-2.52,9.12,9.12,0,0,0-7.55-8.41,12.35,12.35,0,0,0-18.38-13.52,12.54,12.54,0,0,0-19.6-6.17A9.08,9.08,0,0,0,634.47,124c-2.92,0-6.05,1-7.57,3.53s-.53,6.42,2.28,7.18a5,5,0,0,0,5,8.73" style="fill:#263238"></path><path d="M686.78,141.55s0,.09-.14.22-.24.36-.45.61a9,9,0,0,1-2.25,1.82,10,10,0,0,1-4.38,1.3,9.38,9.38,0,0,1-5.8-1.49l.36-.15a5.1,5.1,0,0,1-2.2,3.21,14.57,14.57,0,0,1-3.83,1.77,10.41,10.41,0,0,1-2.17.6,4.84,4.84,0,0,1-2.34-.41,5.12,5.12,0,0,1-3.09-3.69l.53.14a10.6,10.6,0,0,1-7.55,4,7.71,7.71,0,0,1-4.76-1,13.81,13.81,0,0,1-3.42-3.16l.41,0a11.14,11.14,0,0,1-5.07,2.07,5.94,5.94,0,0,1-4.91-1.32,7.76,7.76,0,0,1-2.09-8.25l.2.29a7.31,7.31,0,0,1-4.53-1.83,7.78,7.78,0,0,1-2.15-3,6.76,6.76,0,0,1-.49-2.28,3.43,3.43,0,0,1,.06-.81,8.38,8.38,0,0,0,.65,3,7.82,7.82,0,0,0,2.15,2.83,7,7,0,0,0,4.32,1.66h.3l-.1.29a7.31,7.31,0,0,0,2,7.7,5.34,5.34,0,0,0,4.48,1.15,10.62,10.62,0,0,0,4.78-2l.22-.17.19.21a13.43,13.43,0,0,0,3.27,3,7.1,7.1,0,0,0,4.4.94,10,10,0,0,0,7.13-3.8l.41-.53.12.66a4.55,4.55,0,0,0,2.73,3.26,4.37,4.37,0,0,0,2.06.38,10.12,10.12,0,0,0,2-.56,13.91,13.91,0,0,0,3.7-1.67,4.61,4.61,0,0,0,2-2.88l.07-.35.3.2a9,9,0,0,0,5.51,1.5,10,10,0,0,0,4.27-1.15A11,11,0,0,0,686.78,141.55Z" style="fill:#455a64"></path><path d="M672.84,190.45a2.93,2.93,0,0,1-4,1.09,2.81,2.81,0,0,1-1.24-3.82,2.93,2.93,0,0,1,4-1.09A2.81,2.81,0,0,1,672.84,190.45Z" style="fill:#263238"></path><path d="M683.57,185.33c-.51.14-1.57-2.41-4.29-4s-5.5-1.45-5.6-2c0-.24.62-.64,1.86-.75a8,8,0,0,1,4.73,1.16,7.71,7.71,0,0,1,3.16,3.61C683.88,184.51,683.81,185.27,683.57,185.33Z" style="fill:#263238"></path><path d="M641.67,193.67c.48.23-.4,2.85.59,5.85s3.2,4.71,2.94,5.15c-.11.22-.88.08-1.89-.65a8.15,8.15,0,0,1-2.81-4,7.74,7.74,0,0,1,0-4.81C640.9,194.08,641.45,193.55,641.67,193.67Z" style="fill:#263238"></path><path d="M648,177.56a2.93,2.93,0,0,1-3.95,1.08,2.8,2.8,0,0,1-1.23-3.82,2.93,2.93,0,0,1,3.94-1.09A2.81,2.81,0,0,1,648,177.56Z" style="fill:#263238"></path><path d="M656.65,170.06c-.51.14-1.58-2.42-4.29-4s-5.5-1.45-5.6-2c-.06-.23.61-.63,1.86-.74a8,8,0,0,1,4.73,1.16,7.71,7.71,0,0,1,3.16,3.61C657,169.24,656.89,170,656.65,170.06Z" style="fill:#263238"></path><path d="M653.9,196.68c.08-.16,1.93.56,4.87,1.84.73.35,1.47.6,1.87.2a4.14,4.14,0,0,0,.77-2.33q.52-3.09,1.11-6.49c1.65-9.2,3.28-16.59,3.65-16.52s-.66,7.58-2.32,16.78c-.42,2.26-.82,4.41-1.21,6.47a4.66,4.66,0,0,1-1.27,2.93,2.05,2.05,0,0,1-1.74.33,5.63,5.63,0,0,1-1.27-.54C655.52,197.85,653.81,196.84,653.9,196.68Z" style="fill:#263238"></path><path d="M664.28,160.47c-.69.6-3.24-1.29-6.7-2.7s-6.56-2-6.61-2.91c0-.43.84-.88,2.3-1a12.52,12.52,0,0,1,10.14,4.27C664.33,159.26,664.6,160.18,664.28,160.47Z" style="fill:#263238"></path><path d="M687.25,174.93c-.87.33-2.5-1.48-4.9-2.9s-4.69-2.17-4.79-3.09c0-.43.66-.87,1.89-.94a8.31,8.31,0,0,1,4.6,1.31,8.2,8.2,0,0,1,3.21,3.52C687.74,174,687.65,174.76,687.25,174.93Z" style="fill:#263238"></path><path d="M652.7,264.46l-18.4-21.64c-18-.64-35.4-13.88-38.73-35.74l-18.34-8.46-9.5,2.49.41,195s52.8-54.36,52.8-55.29S652.7,264.46,652.7,264.46Z" style="fill:#068C15"></path><path d="M586.29,335.61,606.4,349.2,634.13,295l18.57-30.37s13.55,13.08,8,38.28-16.81,51.8-16.81,51.8l-6.06,16.66s-4.48,16.21-9.75,21.23-22.83,8.78-31.36,4.52S570,359.94,570,359.94C582,352.79,589,342.43,586.29,335.61Z" style="fill:#068C15"></path><path d="M642.9,288.73a4.34,4.34,0,0,1-.28.38l-.89,1.06-3.39,4-12.23,14.21,0-.05L615,331.82c-3,6.19-5.79,12.1-8.37,17.49l-.1-.32A42.89,42.89,0,0,1,617,356.84a33.86,33.86,0,0,1,6,8.35,33.23,33.23,0,0,1,2.41,6.26c.21.75.31,1.35.4,1.74a3.53,3.53,0,0,1,.11.6,2.82,2.82,0,0,1-.18-.58c-.12-.39-.25-1-.48-1.71a36.38,36.38,0,0,0-2.52-6.17,34.2,34.2,0,0,0-6-8.21,43,43,0,0,0-10.46-7.7l-.2-.11.1-.21,8.33-17.51c4.1-8.58,8-16.62,11.22-23.44v0l0,0L638.14,294l3.49-3.93.93-1A2.16,2.16,0,0,1,642.9,288.73Z" style="fill:#263238"></path><path d="M585.75,385.23a2.64,2.64,0,0,1-.33-.45c-.23-.35-.53-.8-.9-1.38-.8-1.24-1.92-3-3.32-5.19-2.83-4.5-6.79-10.79-11.41-18.15l-.14-.22.23-.12a39.2,39.2,0,0,0,12.19-9.62,22.87,22.87,0,0,0,4-7.11,15.36,15.36,0,0,0,.76-3.79,10.44,10.44,0,0,0,0-1.86,4.8,4.8,0,0,0-.2-.87,1.38,1.38,0,0,0-.37-.65l.26-.41,17.66,11.83,5,3.43,1.33.93a3.35,3.35,0,0,1,.45.35,2.44,2.44,0,0,1-.49-.28l-1.38-.86-5.12-3.32-17.77-11.68.26-.41a1.73,1.73,0,0,1,.59.91,5.54,5.54,0,0,1,.22,1,10.68,10.68,0,0,1,.06,2,16.3,16.3,0,0,1-.77,3.92,23.21,23.21,0,0,1-4,7.27,39.26,39.26,0,0,1-12.37,9.73l.09-.34,11.25,18.24,3.2,5.27.84,1.41A4.83,4.83,0,0,1,585.75,385.23Z" style="fill:#263238"></path><path d="M581.59,331.26l-1.06.58L570,340.28s-2.06,7-2,7.45S572.83,358,572.83,358c14.46-8.51,14-19.54,14-19.54S582.13,332,581.59,331.26Z" style="fill:#ae7461"></path><path d="M567.73,460c-.15,0-.26-92.88-.26-207.42s.11-207.45.26-207.45S568,138,568,252.59,567.87,460,567.73,460Z" style="fill:#263238"></path><path d="M567.37,179.91s12.25,4.25,13.47,7.49a8.42,8.42,0,0,1-.51,6.38s1.58,3.45.94,6.29-1.65,3-1.65,3a4.17,4.17,0,0,1,1.81,4.87,7.86,7.86,0,0,1-2.82,4.66s1.42,4.15-.4,7.29-2.23,6.89-5.68,7.29-19.34-4.66-20.56-8.1,3.95-5.27,3.95-5.27-10.33-2.94-10.13-6.48,4-4.76,4-4.76-3.14-1.52-.61-4.56,7.4-1.22,9.53-1c0,0-.41-4.46,4.05-4.16l4.66-.1Z" style="fill:#ae7461"></path><path d="M579.8,194.59a4,4,0,0,1-.37.93c-.27.58-.68,1.42-1.23,2.44-.27.5-.58,1.06-1,1.63a2.89,2.89,0,0,1-.74.87,4.06,4.06,0,0,1-1.17.28,48.07,48.07,0,0,1-5,.24c-1.76,0-3.43,0-5-.13a9.43,9.43,0,0,1-3.8-1.55,20.65,20.65,0,0,1-2.24-1.58c-.5-.41-.75-.67-.72-.69a4.39,4.39,0,0,1,.84.53c.54.35,1.31.86,2.3,1.43a10.19,10.19,0,0,0,3.65,1.39c1.51.08,3.18.09,4.93.08s3.42-.05,4.91-.2a3.68,3.68,0,0,0,1-.2,2.43,2.43,0,0,0,.61-.71c.38-.55.7-1.08,1-1.58C579.05,195.8,579.73,194.55,579.8,194.59Z" style="fill:#6f4439"></path><path d="M574.4,187.7a13.33,13.33,0,0,0-3.38,3,8,8,0,0,0-.78,1.32l-.07.15H570a6.52,6.52,0,0,0-2.84.63s.18-.3.66-.58a4.1,4.1,0,0,1,2.21-.54l-.24.15a7.06,7.06,0,0,1,.81-1.42,7.56,7.56,0,0,1,2.49-2.23C573.85,187.75,574.38,187.64,574.4,187.7Z" style="fill:#6f4439"></path><path d="M571,183.44c0,.07-.38.3-1,.77a6.55,6.55,0,0,0-1.74,2.24,6.49,6.49,0,0,0-.58,2.77,7.78,7.78,0,0,1,0,1.23c-.06,0-.29-.42-.4-1.2a5.62,5.62,0,0,1,2.47-5.34C570.47,183.49,571,183.38,571,183.44Z" style="fill:#6f4439"></path><path d="M579.75,203.25a6.25,6.25,0,0,1-.67,1.16,16.78,16.78,0,0,1-2.29,2.86,7.56,7.56,0,0,1-4.92,2.29c-2.13.08-4.28-.72-6.52-1.35-4.49-1.35-8.5-2.77-11.39-3.82-1.44-.52-2.61-1-3.41-1.27a7.28,7.28,0,0,1-1.22-.54,6.18,6.18,0,0,1,1.29.34l3.46,1.13c2.92,1,6.94,2.31,11.42,3.66,2.25.64,4.38,1.43,6.35,1.37a7.34,7.34,0,0,0,4.69-2.08,19.3,19.3,0,0,0,2.37-2.71A7.85,7.85,0,0,1,579.75,203.25Z" style="fill:#6f4439"></path><path d="M579.14,212.88a3.82,3.82,0,0,1-.53.81,15.93,15.93,0,0,1-1.75,2,10.1,10.1,0,0,1-3.28,2.16,9.79,9.79,0,0,1-4.78.5,18.67,18.67,0,0,1-4.62-1.27c-1.36-.54-2.56-1.08-3.57-1.51-2-.88-3.32-1.24-3.3-1.32a3,3,0,0,1,1,.17,24.33,24.33,0,0,1,2.49.81c2.07.73,4.82,2.16,8.11,2.6a9.45,9.45,0,0,0,4.55-.43,10.47,10.47,0,0,0,3.21-2C578.24,213.92,579.06,212.81,579.14,212.88Z" style="fill:#6f4439"></path><path d="M540.74,307.55s-2.42-3.66,2.34-5.52,14.08-4.9,17-5.17,18.22,3.52,18.22,3.52,5.38,1.58,5.31,5.45l-1,3.65a7.87,7.87,0,0,1,1.94,5.18,10.07,10.07,0,0,1-1.8,4.9L582.13,332s-.55,9-4,12.63-9.11,2.69-9.11,2.69l-1,.37s-6.63-5.07-4.83-11.48l-7.5-5.1s-15.94-2.21-16.77-6.49l.28-2.21s-5.93-.89-5.93-5v-2.07a3.68,3.68,0,0,1-.76-4.21c1.17-2.42,2.34-3.18,5-3.24A10.8,10.8,0,0,0,540.74,307.55Z" style="fill:#ae7461"></path><path d="M568.39,325.38a15.44,15.44,0,0,1-4.29-.46c-1.32-.23-2.87-.55-4.6-.89-.86-.17-1.77-.35-2.7-.48s-1.93-.13-2.94-.21c-4.06-.25-7.73-.52-10.39-.73l-3.14-.28a4.69,4.69,0,0,1-1.15-.18,5,5,0,0,1,1.16,0l3.16.12c2.66.12,6.33.33,10.38.58,1,.08,2,.11,3,.23s1.86.33,2.73.51l4.57,1c1.3.29,2.35.49,3.08.62A7.32,7.32,0,0,1,568.39,325.38Z" style="fill:#6f4439"></path><path d="M570.44,316.7a5.44,5.44,0,0,1-1.47.05c-.94,0-2.3-.12-4-.26s-3.68-.32-5.89-.54l-3.48-.35c-1.19-.11-2.45-.12-3.73-.16-5.13-.07-9.78,0-13.15,0h-4a10,10,0,0,1-1.46-.07,6.7,6.7,0,0,1,1.46-.14c.94,0,2.3-.1,4-.15,3.37-.1,8-.21,13.17-.14,1.29,0,2.54.05,3.77.17l3.48.38,5.87.66,4,.41A12.92,12.92,0,0,1,570.44,316.7Z" style="fill:#6f4439"></path><path d="M573.39,307.23a3.12,3.12,0,0,1-1.28.23,26.45,26.45,0,0,1-3.53-.14c-1.48-.13-3.24-.36-5.18-.58a45,45,0,0,0-6.32-.38,28.28,28.28,0,0,0-3.26.35c-1.07.15-2.09.25-3.07.34-2,.17-3.73.28-5.21.37s-2.68.13-3.51.15a5.87,5.87,0,0,1-1.29,0,5.52,5.52,0,0,1,1.28-.18l3.5-.32,5.18-.48c1-.1,2-.21,3-.36a26.21,26.21,0,0,1,3.3-.37,42.77,42.77,0,0,1,6.41.42l5.16.69c1.47.18,2.66.29,3.49.31S573.37,307.19,573.39,307.23Z" style="fill:#6f4439"></path></g></svg>
