<svg xmlns="http://www.w3.org/2000/svg" viewBox="0 0 500 500"><g id="freepik--Floor--inject-182"><path d="M415.41,253c-92-53.09-240.55-53.09-331.9,0S-7.37,392.15,84.58,445.24s240.56,53.09,331.92,0S507.37,306.08,415.41,253Z" style="fill:#f5f5f5"></path></g><g id="freepik--Window--inject-182"><polygon points="128.85 57.81 133.92 54.91 134.24 165.84 134.23 165.84 93.32 189.2 93.31 183.39 93.01 78.28 128.85 57.81" style="fill:#f0f0f0"></polygon><polygon points="129.15 162.92 128.85 57.81 133.92 54.91 134.24 165.84 134.23 165.84 129.13 162.93 129.15 162.92" style="opacity:0.1"></polygon><polygon points="93.31 183.39 129.13 162.93 134.23 165.84 93.32 189.2 93.31 183.39" style="opacity:0.2"></polygon><polygon points="184.29 25.62 189.36 22.72 189.68 133.64 189.66 133.65 148.76 157 148.75 151.19 148.44 46.08 184.29 25.62" style="fill:#f0f0f0"></polygon><polygon points="184.59 130.73 184.29 25.62 189.36 22.72 189.68 133.64 189.66 133.65 184.57 130.74 184.59 130.73" style="opacity:0.1"></polygon><polygon points="148.75 151.19 184.57 130.74 189.66 133.65 148.76 157 148.75 151.19" style="opacity:0.2"></polygon><polygon points="72.88 89.77 77.95 86.87 78.27 197.79 78.25 197.8 37.35 221.16 37.34 215.35 37.03 110.23 72.88 89.77" style="fill:#f0f0f0"></polygon><polygon points="73.18 194.88 72.88 89.77 77.95 86.87 78.27 197.79 78.25 197.8 73.16 194.89 73.18 194.88" style="opacity:0.1"></polygon><polygon points="37.34 215.35 73.16 194.89 78.25 197.8 37.35 221.16 37.34 215.35" style="opacity:0.2"></polygon></g><g id="freepik--Shadows--inject-182"><path d="M293.39,245.4c11,6.35,11.06,16.65.13,23s-28.71,6.35-39.71,0-11.06-16.65-.13-23S282.39,239.05,293.39,245.4Z" style="fill:#e0e0e0"></path><path d="M441.1,343.13c-6.44-3.72-16.86-3.72-23.26,0s-6.37,9.76.07,13.48,16.86,3.72,23.27,0S447.55,346.85,441.1,343.13Z" style="fill:#e0e0e0"></path><path d="M162.7,432.15a13.64,13.64,0,0,0-12.38,0c-3.41,2-3.39,5.19,0,7.17a13.66,13.66,0,0,0,12.39,0C166.15,437.34,166.14,434.13,162.7,432.15Z" style="fill:#e0e0e0"></path><path d="M193.93,438.16c-5.59-3.23-14.63-3.23-20.18,0s-5.53,8.46.06,11.69,14.63,3.23,20.19,0S199.53,441.39,193.93,438.16Z" style="fill:#e0e0e0"></path><path d="M89,324.92c-4.35-2.51-11.37-2.51-15.69,0s-4.3,6.58,0,9.09,11.37,2.51,15.69,0S93.34,327.43,89,324.92Z" style="fill:#e0e0e0"></path><path d="M361.48,377.45c-20.77-12-50.24-15.81-76.51-11.47-2.81-5.33-7.86-10.35-15.16-14.56-21.23-12.26-54.19-13.51-77.72-3.77-2.23-5.11-6.8-9.94-13.71-13.93C158,322,125.17,322,105,333.72s-20.1,30.79.24,42.53c16.93,9.78,42.54,11.4,62.31,4.9,1.83,7.22,7.56,14.18,17.18,19.73,12.19,7,28.26,10.44,44.19,10.23.8,10.93,8.43,21.74,22.89,30.09,30.5,17.61,79.78,17.61,110.07,0S392,395.05,361.48,377.45Z" style="fill:#e0e0e0"></path></g><g id="freepik--Plants--inject-182"><path d="M445.11,321.72l-15.6.45-15.61-.45c-.67,10.54,1.39,21.28,4.23,26.52h0a7.06,7.06,0,0,0,3.09,3.14c4.6,2.66,12,2.66,16.61,0a6.89,6.89,0,0,0,3.09-3.22C443.75,342.89,445.78,332.21,445.11,321.72Z" style="fill:#fff"></path><path d="M440.51,315.33c6.11,3.53,6.14,9.25.07,12.78s-16,3.53-22.07,0-6.15-9.25-.07-12.78S434.39,311.8,440.51,315.33Z" style="fill:#ebebeb"></path><path d="M438.09,316.73c4.77,2.76,4.79,7.22.05,10s-12.44,2.75-17.21,0-4.8-7.22-.06-10S433.32,314,438.09,316.73Z" style="fill:#e0e0e0"></path><g style="opacity:0.15"><path d="M438.09,316.73c4.77,2.76,4.79,7.22.05,10s-12.44,2.75-17.21,0-4.8-7.22-.06-10S433.32,314,438.09,316.73Z"></path></g><path d="M455.16,255.13c-35.16,11.52-35.48,35-27.55,51.8,2,3.39,8.05,5.21,13.31-15.63l-9.23,1.19L442.45,287l2.8-8.36-9,.67,11.39-4.79A169,169,0,0,1,455.16,255.13Z" style="fill:#1CA220"></path><path d="M455.16,255.13c-35.16,11.52-35.48,35-27.55,51.8,2,3.39,8.05,5.21,13.31-15.63l-9.23,1.19L442.45,287l2.8-8.36-9,.67,11.39-4.79A169,169,0,0,1,455.16,255.13Z" style="opacity:0.2"></path><path d="M455.16,255.13c-35.16,11.52-35.48,35-27.55,51.8,2,3.39,8.05,5.21,13.31-15.63l-9.23,1.19L442.45,287l2.8-8.36-9,.67,11.39-4.79A169,169,0,0,1,455.16,255.13Z" style="fill:#fff;opacity:0.2"></path><path d="M445.22,261c-18.55,14.07-20.22,30.21-15,47.05C428.38,293.24,426.38,278.24,445.22,261Z" style="fill:#fff"></path><path d="M395.6,279c34.67,4.88,38.87,26.74,34.27,43.66-1.3,3.49-6.63,6.19-15-12.34l8.8-.43-10.93-3.29-4-7.32,8.47-.87-11.41-2.57A159.73,159.73,0,0,0,395.6,279Z" style="fill:#1CA220"></path><path d="M395.6,279c34.67,4.88,38.87,26.74,34.27,43.66-1.3,3.49-6.63,6.19-15-12.34l8.8-.43-10.93-3.29-4-7.32,8.47-.87-11.41-2.57A159.73,159.73,0,0,0,395.6,279Z" style="fill:#fff;opacity:0.2"></path><path d="M395.6,279c34.67,4.88,38.87,26.74,34.27,43.66-1.3,3.49-6.63,6.19-15-12.34l8.8-.43-10.93-3.29-4-7.32,8.47-.87-11.41-2.57A159.73,159.73,0,0,0,395.6,279Z" style="opacity:0.1"></path><path d="M405.84,282.86c19.61,10,23.85,24.77,21.77,41.33C426.87,310.07,426.25,295.77,405.84,282.86Z" style="fill:#fff"></path><path d="M465.31,287.22c-31.79.52-38,19.75-35.77,35.51.78,3.3,5.28,6.33,14.89-9.44l-7.88-1.37,10.22-1.75,4.42-6.15-7.54-1.73,10.57-1A145.09,145.09,0,0,1,465.31,287.22Z" style="fill:#1CA220"></path><path d="M455.65,289.52c-18.8,6.85-24.27,19.67-24.25,34.82C433.65,311.7,435.82,298.88,455.65,289.52Z" style="fill:#fff"></path><path d="M465.31,287.22c-31.79.52-38,19.75-35.77,35.51.78,3.3,5.28,6.33,14.89-9.44l-7.88-1.37,10.22-1.75,4.42-6.15-7.54-1.73,10.57-1A145.09,145.09,0,0,1,465.31,287.22Z" style="fill:#fff;opacity:0.2"></path></g><g id="freepik--Shelf--inject-182"><polygon points="448.82 159.05 417.14 177.34 448.92 195.46 448.82 159.05" style="fill:#e0e0e0"></polygon><polygon points="448.82 159.05 417.14 177.34 448.92 195.46 448.82 159.05" style="opacity:0.1"></polygon><polygon points="440.77 154.37 409.1 172.66 417.14 177.34 448.82 159.05 440.77 154.37" style="fill:#e0e0e0"></polygon><polygon points="310.32 76.66 273.6 98.01 273.58 104.52 424.04 191.39 460.77 170.05 460.79 163.53 310.32 76.66" style="fill:#e0e0e0"></polygon><polygon points="310.32 76.66 273.6 98.01 273.58 104.52 424.04 191.39 460.77 170.05 460.79 163.53 310.32 76.66" style="opacity:0.1"></polygon><polygon points="424.06 184.88 424.04 191.39 460.77 170.05 460.79 163.53 424.06 184.88" style="fill:#fff;opacity:0.4"></polygon><polygon points="273.6 98.01 273.58 104.52 424.04 191.39 424.06 184.88 273.6 98.01" style="fill:#fff;opacity:0.2"></polygon><polygon points="460.79 163.53 310.32 76.66 273.6 98.01 273.58 104.52 424.04 191.39 432.83 186.28 448.92 195.46 448.87 176.97 460.77 170.05 460.79 163.53" style="fill:#fff;opacity:0.30000000000000004"></polygon><path d="M324.62,73.91l-16.47.48-16.47-.48c-.71,11.12,1.46,22.45,4.46,28h0a7.47,7.47,0,0,0,3.26,3.32c4.86,2.8,12.71,2.8,17.54,0a7.37,7.37,0,0,0,3.26-3.41C323.18,96.25,325.32,85,324.62,73.91Z" style="fill:#fff"></path><path d="M319.76,67.17c6.45,3.72,6.48,9.76.07,13.48s-16.84,3.73-23.29,0-6.48-9.76-.07-13.48S313.3,63.44,319.76,67.17Z" style="fill:#ebebeb"></path><path d="M317.2,68.65c5,2.9,5.06,7.62.06,10.52s-13.13,2.91-18.17,0-5.06-7.62,0-10.52S312.17,65.74,317.2,68.65Z" style="fill:#e0e0e0"></path><g style="opacity:0.15"><path d="M317.2,68.65c5,2.9,5.06,7.62.06,10.52s-13.13,2.91-18.17,0-5.06-7.62,0-10.52S312.17,65.74,317.2,68.65Z"></path></g><path d="M349.69,73.94c0-6.58,7.11-7.59,7.11-20.13H323.87c0,12.54,7.1,13.55,7.1,20.13s-19.84,15.17-3.55,42.62h.07c0,1.91,1.27,3.81,3.79,5.26,5,2.91,13.17,2.91,18.17,0,2.5-1.45,3.74-3.35,3.73-5.26h.07C369.54,89.11,349.69,80.52,349.69,73.94Z" style="fill:#f0f0f0"></path><path d="M351.94,47.07c6.45,3.72,6.49,9.76.08,13.48s-16.84,3.73-23.29,0-6.49-9.76-.08-13.48S345.49,43.34,351.94,47.07Z" style="fill:#e6e6e6"></path><path d="M349.39,48.55c5,2.9,5.06,7.62.06,10.52s-13.14,2.91-18.17,0-5.06-7.62-.06-10.52S344.36,45.64,349.39,48.55Z" style="fill:#e0e0e0"></path><g style="opacity:0.15"><path d="M349.39,48.55c5,2.9,5.06,7.62.06,10.52s-13.14,2.91-18.17,0-5.06-7.62-.06-10.52S344.36,45.64,349.39,48.55Z"></path></g><path d="M387.83,98c-4.29-1.56-.78-10.43-.78-18.82H369.89c0,8.39,3.51,17.26-.78,18.82-17.95,6.07-15.35,21.32-4.14,42.33h0a8.67,8.67,0,0,0,3.6,3.53c5.5,3.18,14.39,3.18,19.86,0a8.35,8.35,0,0,0,3.63-3.72C403.18,119.22,405.71,104,387.83,98Z" style="fill:#e0e0e0"></path><path d="M387.83,98c-4.29-1.56-.78-10.43-.78-18.82H369.89c0,8.39,3.51,17.26-.78,18.82-17.95,6.07-15.35,21.32-4.14,42.33h0a8.67,8.67,0,0,0,3.6,3.53c5.5,3.18,14.39,3.18,19.86,0a8.35,8.35,0,0,0,3.63-3.72C403.18,119.22,405.71,104,387.83,98Z" style="opacity:0.1"></path><path d="M384.51,75.65c3.37,1.94,3.38,5.09,0,7a13.37,13.37,0,0,1-12.13,0c-3.36-1.94-3.38-5.09,0-7A13.37,13.37,0,0,1,384.51,75.65Z" style="fill:#ebebeb"></path><path d="M382.65,76.74c2.32,1.34,2.33,3.51,0,4.86a9.24,9.24,0,0,1-8.38,0c-2.33-1.35-2.34-3.52,0-4.86A9.26,9.26,0,0,1,382.65,76.74Z" style="fill:#e0e0e0"></path><g style="opacity:0.15"><path d="M382.65,76.74c2.32,1.34,2.33,3.51,0,4.86a9.24,9.24,0,0,1-8.38,0c-2.33-1.35-2.34-3.52,0-4.86A9.26,9.26,0,0,1,382.65,76.74Z"></path></g><path d="M398.21,110.22v45h0c0,1.74,1.16,3.49,3.47,4.82,4.61,2.66,12.06,2.66,16.64,0,2.29-1.33,3.42-3.08,3.41-4.82h0v-45Z" style="fill:#ebebeb"></path><path d="M418.26,105.4c4.61,2.66,4.64,7,.06,9.64s-12,2.66-16.64,0-4.64-7-.06-9.64S413.65,102.74,418.26,105.4Z" style="fill:#e6e6e6"></path><path d="M416.44,106.46c3.59,2.07,3.61,5.44,0,7.52a14.34,14.34,0,0,1-13,0c-3.6-2.08-3.61-5.45,0-7.52A14.28,14.28,0,0,1,416.44,106.46Z" style="fill:#e0e0e0"></path><g style="opacity:0.15"><path d="M416.44,106.46c3.59,2.07,3.61,5.44,0,7.52a14.34,14.34,0,0,1-13,0c-3.6-2.08-3.61-5.45,0-7.52A14.28,14.28,0,0,1,416.44,106.46Z"></path></g><path d="M417.52,127.52v37.92h0c0,1.47,1,2.94,2.93,4.06a15.47,15.47,0,0,0,14,0c1.93-1.12,2.89-2.59,2.88-4.06h0V127.52Z" style="fill:#e6e6e6"></path><path d="M434.42,123.46c3.89,2.24,3.91,5.88.05,8.12a15.47,15.47,0,0,1-14,0c-3.89-2.24-3.91-5.88-.05-8.12A15.47,15.47,0,0,1,434.42,123.46Z" style="fill:#e6e6e6"></path><path d="M432.89,124.35c3,1.75,3,4.59,0,6.34a12.05,12.05,0,0,1-10.94,0c-3-1.75-3.05-4.59,0-6.34A12.05,12.05,0,0,1,432.89,124.35Z" style="fill:#e0e0e0"></path><g style="opacity:0.15"><path d="M432.89,124.35c3,1.75,3,4.59,0,6.34a12.05,12.05,0,0,1-10.94,0c-3-1.75-3.05-4.59,0-6.34A12.05,12.05,0,0,1,432.89,124.35Z"></path></g></g><g id="freepik--character-1--inject-182"><path d="M290.62,235.89c.36.19.72.38,1.07.58Z" style="fill:none"></path><path d="M291.86,236.56l-.05,0,.16.09Z" style="fill:none"></path><path d="M193.07,126.43c-.81,1.09-2.38,1.33-3.34,2.29a2.91,2.91,0,1,0,4.3,3.91,8.32,8.32,0,0,1-.76,3.24,3.25,3.25,0,0,1-2.6,1.88,5.88,5.88,0,0,1-.15,6.32,5.94,5.94,0,0,1-5.81,2.55c-.29,3-3,5.78-5.84,6.92a13.11,13.11,0,0,1-9-.07,28.54,28.54,0,0,1-8-4.57,31.53,31.53,0,0,1-13.46-1.19c-2.74-.94-5.49-2.4-6.94-4.9s-1-6.25,1.5-7.65c-1.36.65-3.29,0-4.42-1a3.86,3.86,0,0,1,2.31-6.73,3.38,3.38,0,0,1-.78-3.33,3.16,3.16,0,0,1,2.67-1.92,2.74,2.74,0,0,0,.07,2.92,2.57,2.57,0,0,0,2.7.78,3.4,3.4,0,0,0,2-2,11.38,11.38,0,0,0,.63-2.83,21.52,21.52,0,0,1,3.26-9.42c1.93-2.73,5.13-4.76,8.47-4.55a16.51,16.51,0,0,1,21.32-6.21c3.06,1.5,5.74,4.19,6.31,7.55a18.23,18.23,0,0,1,4.33.66,5.82,5.82,0,0,1,3.48,2.34,3.52,3.52,0,0,1-.08,4c-.64.78-1.73,1.34-1.74,2.34s.82,1.49,1.09,2.3a2.57,2.57,0,0,1-.49,2.28,8.21,8.21,0,0,1-1.83,1.59c-.6.43-1.27,1-1.17,1.76S192.54,127,193.07,126.43Z" style="fill:#263238"></path><path d="M177.23,149.28h0a11.92,11.92,0,0,1,8.56,9.44l4.85,27.62L213,212.29l-7.61,4.07-20.68-20.09a19.49,19.49,0,0,1-5.58-10.41l-5.79-31Z" style="fill:#ffa8a7"></path><path d="M115.39,348.61a3.35,3.35,0,0,1-6.33-.3,10.52,10.52,0,0,1-.58-3.83q-.14-6.48.31-13a43.49,43.49,0,0,0,9,.94q-.69,6-1.39,12A10.92,10.92,0,0,1,115.39,348.61Z" style="fill:#ffa8a7"></path><path d="M106,342.39c1.12-3.6,2.34-7.28,2.08-11l.75.18q-.44,6.47-.31,13a10.52,10.52,0,0,0,.58,3.83,3.35,3.35,0,0,0,6.33.3,10.92,10.92,0,0,0,1-4.18q.7-6,1.39-12l1,0c-.81,4.47-.23,9.06,0,13.6s.24,9.27-1.71,13.37a6,6,0,0,1-2.21,2.73,4.58,4.58,0,0,1-3.59.33,8,8,0,0,1-3.12-1.94,12.78,12.78,0,0,1-3.78-7.1C103.8,349.76,104.84,346,106,342.39Z" style="fill:#1CA220"></path><path d="M153.07,338.94l-.74,4.46c-3.53-1.69-4.67-3.58-4.67-3.58-.09-3.42,0-6.94,0-8.65.94,2.08,3,3.48,4.27,5.4A10.63,10.63,0,0,1,153.07,338.94Z" style="fill:#1CA220"></path><path d="M154.21,342.91l-1.88.49.74-4.46C153.53,340.23,153.84,341.58,154.21,342.91Z" style="fill:#1CA220"></path><path d="M147.47,326.24a17.6,17.6,0,0,1,1.46-3.4,9.71,9.71,0,0,0,1.64,5.13c1.27,2,3,3.82,4.19,5.9,1.48,2.53,2.25,5.51,4.21,7.71a9.24,9.24,0,0,0,7.7,3,4.07,4.07,0,0,0,2.82-1.26A2.22,2.22,0,0,0,170,342a21.06,21.06,0,0,0,3.18,2.78c1.28.89,2.82,1.84,3,3.39a3.33,3.33,0,0,1-1.84,3.16,8.76,8.76,0,0,1-3.76.84,23.94,23.94,0,0,1-8.27-.71,11.47,11.47,0,0,1-6.61-4.79,14.72,14.72,0,0,1-1.47-3.73c-.37-1.33-.68-2.68-1.14-4a10.63,10.63,0,0,0-1.16-2.37c-1.28-1.92-3.33-3.32-4.27-5.4l-.16-.33A7.31,7.31,0,0,1,147.47,326.24Z" style="fill:#1CA220"></path><path d="M166.67,344.57a9.24,9.24,0,0,1-7.7-3c-2-2.2-2.73-5.18-4.21-7.71-1.22-2.08-2.92-3.85-4.19-5.9a9.71,9.71,0,0,1-1.64-5.13c.15-.29.3-.58.46-.86,3.85.68,8.05.92,11.75,2.17a74.17,74.17,0,0,0,4.34,11.33A28.72,28.72,0,0,0,170,342a2.22,2.22,0,0,1-.46,1.34A4.07,4.07,0,0,1,166.67,344.57Z" style="fill:#ffa8a7"></path><path d="M153.07,338.94l-.74,4.46c-3.53-1.69-4.67-3.58-4.67-3.58-.09-3.42,0-6.94,0-8.65.94,2.08,3,3.48,4.27,5.4A10.63,10.63,0,0,1,153.07,338.94Z" style="fill:#fff;opacity:0.24"></path><path d="M154.21,342.91l-1.88.49.74-4.46C153.53,340.23,153.84,341.58,154.21,342.91Z" style="fill:#fff;opacity:0.1"></path><path d="M147.47,326.24a17.6,17.6,0,0,1,1.46-3.4,9.71,9.71,0,0,0,1.64,5.13c1.27,2,3,3.82,4.19,5.9,1.48,2.53,2.25,5.51,4.21,7.71a9.24,9.24,0,0,0,7.7,3,4.07,4.07,0,0,0,2.82-1.26A2.22,2.22,0,0,0,170,342a21.06,21.06,0,0,0,3.18,2.78c1.28.89,2.82,1.84,3,3.39a3.33,3.33,0,0,1-1.84,3.16,8.76,8.76,0,0,1-3.76.84,23.94,23.94,0,0,1-8.27-.71,11.47,11.47,0,0,1-6.61-4.79,14.72,14.72,0,0,1-1.47-3.73c-.37-1.33-.68-2.68-1.14-4a10.63,10.63,0,0,0-1.16-2.37c-1.28-1.92-3.33-3.32-4.27-5.4l-.16-.33A7.31,7.31,0,0,1,147.47,326.24Z" style="fill:#1CA220"></path><path d="M167.72,190.61l.63,9.77c7.35,30.31,1.25,69.35,1.25,69.35l-7.82,55.06A9.37,9.37,0,0,1,148.7,322c-1.25-13.58,0-34.77,1.92-51.44-2.52-13.13-5.72-40.06-5.72-40.06l-8.54,42.63-16.82,60.16c-5.68,2.4-10.73.76-12.37-1.45,1.32-34.4,4.7-48.73,10-64.64-.78-20.35-1.89-35.3-1.71-47a56.37,56.37,0,0,1,15.75-38h0Z" style="fill:#455a64"></path><path d="M142,142.25,153.53,144a22,22,0,0,0,15,12.57,6.1,6.1,0,0,0,4.07-.1,4.76,4.76,0,0,0,2.27-4.72,9.84,9.84,0,0,0-.93-3.25l3.28.79a36.85,36.85,0,0,1,5.9,15.08,15.9,15.9,0,0,1-.2,7.2,7.58,7.58,0,0,1-4.74,5.13c-.39,2.74-7.59,17.12-8.63,19.69a11.57,11.57,0,0,1-5.31,6.17,14.87,14.87,0,0,1-7.55,1,53,53,0,0,1-18.93-4.94c-3.42-1.62-6.86-3.81-8.4-7.27-1.43-3.22-1-7-.07-10.37S142,142.25,142,142.25Z" style="fill:#1CA220"></path><path d="M172.61,156.46a6.1,6.1,0,0,1-4.07.1,22,22,0,0,1-15-12.57l3.87.58,2.93-12.19,11.95,8.26-1.7,7,3.37.81a9.84,9.84,0,0,1,.93,3.25A4.76,4.76,0,0,1,172.61,156.46Z" style="fill:#ffa8a7"></path><path d="M161.17,133c2.1,8.61,4.52,9.37,10.2,11.46l.91-3.78Z" style="opacity:0.2"></path><path d="M189.31,121a49,49,0,0,1-4,17.57c-.91,2.09-2.1,4.25-4.16,5.22-2.54,1.2-5.52.21-8.14-.79a32.25,32.25,0,0,1-8.2-4,10.91,10.91,0,0,1-4.61-7.61,4,4,0,0,1-4.44-1.86,7,7,0,0,1-.59-5.06c.33-1.54,1.15-3.17,2.65-3.65a3.62,3.62,0,0,1,3.06.6,7.73,7.73,0,0,1,2.08,2.43,5.48,5.48,0,0,0,1,1.32,1.53,1.53,0,0,0,1.51.37c.63-.24.88-1,1.07-1.62.77-2.63,1.71-5.33,3.62-7.29s5.07-3,7.47-1.66c1.1.6,2,1.64,3.19,2a5.81,5.81,0,0,0,3-.24l.05,0A4.12,4.12,0,0,1,189.31,121Z" style="fill:#ffa8a7"></path><polygon points="179.28 126.18 181.36 132.92 177 132.7 179.28 126.18" style="fill:#f28f8f"></polygon><path d="M172.48,133.77l2.8,2.3a2.13,2.13,0,0,1-2.57.11A1.92,1.92,0,0,1,172.48,133.77Z" style="fill:#f28f8f"></path><path d="M172.48,133.77l2.8,2.3a2.13,2.13,0,0,1-2.57.11A1.92,1.92,0,0,1,172.48,133.77Z" style="opacity:0.30000000000000004"></path><path d="M173.79,136.55a2.06,2.06,0,0,1-1.08-.37,1.74,1.74,0,0,1-.45-1.88,2,2,0,0,1,1.53,2.25Z" style="fill:#f28f8f"></path><path d="M173.79,136.55a2.06,2.06,0,0,1-1.08-.37,1.74,1.74,0,0,1-.45-1.88,2,2,0,0,1,1.53,2.25Z" style="opacity:0.1"></path><path d="M173.17,125a1.24,1.24,0,0,0,.76,1.57,1.23,1.23,0,1,0,.81-2.33A1.24,1.24,0,0,0,173.17,125Z" style="fill:#263238"></path><path d="M183.08,128a1.23,1.23,0,1,0,2.33.81,1.23,1.23,0,1,0-2.33-.81Z" style="fill:#263238"></path><path d="M185.84,123.77l2,2.69a1.76,1.76,0,0,0,.13-2A2.07,2.07,0,0,0,185.84,123.77Z" style="fill:#263238"></path><path d="M175.91,120.14l-3.2.88a1.76,1.76,0,0,1,1.14-1.65A2.06,2.06,0,0,1,175.91,120.14Z" style="fill:#263238"></path><path d="M169.56,196.38c-18.08,1.07-37.89-8-40.26-15.42l-1.71,4.3a20.36,20.36,0,0,0,2.81,9.13c-2.45,54.43-17.26,104.66-17.26,104.66,35.91,11.72,54.49-4,60.77-11.05h0a222.6,222.6,0,0,0-1-60.46L169,202a10.67,10.67,0,0,1,.15-4Z" style="fill:#e6e6e6"></path><g style="opacity:0.1"><path d="M134.93,255.68a38.19,38.19,0,0,0,10.8-3.49,41.46,41.46,0,0,0,18.42-18,38.1,38.1,0,0,0,3.76-10.72h0a61.17,61.17,0,0,1-5,10A52.77,52.77,0,0,1,145,250.87,60.87,60.87,0,0,1,134.93,255.68Z"></path><path d="M142.45,248.41a38.64,38.64,0,0,0,7.16-6,44.67,44.67,0,0,0,6.3-8.66,44.16,44.16,0,0,0,4-9.94,38.93,38.93,0,0,0,1.35-9.27h0a64.49,64.49,0,0,1-18.82,33.92Z"></path><path d="M165.79,284.77a73.37,73.37,0,0,1-10,5.49,65.69,65.69,0,0,1-12.2,4.07,66.85,66.85,0,0,1-12.76,1.59,73.79,73.79,0,0,1-11.42-.63h0a42.64,42.64,0,0,0,11.4,2.15,48.21,48.21,0,0,0,25.66-5.81A42.79,42.79,0,0,0,165.79,284.77Z"></path></g><path d="M158.35,253.1c-1.16-.14-2.57-.18-3.2.8s.13,2.47.08,3.75a4.51,4.51,0,0,1-2.17,3.23,18.24,18.24,0,0,0-3.26,2.37,3.08,3.08,0,0,0-.61,3.68,2.92,2.92,0,0,0,3.15.88,8.42,8.42,0,0,0,2.94-1.82,8.56,8.56,0,0,1,2.95-1.82,16.46,16.46,0,0,1,3.3-.25,3.41,3.41,0,0,0,2.82-1.47c.64-1.21,0-2.73.39-4a9.66,9.66,0,0,1,1.9-2.65c.65-.87,1-2.24.17-3-1.27-1.14-2.44.36-3.6.72C161.82,254,159.77,253.28,158.35,253.1Z" style="fill:#1CA220;opacity:0.6000000000000001"></path><path d="M142.75,224.62c1.15.37,2.38.44,3.56.72a6.32,6.32,0,0,1,3.49,2,3.71,3.71,0,0,1,.61,3.83,2.65,2.65,0,0,1-3.43,1.28c-.72-.38-1.18-1.13-1.88-1.55-1-.63-2.31-.45-3.5-.59A6.55,6.55,0,0,1,136,224c0-1.66,1.36-4,3.31-2.74.56.36.7,1,1,1.54A4.43,4.43,0,0,0,142.75,224.62Z" style="fill:#1CA220;opacity:0.6000000000000001"></path><path d="M154.45,210.42a3.66,3.66,0,0,0-2.54,2.24,2.26,2.26,0,0,0,1.39,2.84c1.08.27,2.28-.49,3.32-.07.85.34,1.48,1.42,2.37,1.22s1-1.55,1.6-2.28c.8-.93,2.3-.67,3.42-1.15a2.64,2.64,0,0,0,1.55-2.47,2.54,2.54,0,0,0-1.8-2.28c-1.88-.53-3.3,1.07-5,1.54C157.38,210.4,155.88,210,154.45,210.42Z" style="fill:#1CA220;opacity:0.6000000000000001"></path><path d="M144.52,196.79a15.13,15.13,0,0,1-5.26-8.43c-1.74-7.76-3.88-18.44-5.46-24.08-3.13-11.17-3.44-21,8.24-22,5.58,4.76,9.6,42.82,9.6,42.82l25.12,26.81,10.4-1.94a2.66,2.66,0,0,1,2.6,1l3.44,4.55a2.25,2.25,0,0,1,0,2.76l-1.77,2.21a5.1,5.1,0,0,1-6.57,1.2l-2.08-1.23-4.15.69a7.19,7.19,0,0,1-5.7-1.5Z" style="fill:#ffa8a7"></path><path d="M193.2,215.5l-1.63-2.16a1.67,1.67,0,0,0-1.32.67c-.21.29-.34.67-.65.85-.54.31-1.21-.18-1.83-.12a1.58,1.58,0,0,0-1.22,1.42,16.85,16.85,0,0,0,0,2,1.57,1.57,0,0,1-2.66,1.35,17.31,17.31,0,0,0-1.49-1.1,2.76,2.76,0,0,0-3.1.47c-.46.45-.79,1.09-1.4,1.29-.85.28-1.7-.45-2.59-.55a1.92,1.92,0,0,0-1.54.6,7.17,7.17,0,0,0,4.82.9l4.15-.69,2.08,1.23a5.1,5.1,0,0,0,6.57-1.2l1.77-2.21A2.25,2.25,0,0,0,193.2,215.5Z" style="fill:#1CA220;opacity:0.6000000000000001"></path><path d="M213,212.29l9.5.19a3.23,3.23,0,0,1,2.86,1.84l1.23,2.57a3.74,3.74,0,0,1-1.7,5l-1.84.9a3.72,3.72,0,0,1-4.35-.76L217,220.22h-6l1,3.94a1.51,1.51,0,0,1-1,1.78h0a1.5,1.5,0,0,1-1.77-.67l-2-3.46-1.82-5.45Z" style="fill:#ffa8a7"></path><g style="opacity:0.6000000000000001"><path d="M221,220.65c0-.72.37-1.52,0-2.12a1.6,1.6,0,0,0-1.75-.43,4.37,4.37,0,0,1-1.88.27c-.61-.14-1.11-.67-1.75-.71a1.84,1.84,0,0,0-1.5,1,15.94,15.94,0,0,1-1,1.57l0,0h4l1.72,1.78a3.71,3.71,0,0,0,3.74,1c-.19-.22-.39-.43-.58-.64A3,3,0,0,1,221,220.65Z" style="fill:#1CA220"></path><path d="M207.15,221.55l.09.26,2,3.46a1.5,1.5,0,0,0,2.79-.76A8.35,8.35,0,0,0,207.15,221.55Z" style="fill:#1CA220"></path><path d="M226.33,216.28a4,4,0,0,0-1.23.66,2.05,2.05,0,0,0-.72,2.25c.18.42.56.82.46,1.27s-.4.57-.64.84a1.88,1.88,0,0,0-.45,1.13l1.17-.57a3.74,3.74,0,0,0,1.7-5Z" style="fill:#1CA220"></path></g></g><g id="freepik--Table--inject-182"><path d="M223.6,329.25c.36,39.33.78,77.21.78,77.21a1.44,1.44,0,0,0,.85,1.17,4.45,4.45,0,0,0,4.05,0,1.41,1.41,0,0,0,.83-1.17s.42-37.87.78-77.19C228.46,329.35,226,329.35,223.6,329.25Z" style="fill:#455a64"></path><path d="M175.81,378.08a1.44,1.44,0,0,0,.84,1.18,4.51,4.51,0,0,0,4,0,1.44,1.44,0,0,0,.84-1.18S183.36,351,186,318.87a42.84,42.84,0,0,1-6.86-5.22C177,348.07,175.81,378.08,175.81,378.08Z" style="fill:#455a64"></path><path d="M273,378.08a1.42,1.42,0,0,0,.83,1.18,4.51,4.51,0,0,0,4,0,1.47,1.47,0,0,0,.85-1.18s-1.2-29.92-3.31-64.26a42.64,42.64,0,0,1-6.85,5.19C271.14,351.11,273,378.08,273,378.08Z" style="fill:#455a64"></path><path d="M223.6,329.25c.36,39.33.78,77.21.78,77.21a1.44,1.44,0,0,0,.85,1.17,4.45,4.45,0,0,0,4.05,0,1.41,1.41,0,0,0,.83-1.17s.42-37.87.78-77.19C228.46,329.35,226,329.35,223.6,329.25Z" style="opacity:0.30000000000000004"></path><path d="M175.81,378.08a1.44,1.44,0,0,0,.84,1.18,4.51,4.51,0,0,0,4,0,1.44,1.44,0,0,0,.84-1.18S183.36,351,186,318.87a42.84,42.84,0,0,1-6.86-5.22C177,348.07,175.81,378.08,175.81,378.08Z" style="opacity:0.30000000000000004"></path><path d="M273,378.08a1.42,1.42,0,0,0,.83,1.18,4.51,4.51,0,0,0,4,0,1.47,1.47,0,0,0,.85-1.18s-1.2-29.92-3.31-64.26a42.64,42.64,0,0,1-6.85,5.19C271.14,351.11,273,378.08,273,378.08Z" style="opacity:0.30000000000000004"></path><path d="M223.6,329.25c.36,39.33.78,77.21.78,77.21a1.44,1.44,0,0,0,.85,1.17,4.45,4.45,0,0,0,4.05,0,1.41,1.41,0,0,0,.83-1.17s.42-37.87.78-77.19C228.46,329.35,226,329.35,223.6,329.25Z" style="fill:#fff;opacity:0.2"></path><path d="M175.81,378.08a1.44,1.44,0,0,0,.84,1.18,4.51,4.51,0,0,0,4,0,1.44,1.44,0,0,0,.84-1.18S183.36,351,186,318.87a42.84,42.84,0,0,1-6.86-5.22C177,348.07,175.81,378.08,175.81,378.08Z" style="fill:#fff;opacity:0.2"></path><path d="M273,378.08a1.42,1.42,0,0,0,.83,1.18,4.51,4.51,0,0,0,4,0,1.47,1.47,0,0,0,.85-1.18s-1.2-29.92-3.31-64.26a42.64,42.64,0,0,1-6.85,5.19C271.14,351.11,273,378.08,273,378.08Z" style="fill:#fff;opacity:0.2"></path><path d="M283.74,290.25c0,8.38-5.42,16.75-16.42,23.14-22,12.78-57.75,12.78-79.89,0-11.06-6.39-16.63-14.76-16.67-23.14h0v6.36c0,5.92,2.83,11.83,8.36,17a42.84,42.84,0,0,0,6.86,5.22c.48.29,1,.59,1.45.88,10.09,5.83,23,9,36.17,9.5,2.43.1,4.86.1,7.29,0,13.28-.47,26.31-3.64,36.43-9.52.42-.24.81-.49,1.21-.74a42.64,42.64,0,0,0,6.85-5.19c5.6-5.25,8.39-11.23,8.36-17.21h0v-6.36Z" style="fill:#455a64"></path><path d="M283.74,290.25c0,8.38-5.42,16.75-16.42,23.14-22,12.78-57.75,12.78-79.89,0-11.06-6.39-16.63-14.76-16.67-23.14h0v6.36c0,5.92,2.83,11.83,8.36,17a42.84,42.84,0,0,0,6.86,5.22c.48.29,1,.59,1.45.88,10.09,5.83,23,9,36.17,9.5,2.43.1,4.86.1,7.29,0,13.28-.47,26.31-3.64,36.43-9.52.42-.24.81-.49,1.21-.74a42.64,42.64,0,0,0,6.85-5.19c5.6-5.25,8.39-11.23,8.36-17.21h0v-6.36Z" style="opacity:0.2"></path><path d="M187.43,313.39c22.14,12.78,57.9,12.78,79.89,0,11-6.39,16.46-14.76,16.42-23.14s-5.61-16.75-16.68-23.14c-22.13-12.77-57.9-12.77-79.89,0-11,6.39-16.46,14.77-16.41,23.14S176.37,307,187.43,313.39Z" style="fill:#455a64"></path><path d="M187.43,313.39c22.14,12.78,57.9,12.78,79.89,0,11-6.39,16.46-14.76,16.42-23.14s-5.61-16.75-16.68-23.14c-22.13-12.77-57.9-12.77-79.89,0-11,6.39-16.46,14.77-16.41,23.14S176.37,307,187.43,313.39Z" style="opacity:0.2"></path><path d="M283.74,290.25c0,8.38-5.42,16.75-16.42,23.14-22,12.78-57.75,12.78-79.89,0-11.06-6.39-16.63-14.76-16.67-23.14h0v6.36c0,5.92,2.83,11.83,8.36,17a42.84,42.84,0,0,0,6.86,5.22c.48.29,1,.59,1.45.88,10.09,5.83,23,9,36.17,9.5,2.43.1,4.86.1,7.29,0,13.28-.47,26.31-3.64,36.43-9.52.42-.24.81-.49,1.21-.74a42.64,42.64,0,0,0,6.85-5.19c5.6-5.25,8.39-11.23,8.36-17.21h0v-6.36Z" style="fill:#fff;opacity:0.2"></path><path d="M187.43,313.39c22.14,12.78,57.9,12.78,79.89,0,11-6.39,16.46-14.76,16.42-23.14s-5.61-16.75-16.68-23.14c-22.13-12.77-57.9-12.77-79.89,0-11,6.39-16.46,14.77-16.41,23.14S176.37,307,187.43,313.39Z" style="fill:#fff;opacity:0.30000000000000004"></path><g style="opacity:0.30000000000000004"><path d="M223.6,329.25c0,2.63.05,5.26.08,7.87,2.37.09,4.76.09,7.14,0,0-2.61.05-5.23.07-7.86C228.46,329.35,226,329.35,223.6,329.25Z"></path><path d="M179.12,313.65c-.15,2.51-.3,5-.45,7.45a42.41,42.41,0,0,0,6.7,5.26q.3-3.69.61-7.49A42.84,42.84,0,0,1,179.12,313.65Z"></path><path d="M275.38,313.82a42.64,42.64,0,0,1-6.85,5.19c.2,2.54.41,5,.6,7.5a42,42,0,0,0,6.7-5.24Q275.62,317.58,275.38,313.82Z"></path></g><path d="M267.56,275.53c0,6-3.87,12-11.72,16.51-15.69,9.12-41.22,9.12-57,0-7.18-4.14-11.1-9.45-11.78-14.87v7.27c-.84,6.57,3.08,13.3,11.78,18.32,15.79,9.12,41.32,9.12,57,0,7.85-4.56,11.75-10.54,11.72-16.51h0V275.53Z" style="fill:#e0e0e0"></path><path d="M198.83,292c15.79,9.12,41.32,9.12,57,0,7.85-4.56,11.75-10.54,11.72-16.51s-4-12-11.9-16.52c-15.8-9.12-41.33-9.12-57,0-8.57,5-12.42,11.65-11.59,18.16C187.73,282.59,191.65,287.9,198.83,292Z" style="fill:#e0e0e0"></path><path d="M267.56,275.53c0,6-3.87,12-11.72,16.51-15.69,9.12-41.22,9.12-57,0-7.18-4.14-11.1-9.45-11.78-14.87v7.27c-.84,6.57,3.08,13.3,11.78,18.32,15.79,9.12,41.32,9.12,57,0,7.85-4.56,11.75-10.54,11.72-16.51h0V275.53Z" style="opacity:0.2"></path><path d="M198.83,292c15.79,9.12,41.32,9.12,57,0,7.85-4.56,11.75-10.54,11.72-16.51s-4-12-11.9-16.52c-15.8-9.12-41.33-9.12-57,0-8.57,5-12.42,11.65-11.59,18.16C187.73,282.59,191.65,287.9,198.83,292Z" style="opacity:0.1"></path><g style="opacity:0.2"><path d="M227.37,292.81h0c-9.58,0-18.88-2.19-25.51-6-5.2-3-8.33-6.69-8.79-10.38-.54-4.22,2.6-8.65,8.62-12.15,6.58-3.82,15.85-6,25.42-6s18.88,2.2,25.51,6c5.62,3.24,8.85,7.36,8.87,11.29s-3.15,8-8.7,11.23C246.21,290.62,237,292.81,227.37,292.81Zm-.26-33.93c-9.46,0-18.61,2.16-25.1,5.93-5.78,3.36-8.81,7.56-8.31,11.52.44,3.48,3.45,7,8.48,9.9,6.54,3.78,15.72,5.94,25.19,5.94h0c9.47,0,18.62-2.16,25.1-5.93,5.35-3.1,8.4-7,8.38-10.68s-3.13-7.61-8.55-10.74C245.76,261.05,236.58,258.88,227.11,258.88Z" style="fill:#fff"></path></g><path d="M218.38,264.29a3,3,0,0,1,2.24,5c-1,1.12-2.63,1.1-4.13,1.22a4.76,4.76,0,0,1-9,3,5,5,0,0,1-8.46-1.21,3.3,3.3,0,0,1-.26-1.88A2,2,0,0,1,199.9,269a3.07,3.07,0,0,1-1.9-3.59,3.94,3.94,0,0,1,4-2.47,3.27,3.27,0,0,1-1.36-3.41,4.39,4.39,0,0,1,2.38-2.94,7,7,0,0,1,3.8-.64,6.36,6.36,0,0,1,2.9.89,3.56,3.56,0,0,1,1.65,2.47,6.06,6.06,0,0,1,4.53.08C217.22,260,218.88,262.86,218.38,264.29Z" style="fill:#1CA220"></path><path d="M212.9,252.83V274.9h0a5.83,5.83,0,0,0,0,.59c.24,1.93,1.64,3.82,4.19,5.29,5.62,3.25,14.71,3.25,20.3,0,2.79-1.62,4.18-3.75,4.17-5.88h0V252.83Z" style="fill:#1CA220"></path><path d="M212.9,252.83V274.9h0a5.83,5.83,0,0,0,0,.59c.24,1.93,1.64,3.82,4.19,5.29,5.62,3.25,14.71,3.25,20.3,0,2.79-1.62,4.18-3.75,4.17-5.88h0V252.83Z" style="opacity:0.15"></path><g style="opacity:0.1"><path d="M216.71,265.92c5.86,3.38,15.32,3.38,21.14,0a9.23,9.23,0,0,0,3.75-3.69v-1.85a9.21,9.21,0,0,1-3.75,3.68c-5.82,3.38-15.28,3.38-21.14,0a9.23,9.23,0,0,1-3.81-3.76v1.86A9.35,9.35,0,0,0,216.71,265.92Z"></path><path d="M237.85,271.41c-5.82,3.38-15.28,3.38-21.14,0a9.23,9.23,0,0,1-3.81-3.76v1.86a9.23,9.23,0,0,0,3.81,3.76c5.86,3.38,15.32,3.38,21.14,0a9.17,9.17,0,0,0,3.75-3.69v-1.85A9.15,9.15,0,0,1,237.85,271.41Z"></path></g><path d="M256.45,221a29.21,29.21,0,1,0-48.2,22.18,13.55,13.55,0,0,1,4.65,10.32v.08h0a5.63,5.63,0,0,0,0,.58c.24,1.93,1.64,3.82,4.19,5.3,5.62,3.24,14.71,3.24,20.3,0,2.79-1.63,4.18-3.76,4.17-5.88h0v-.08a14.15,14.15,0,0,1,5-10.59A29.12,29.12,0,0,0,256.45,221Z" style="fill:#1CA220"></path><path d="M221.53,256.12c-2.56-1.48-3.95-3.37-4.2-5.3a5.62,5.62,0,0,1,0-.58h0v-.08a13.55,13.55,0,0,0-4.65-10.32,29.13,29.13,0,0,1-.53-43.84,29.17,29.17,0,0,0-3.87,47.13,13.55,13.55,0,0,1,4.65,10.32v.08h0a5.63,5.63,0,0,0,0,.58c.24,1.93,1.64,3.82,4.19,5.3,5.62,3.24,14.71,3.24,20.3,0a9.91,9.91,0,0,0,3-2.59C234.82,259.34,226.71,259.11,221.53,256.12Z" style="opacity:0.15"></path><g style="opacity:0.30000000000000004"><path d="M235.86,213.08a.39.39,0,0,1,.2-.05c.18,0,.25.26.14.54l0,.1-2.35,5.89a15.54,15.54,0,0,0-1.22,5.81l0,22.47a.87.87,0,0,1-.39.67c-.22.13-.39,0-.39-.22l0-22.47a17.51,17.51,0,0,1,1.33-6.34l1.42-3.55a3.21,3.21,0,0,1-.59.42,2,2,0,0,1-1.68.27,5.24,5.24,0,0,1-1.68,1.67,1.94,1.94,0,0,1-1.67.26,5.14,5.14,0,0,1-1.68,1.67,2,2,0,0,1-1.67.27,5.24,5.24,0,0,1-1.68,1.67,2,2,0,0,1-1.67.26,5.14,5.14,0,0,1-1.68,1.67,2.65,2.65,0,0,1-.6.27l1.44,1.9a8,8,0,0,1,1.36,4.79l0,22.46a.85.85,0,0,1-.39.68c-.22.13-.39,0-.39-.22l0-22.46a7.29,7.29,0,0,0-1.24-4.4L218.34,224l0-.06a.65.65,0,0,1,.14-.7,1,1,0,0,1,.19-.17c.14-.08.27-.08.34,0l0,0a1.14,1.14,0,0,0,1.54.09,3.68,3.68,0,0,0,1.37-1.53.93.93,0,0,1,.3-.32.28.28,0,0,1,.3,0,1.23,1.23,0,0,0,1.38-.06,3.9,3.9,0,0,0,1.38-1.53.76.76,0,0,1,.29-.32.26.26,0,0,1,.3,0,1.23,1.23,0,0,0,1.38-.07,3.8,3.8,0,0,0,1.38-1.52.79.79,0,0,1,.29-.33c.12-.06.23-.08.3,0a1.23,1.23,0,0,0,1.38-.06,3.84,3.84,0,0,0,1.38-1.53.76.76,0,0,1,.29-.32c.12-.07.23-.08.3,0a1.23,1.23,0,0,0,1.38-.07,3.93,3.93,0,0,0,1.54-1.86l0-.09A.92.92,0,0,1,235.86,213.08Z" style="fill:#fff"></path></g><path d="M238.37,275.18a4.54,4.54,0,0,0-7.16,2.39,6.58,6.58,0,0,0-3.41-1.11,3.81,3.81,0,0,0-3.15,1.54,2.7,2.7,0,0,0,.22,3.35,13.1,13.1,0,0,0-2.94,1.3,4.38,4.38,0,0,0-1.93,2.49,3.92,3.92,0,0,0,1.53,3.89,6.11,6.11,0,0,0,4.19,1.06,5.94,5.94,0,0,0,4.4,5.31,6,6,0,0,0,6.28-3,7.3,7.3,0,0,0,11.46-7,5.29,5.29,0,0,0,3.93-7.79,4.36,4.36,0,0,0,0-5.64,4,4,0,0,0-5.38-.09,4.89,4.89,0,0,0-4.35-.41C240.69,272.07,238.73,273.72,238.37,275.18Z" style="fill:#1CA220"></path><path d="M202.53,225.75l.7,3.33a1.22,1.22,0,0,0,1,.95l3.33.7-3.33.71a1.22,1.22,0,0,0-1,.94l-.7,3.33-.71-3.33a1.22,1.22,0,0,0-.95-.94l-3.33-.71,3.33-.7a1.22,1.22,0,0,0,.95-.95Z" style="fill:#fff"></path><path d="M208.14,222.86l.32,1.51a.54.54,0,0,0,.43.43l1.51.32-1.51.32a.53.53,0,0,0-.43.43l-.32,1.51-.32-1.51a.54.54,0,0,0-.43-.43l-1.51-.32,1.51-.32a.56.56,0,0,0,.43-.43Z" style="fill:#fff"></path><path d="M248.35,221.59l.44,2.12a.78.78,0,0,0,.61.6l2.12.45-2.12.44a.79.79,0,0,0-.61.61l-.44,2.12-.45-2.12a.8.8,0,0,0-.6-.61l-2.12-.44,2.12-.45a.78.78,0,0,0,.6-.6Z" style="fill:#fff"></path><path d="M245.18,228.92l.56,2.67a1,1,0,0,0,.76.75l2.66.57-2.66.56a1,1,0,0,0-.76.76l-.56,2.66-.57-2.66a1,1,0,0,0-.75-.76l-2.67-.56,2.67-.57a1,1,0,0,0,.75-.75Z" style="fill:#fff"></path><path d="M254,218.51l.24,1.15a.46.46,0,0,0,.33.33l1.15.24-1.15.24a.46.46,0,0,0-.33.33L254,222l-.24-1.15a.46.46,0,0,0-.33-.33l-1.15-.24,1.15-.24a.46.46,0,0,0,.33-.33Z" style="fill:#fff"></path><path d="M213.84,192.88l.72,3.39a1.25,1.25,0,0,0,1,1l3.39.71-3.39.72a1.24,1.24,0,0,0-1,1l-.72,3.39-.71-3.39a1.24,1.24,0,0,0-1-1l-3.39-.72,3.39-.71a1.25,1.25,0,0,0,1-1Z" style="fill:#fff"></path><path d="M235.94,193.42l.54,2.55a.93.93,0,0,0,.72.72l2.54.54-2.54.54a.92.92,0,0,0-.72.72l-.54,2.54-.54-2.54a.92.92,0,0,0-.72-.72l-2.54-.54,2.54-.54a.93.93,0,0,0,.72-.72Z" style="fill:#fff"></path><path d="M246.26,197.59l.46,2.18a.82.82,0,0,0,.62.62l2.18.46-2.18.46a.82.82,0,0,0-.62.62l-.46,2.18-.46-2.18a.8.8,0,0,0-.62-.62l-2.18-.46,2.18-.46a.8.8,0,0,0,.62-.62Z" style="fill:#fff"></path><path d="M245.18,260.62l.64,3a1.11,1.11,0,0,0,.86.87l3,.63-3,.64a1.11,1.11,0,0,0-.86.87l-.64,3-.64-3a1.13,1.13,0,0,0-.86-.87l-3-.64,3-.63a1.13,1.13,0,0,0,.86-.87Z" style="fill:#fff"></path><path d="M212.31,258l.6,2.85a1.05,1.05,0,0,0,.81.81l2.84.6-2.84.6a1,1,0,0,0-.81.81l-.6,2.84-.61-2.84a1,1,0,0,0-.81-.81l-2.84-.6,2.84-.6a1.05,1.05,0,0,0,.81-.81Z" style="fill:#fff"></path><path d="M239.74,267.14l.3,1.39a.52.52,0,0,0,.39.4l1.4.29-1.4.29a.52.52,0,0,0-.39.4l-.3,1.39-.29-1.39a.53.53,0,0,0-.4-.4l-1.39-.29,1.39-.29a.53.53,0,0,0,.4-.4Z" style="fill:#fff"></path></g><g id="freepik--character-2--inject-182"><path d="M301,384.7c-.77,2.43-3.43,3.82-6,4s-5-.51-7.55-1c-5.61-1-8.72,0-14.32-.14a23.86,23.86,0,0,1-5.46-.6,9,9,0,0,1-4.67-2.75,6.15,6.15,0,0,1-1.34-2.93A5.76,5.76,0,0,0,263,385.9a9,9,0,0,0,4.67,2.75,23.86,23.86,0,0,0,5.46.6c5.6.13,8.71-.87,14.32.14,2.51.46,5,1.17,7.55,1s5.2-1.59,6-4a6.4,6.4,0,0,0,.19-2.58A5.05,5.05,0,0,1,301,384.7Z" style="fill:#263238"></path><path d="M300.84,380.06q-.51-2.55-1-5.1a7.47,7.47,0,0,0-.86-2.59,2.57,2.57,0,0,0-2.27-1.3c-3.07-.41-7.39-1.52-9.94.24-4,2.75-6.6,4.16-11.44,4-2.54-.1-5.08-.62-7.6-.31s-5.14,1.72-5.89,4.14a4.86,4.86,0,0,0-.13,2.21,6.15,6.15,0,0,0,1.34,2.93,9,9,0,0,0,4.67,2.75,23.86,23.86,0,0,0,5.46.6c5.6.13,8.71-.87,14.32.14,2.51.46,5,1.17,7.55,1s5.2-1.59,6-4a5.05,5.05,0,0,0,.19-.94A11.6,11.6,0,0,0,300.84,380.06Z" style="fill:#37474f"></path><path d="M286,366l-.22,6.64a2.62,2.62,0,0,0,2.43,2.71,42.59,42.59,0,0,0,6.69-.06,3.8,3.8,0,0,0,3.43-3.56l.26-4.9Z" style="fill:#ffa8a7"></path><path d="M285.87,335.45c0,9.25-1,32.18-1,32.18C293.33,373,299.5,369,299.5,369c.81-14.77,8.11-28.89,8.11-43.33-11.19-7.68-14.62-9.51-19.17-14C285.88,318.6,285.87,328.81,285.87,335.45Z" style="fill:#1CA220"></path><path d="M285.87,335.45c0,9.25-1,32.18-1,32.18C293.33,373,299.5,369,299.5,369c.81-14.77,8.11-28.89,8.11-43.33-11.19-7.68-14.62-9.51-19.17-14C285.88,318.6,285.87,328.81,285.87,335.45Z" style="opacity:0.5"></path><path d="M277.39,401.52c-.82,2.6-3.68,4.09-6.4,4.31s-5.41-.55-8.1-1c-6-1.09-9.36,0-15.36-.15a25.55,25.55,0,0,1-5.86-.64,9.65,9.65,0,0,1-5-2.95,6.51,6.51,0,0,1-1.44-3.14,6.18,6.18,0,0,0,1.44,4.9,9.65,9.65,0,0,0,5,2.95,25.55,25.55,0,0,0,5.86.64c6,.14,9.34-.94,15.36.15,2.69.49,5.38,1.26,8.1,1s5.58-1.71,6.4-4.31a6.81,6.81,0,0,0,.21-2.77A5,5,0,0,1,277.39,401.52Z" style="fill:#263238"></path><path d="M277.24,396.54l-1.11-5.47a7.94,7.94,0,0,0-.93-2.78,2.74,2.74,0,0,0-2.43-1.39c-3.29-.44-7.93-1.63-10.66.25-4.29,3-7.08,4.47-12.28,4.27-2.72-.1-5.45-.66-8.15-.33s-5.52,1.84-6.32,4.44a5.17,5.17,0,0,0-.14,2.38,6.51,6.51,0,0,0,1.44,3.14,9.65,9.65,0,0,0,5,2.95,25.55,25.55,0,0,0,5.86.64c6,.14,9.34-.94,15.36.15,2.69.49,5.38,1.26,8.1,1s5.58-1.71,6.4-4.31a5,5,0,0,0,.21-1A12.71,12.71,0,0,0,277.24,396.54Z" style="fill:#37474f"></path><path d="M261.31,381.42l-.24,7.13a2.82,2.82,0,0,0,2.62,2.91,45.05,45.05,0,0,0,7.17-.07,4,4,0,0,0,3.67-3.82l.29-5.26Z" style="fill:#ffa8a7"></path><path d="M261.17,348.68c0,9.92-1.05,34.53-1.05,34.53,9.06,5.8,15.67,1.51,15.67,1.51.87-15.85,8.71-31,8.71-46.49-12-8.24-15.69-10.21-20.57-15C261.18,330.6,261.17,341.55,261.17,348.68Z" style="fill:#1CA220"></path><path d="M261.17,348.68c0,9.92-1.05,34.53-1.05,34.53,9.06,5.8,15.67,1.51,15.67,1.51.87-15.85,8.71-31,8.71-46.49-12-8.24-15.69-10.21-20.57-15C261.18,330.6,261.17,341.55,261.17,348.68Z" style="opacity:0.4"></path><path d="M284.5,338.23c-4.32-3-7.56-5.11-10.16-6.88a72.78,72.78,0,0,0,7,26.67C283.06,351.43,284.5,344.86,284.5,338.23Z" style="opacity:0.30000000000000004"></path><path d="M282.68,413.38a1,1,0,0,1-.75-1.77l38-39.48a1,1,0,1,1,1.51,1.45l-38,39.48A1,1,0,0,1,282.68,413.38Z" style="fill:#263238"></path><path d="M327.51,441.75v8.44a1.39,1.39,0,1,0,2.78,0v-8.44a3.33,3.33,0,0,1-1.39.3A3.49,3.49,0,0,1,327.51,441.75Z" style="fill:#1CA220"></path><path d="M328.9,367.66a1.39,1.39,0,0,0-1.39,1.39v72.7a3.49,3.49,0,0,0,1.39.3,3.33,3.33,0,0,0,1.39-.3v-72.7A1.39,1.39,0,0,0,328.9,367.66Z" style="fill:#455a64"></path><path d="M304.88,358a1.4,1.4,0,0,0-1.82.76L281.6,411.3a3.09,3.09,0,0,0,1.35.87,3,3,0,0,0,1.27.08l21.42-52.43A1.39,1.39,0,0,0,304.88,358Z" style="fill:#455a64"></path><path d="M283,412.17a3.09,3.09,0,0,1-1.35-.87l-3.44,8.41a1.4,1.4,0,0,0,.76,1.82,1.46,1.46,0,0,0,.53.1,1.4,1.4,0,0,0,1.29-.86l3.48-8.52A3,3,0,0,1,283,412.17Z" style="fill:#1CA220"></path><path d="M375.12,413.38a1,1,0,0,0,.75-1.77L334.1,368a1.05,1.05,0,0,0-1.48,0,1,1,0,0,0,0,1.47l41.78,43.64A1,1,0,0,0,375.12,413.38Z" style="fill:#263238"></path><path d="M352.92,358a1.4,1.4,0,0,1,1.82.76L376.2,411.3a3.09,3.09,0,0,1-1.35.87,3,3,0,0,1-1.27.08l-21.42-52.43A1.39,1.39,0,0,1,352.92,358Z" style="fill:#455a64"></path><path d="M374.85,412.17a3.09,3.09,0,0,0,1.35-.87l3.44,8.41a1.4,1.4,0,0,1-.76,1.82,1.46,1.46,0,0,1-.53.1,1.4,1.4,0,0,1-1.29-.86l-3.48-8.52A3,3,0,0,0,374.85,412.17Z" style="fill:#1CA220"></path><path d="M291.46,355.47c9.49,7.57,23.29,14.71,26.73,12.88,10.07-5.29,15.33-24.68,19.69-39.55,1.19-4.06,2.39-8,3.8-11.81-3.37-2-6.38-3.61-8.48-4.54-8.73-3.9-54.11,20.41-53.75,29.09C280,344.09,282,347.89,291.46,355.47Z" style="fill:#1CA220"></path><path d="M291.46,355.47c9.49,7.57,23.29,14.71,26.73,12.88,10.07-5.29,15.33-24.68,19.69-39.55,1.19-4.06,2.39-8,3.8-11.81-3.37-2-6.38-3.61-8.48-4.54-8.73-3.9-54.11,20.41-53.75,29.09C280,344.09,282,347.89,291.46,355.47Z" style="opacity:0.2"></path><path d="M369.93,318.25,340.4,311.8c-20.78-6.7-38.3-12.76-47.61-6.27a12.13,12.13,0,0,0-4.35,6.18c4.55,4.49,8,6.32,19.17,14,25,17.37,46.25,25.27,58.1,16.45S369.93,318.25,369.93,318.25Z" style="fill:#1CA220"></path><path d="M369.93,318.25,340.4,311.8c-20.78-6.7-38.3-12.76-47.61-6.27a12.13,12.13,0,0,0-4.35,6.18c4.55,4.49,8,6.32,19.17,14,25,17.37,46.25,25.27,58.1,16.45S369.93,318.25,369.93,318.25Z" style="opacity:0.5"></path><path d="M351.36,330.22l-31.69-6.92c-22.29-7.18-41.09-13.68-51.07-6.72-2.1,1.34-3.59,3.72-4.67,6.63,4.88,4.81,8.56,6.78,20.57,15,26.81,18.63,49.62,27.11,62.33,17.65S351.36,330.22,351.36,330.22Z" style="fill:#1CA220"></path><path d="M351.36,330.22l-31.69-6.92c-22.29-7.18-41.09-13.68-51.07-6.72-2.1,1.34-3.59,3.72-4.67,6.63,4.88,4.81,8.56,6.78,20.57,15,26.81,18.63,49.62,27.11,62.33,17.65S351.36,330.22,351.36,330.22Z" style="opacity:0.4"></path><path d="M370.75,290.32l2.87,6.05-6.86,7.54.5,18,22.11-19.2a6,6,0,0,0,1.46-7.11l-6.74-14Z" style="fill:#ffa8a7"></path><path d="M377.57,301.76s-3.1-2.57-3.95-5.39l-1.71,1.88A8.81,8.81,0,0,0,377.57,301.76Z" style="fill:#f28f8f"></path><path d="M370.2,291.78C379,291,385,281.91,385,281.91c-7.85-16.08-14.71-34-28.42-29.7Z" style="fill:#455a64"></path><path d="M370.2,291.78C379,291,385,281.91,385,281.91c-7.85-16.08-14.71-34-28.42-29.7Z" style="opacity:0.2"></path><path d="M317,280.91v50.53c29.75,12.47,49,1.21,51.65-4.65-1.37-20.57,3.49-44.63,3.12-54.85s-1.63-21.74-17.48-19.43l-16.86,1.64-8.55,2.08Z" style="fill:#455a64"></path><path d="M298.94,279.75l-6.06,6.31-14.55-19.28a56.08,56.08,0,0,0,3.56-16,1.72,1.72,0,0,0-1.72-1.8h0a1.73,1.73,0,0,0-1.56,1l-2.69,5.67h0a2.7,2.7,0,0,1-1.68-1.65l-.53-1.5a9.41,9.41,0,0,1-.53-3.11v-3.73a3,3,0,0,0-4.44-2.61,14.72,14.72,0,0,0-4.4,3.63,8,8,0,0,0-1.8,5v5a11.18,11.18,0,0,0,.67,3.8l2.63,7.23a10.91,10.91,0,0,0,.9,1.89l18.78,31.46a8.92,8.92,0,0,0,13.6,2.1l12-10.61Z" style="fill:#ffa8a7"></path><path d="M289.16,293.81s1-4.92,3.72-7.75l-1.68-2.22C289.94,286.17,288.16,290.72,289.16,293.81Z" style="fill:#f28f8f"></path><path d="M279.15,252.66c.24-.28.34-.67.61-.93a1.71,1.71,0,0,1,1.08-.38,4.45,4.45,0,0,0,1-.18c0-.12,0-.25,0-.37a1.73,1.73,0,0,0-3.28-.82l-1.27,2.69a1.19,1.19,0,0,0,.5.36A1.24,1.24,0,0,0,279.15,252.66Z" style="fill:#1CA220;opacity:0.6000000000000001"></path><path d="M279.63,275.54c.39.43,1.08.4,1.58.71.92.57.76,1.94,1.17,2.95.64,1.57,2.8,2.08,4.33,1.34a4.3,4.3,0,0,0,1.28-1l-6.57-8.7-1.52,2.52C279.5,274.06,279.12,275,279.63,275.54Z" style="fill:#1CA220;opacity:0.6000000000000001"></path><path d="M263.79,249.38c.1-.19.16-.43.36-.5s.58.3.55.64-.21.67-.12,1a.84.84,0,0,0,1.13.46,1.54,1.54,0,0,0,.82-1.06,8.54,8.54,0,0,0,.16-1.83,3,3,0,0,1,.49-1.74,1.31,1.31,0,0,1,1.62-.44,1.5,1.5,0,0,1,.58,1.45c-.05.55-.24,1.07-.29,1.62a1.53,1.53,0,0,0,.59,1.45c.39.22.9.16,1.31.35a1.88,1.88,0,0,1,.82,1.83,5.53,5.53,0,0,0,.1,2.11,1.8,1.8,0,0,0,3.15.44,2.57,2.57,0,0,1-.82-1.15l-.53-1.5a9.41,9.41,0,0,1-.53-3.11v-3.73a3,3,0,0,0-4.44-2.61,14.72,14.72,0,0,0-4.4,3.63,8,8,0,0,0-1.58,3.3A1.17,1.17,0,0,0,263.79,249.38Z" style="fill:#1CA220;opacity:0.6000000000000001"></path><path d="M269.34,270.94a4.75,4.75,0,0,0-2.8-1.62l.2.36,4.13,6.92c0-.37,0-.74,0-1.12A7.23,7.23,0,0,0,269.34,270.94Z" style="fill:#1CA220;opacity:0.6000000000000001"></path><path d="M297.45,279.79,314.52,263a24,24,0,0,1,14-6.73l.3,0c7.23,15.83-2.32,23.56-2.32,23.56l-15.88,14.58A28.64,28.64,0,0,1,297.45,279.79Z" style="fill:#455a64"></path><path d="M297.45,279.79,314.52,263a24,24,0,0,1,14-6.73l.3,0c7.23,15.83-2.32,23.56-2.32,23.56l-15.88,14.58A28.64,28.64,0,0,1,297.45,279.79Z" style="opacity:0.2"></path><path d="M327.41,214.83c-3.62-1.36-7.15-6.56-3.53-8.84,1-.75,3.94.12,6.31,0-2.07-1.87-2.57-4.12-1.53-4.82s3.82,2,8.87,1.45,22.44-6.11,24.62,6.61c2.43-3.24,5.11-.87,5.11-.87l-3.62,2.55c5.36,7.54,3.62,16.27-9.37,33.52a9.54,9.54,0,0,1-12.69,1.82L336.22,233,331,226.68Z" style="fill:#37474f"></path><polygon points="326.2 225.39 322.71 231.46 326.54 232.87 326.2 225.39" style="fill:#f28f8f"></polygon><path d="M327.41,214.83a56.45,56.45,0,0,0-1,25.78,8.9,8.9,0,0,0,1.61,4.08,6.38,6.38,0,0,0,4.43,2,18.52,18.52,0,0,0,5-.48v7.9c6,1.41,12.16,2,16.86-1.64v-8.08a21.36,21.36,0,0,1-10.46.65c-4.14-2.23-5-9.8-4.39-11.79a3.11,3.11,0,0,0,3.24,1.14,4.36,4.36,0,0,0,2.68-2.14,8.92,8.92,0,0,0,1-3.36,6.12,6.12,0,0,0-.62-4.16,4.36,4.36,0,0,0-4.69-1.58,6.66,6.66,0,0,0-3.94,3.3,10.34,10.34,0,0,0-.7,1.51.93.93,0,0,1-1.81-.23,12.55,12.55,0,0,1,1.18-6.61,4.59,4.59,0,0,1-3.38-2.07,4.28,4.28,0,0,1-.65-3.79A13,13,0,0,1,327.41,214.83Z" style="fill:#ffa8a7"></path><path d="M356,193.63a11.1,11.1,0,0,0-12.45,4.43,14.59,14.59,0,0,0-1.83,9.4A22.14,22.14,0,0,0,358,226.52a16,16,0,0,0,7.31.38,9.58,9.58,0,0,0,6.81-14.19,13.5,13.5,0,0,0-3.67-4.49,25.54,25.54,0,0,0-4.61-2.32s-1-6.29-2.9-8.73A10.74,10.74,0,0,0,356,193.63Z" style="fill:#1CA220"></path><path d="M356,193.63a11.1,11.1,0,0,0-12.45,4.43,14.59,14.59,0,0,0-1.83,9.4A22.14,22.14,0,0,0,358,226.52a16,16,0,0,0,7.31.38,9.58,9.58,0,0,0,6.81-14.19,13.5,13.5,0,0,0-3.67-4.49,25.54,25.54,0,0,0-4.61-2.32s-1-6.29-2.9-8.73A10.74,10.74,0,0,0,356,193.63Z" style="fill:#fff;opacity:0.2"></path><path d="M346,216.55a24.39,24.39,0,0,0,10.28,7.11,12.91,12.91,0,0,0,4.41.87,6.58,6.58,0,0,0,4.19-1.44,5.55,5.55,0,0,0,1.84-4.49,6.07,6.07,0,0,1,.53,4.31,10.26,10.26,0,0,0,5.12-9.47,10.1,10.1,0,0,1-.94,9.71,10.24,10.24,0,0,1-6.17,3.75,16,16,0,0,1-7.31-.38,22.09,22.09,0,0,1-15.8-16.23A24.16,24.16,0,0,0,346,216.55Z" style="opacity:0.2"></path><path d="M363,207.77a10.29,10.29,0,0,1,9.56-2.94,2.38,2.38,0,0,0,.25-2,2.28,2.28,0,0,0-1.21-1.5,12.21,12.21,0,0,0-9.49,5.46C361.67,207.72,362.39,208,363,207.77Z" style="fill:#1CA220"></path><path d="M363,207.77a10.29,10.29,0,0,1,9.56-2.94,2.38,2.38,0,0,0,.25-2,2.28,2.28,0,0,0-1.21-1.5,12.21,12.21,0,0,0-9.49,5.46C361.67,207.72,362.39,208,363,207.77Z" style="fill:#fff;opacity:0.4"></path><path d="M341.44,332.83c5.05-17.24,10.21-32.56,31.86-42.1,7.64-3.36,11.71-2.16,13.63.81h0A16.4,16.4,0,0,0,382,286v0c-2.26-1.77-6.1-2-12.28.68-16.55,7.28-23.46,18-28.06,30.28-1.41,3.8-2.61,7.75-3.8,11.81-4.36,14.87-9.62,34.26-19.69,39.55-3.44,1.83-17.24-5.31-26.73-12.88s-11.49-11.38-12-13.93v5.08a8.25,8.25,0,0,0,1.53,4.79c9.58,13.41,27,21.35,35.56,22.34C330.12,373.4,336.39,350.07,341.44,332.83Z" style="fill:#1CA220"></path><path d="M341.44,332.83c5.05-17.24,10.21-32.56,31.86-42.1,7.64-3.36,11.71-2.16,13.63.81h0A16.4,16.4,0,0,0,382,286v0c-2.26-1.77-6.1-2-12.28.68-16.55,7.28-23.46,18-28.06,30.28-1.41,3.8-2.61,7.75-3.8,11.81-4.36,14.87-9.62,34.26-19.69,39.55-3.44,1.83-17.24-5.31-26.73-12.88s-11.49-11.38-12-13.93v5.08a8.25,8.25,0,0,0,1.53,4.79c9.58,13.41,27,21.35,35.56,22.34C330.12,373.4,336.39,350.07,341.44,332.83Z" style="fill:#fff;opacity:0.30000000000000004"></path><path d="M388.39,297.43a10.81,10.81,0,0,0-1.46-5.89c-1.92-3-6-4.17-13.63-.81-21.65,9.54-26.81,24.86-31.86,42.1s-11.32,40.57-24.9,40.92c13.48,3.87,42.46-11.6,56.78-21.52a27.36,27.36,0,0,0,10.45-14.07C389.14,321.59,388.39,302.73,388.39,297.43Z" style="fill:#1CA220"></path></g><g id="freepik--Vases--inject-182"><path d="M191.64,409.8c-3.4-1.23-.62-8.24-.62-14.88H177.45c0,6.64,2.78,13.65-.62,14.88-14.18,4.8-12.13,16.86-3.27,33.47h0a7,7,0,0,0,2.85,2.8c4.35,2.51,11.38,2.51,15.7,0a6.65,6.65,0,0,0,2.87-2.95C203.78,426.59,205.78,414.59,191.64,409.8Z" style="fill:#e0e0e0"></path><path d="M191.64,409.8c-3.4-1.23-.62-8.24-.62-14.88H177.45c0,6.64,2.78,13.65-.62,14.88-14.18,4.8-12.13,16.86-3.27,33.47h0a7,7,0,0,0,2.85,2.8c4.35,2.51,11.38,2.51,15.7,0a6.65,6.65,0,0,0,2.87-2.95C203.78,426.59,205.78,414.59,191.64,409.8Z" style="fill:#1CA220"></path><path d="M189,392.14c2.65,1.54,2.67,4,0,5.56a10.61,10.61,0,0,1-9.6,0c-2.66-1.54-2.67-4,0-5.56A10.61,10.61,0,0,1,189,392.14Z" style="fill:#1CA220"></path><g style="opacity:0.30000000000000004"><path d="M189,392.14c2.65,1.54,2.67,4,0,5.56a10.61,10.61,0,0,1-9.6,0c-2.66-1.54-2.67-4,0-5.56A10.61,10.61,0,0,1,189,392.14Z" style="fill:#fff"></path></g><path d="M187.54,393c1.84,1.06,1.85,2.78,0,3.84a7.31,7.31,0,0,1-6.63,0c-1.84-1.06-1.85-2.78,0-3.84A7.31,7.31,0,0,1,187.54,393Z" style="fill:#1CA220"></path><g style="opacity:0.30000000000000004"><path d="M187.54,393c1.84,1.06,1.85,2.78,0,3.84a7.31,7.31,0,0,1-6.63,0c-1.84-1.06-1.85-2.78,0-3.84A7.31,7.31,0,0,1,187.54,393Z"></path></g><path d="M87.2,302.87c-2.63-1-.47-12.52-.47-17.68H76.18c0,5.16,2.15,16.72-.48,17.68-11,3.73-9.43,13.11-2.55,26h0a5.32,5.32,0,0,0,2.21,2.18,13.45,13.45,0,0,0,12.2,0,5.19,5.19,0,0,0,2.24-2.29C96.64,315.92,98.2,306.59,87.2,302.87Z" style="fill:#e0e0e0"></path><path d="M87.2,302.87c-2.63-1-.47-12.52-.47-17.68H76.18c0,5.16,2.15,16.72-.48,17.68-11,3.73-9.43,13.11-2.55,26h0a5.32,5.32,0,0,0,2.21,2.18,13.45,13.45,0,0,0,12.2,0,5.19,5.19,0,0,0,2.24-2.29C96.64,315.92,98.2,306.59,87.2,302.87Z" style="fill:#1CA220"></path><path d="M85.17,283c2.06,1.19,2.08,3.13,0,4.32a8.24,8.24,0,0,1-7.46,0c-2.06-1.19-2.07-3.13,0-4.32A8.24,8.24,0,0,1,85.17,283Z" style="fill:#1CA220"></path><g style="opacity:0.30000000000000004"><path d="M85.17,283c2.06,1.19,2.08,3.13,0,4.32a8.24,8.24,0,0,1-7.46,0c-2.06-1.19-2.07-3.13,0-4.32A8.24,8.24,0,0,1,85.17,283Z" style="fill:#fff"></path></g><path d="M84,283.7c1.43.82,1.44,2.16,0,3a5.66,5.66,0,0,1-5.16,0c-1.43-.82-1.44-2.16,0-3A5.66,5.66,0,0,1,84,283.7Z" style="fill:#1CA220"></path><g style="opacity:0.30000000000000004"><path d="M84,283.7c1.43.82,1.44,2.16,0,3a5.66,5.66,0,0,1-5.16,0c-1.43-.82-1.44-2.16,0-3A5.66,5.66,0,0,1,84,283.7Z"></path></g><path d="M161.74,410.66c0-3.66,3.95-4.23,3.95-11.2H147.37c0,7,3.95,7.54,3.95,11.2s-11,8.44-2,23.71h0a3.6,3.6,0,0,0,2.11,2.93,11.18,11.18,0,0,0,10.11,0,3.54,3.54,0,0,0,2.08-2.93h0C172.78,419.1,161.74,414.32,161.74,410.66Z" style="fill:#1CA220"></path><path d="M161.74,410.66c0-3.66,3.95-4.23,3.95-11.2H147.37c0,7,3.95,7.54,3.95,11.2s-11,8.44-2,23.71h0a3.6,3.6,0,0,0,2.11,2.93,11.18,11.18,0,0,0,10.11,0,3.54,3.54,0,0,0,2.08-2.93h0C172.78,419.1,161.74,414.32,161.74,410.66Z" style="opacity:0.15"></path><path d="M163,395.71c3.59,2.07,3.61,5.43,0,7.5a14.28,14.28,0,0,1-12.95,0c-3.59-2.07-3.61-5.43-.05-7.5A14.24,14.24,0,0,1,163,395.71Z" style="fill:#1CA220"></path><path d="M161.57,396.53c2.8,1.62,2.82,4.24,0,5.86a11.18,11.18,0,0,1-10.11,0c-2.8-1.62-2.81-4.24,0-5.86A11.12,11.12,0,0,1,161.57,396.53Z" style="fill:#1CA220"></path><g style="opacity:0.4"><path d="M161.57,396.53c2.8,1.62,2.82,4.24,0,5.86a11.18,11.18,0,0,1-10.11,0c-2.8-1.62-2.81-4.24,0-5.86A11.12,11.12,0,0,1,161.57,396.53Z"></path></g></g></svg>