<svg class="animated" id="freepik_stories-fast-loading" xmlns="http://www.w3.org/2000/svg" viewBox="0 0 500 500" version="1.1" xmlns:xlink="http://www.w3.org/1999/xlink" xmlns:svgjs="http://svgjs.com/svgjs"><style>svg#freepik_stories-fast-loading:not(.animated) .animable {opacity: 0;}svg#freepik_stories-fast-loading.animated #elthg11lf286 {animation: 1s 1 forwards cubic-bezier(.36,-0.01,.5,1.38) slideUp;animation-delay: 0s;}svg#freepik_stories-fast-loading.animated #elj9r1zkifjz {animation: 1s 1 forwards cubic-bezier(.36,-0.01,.5,1.38) slideUp;animation-delay: 0.06666666666666667s;opacity: 0}svg#freepik_stories-fast-loading.animated #el5hgh5mq10j8 {animation: 1s 1 forwards cubic-bezier(.36,-0.01,.5,1.38) slideUp;animation-delay: 0.13333333333333333s;opacity: 0}svg#freepik_stories-fast-loading.animated #el1ov52l3xnkn {animation: 1s 1 forwards cubic-bezier(.36,-0.01,.5,1.38) slideUp;animation-delay: 0.2s;opacity: 0}svg#freepik_stories-fast-loading.animated #el7dy4yvk93qd {animation: 1s 1 forwards cubic-bezier(.36,-0.01,.5,1.38) slideUp;animation-delay: 0.26666666666666666s;opacity: 0}svg#freepik_stories-fast-loading.animated #elupyje0x28r {animation: 1s 1 forwards cubic-bezier(.36,-0.01,.5,1.38) slideUp;animation-delay: 0.3333333333333333s;opacity: 0}svg#freepik_stories-fast-loading.animated #elr1ajxd2y0q {animation: 1s 1 forwards cubic-bezier(.36,-0.01,.5,1.38) slideUp;animation-delay: 0.4s;opacity: 0}svg#freepik_stories-fast-loading.animated #ela63nlsltlnf {animation: 1s 1 forwards cubic-bezier(.36,-0.01,.5,1.38) slideUp;animation-delay: 0.4666666666666667s;opacity: 0}svg#freepik_stories-fast-loading.animated #el5esxhi62dzn {animation: 1s 1 forwards cubic-bezier(.36,-0.01,.5,1.38) slideUp;animation-delay: 0.5333333333333333s;opacity: 0}svg#freepik_stories-fast-loading.animated #elocite21crvq {animation: 1s 1 forwards cubic-bezier(.36,-0.01,.5,1.38) slideUp;animation-delay: 0.6s;opacity: 0}svg#freepik_stories-fast-loading.animated #elgev9aeegplu {animation: 1s 1 forwards cubic-bezier(.36,-0.01,.5,1.38) slideUp;animation-delay: 0.6666666666666666s;opacity: 0}svg#freepik_stories-fast-loading.animated #eluq3u8at6tc {animation: 1s 1 forwards cubic-bezier(.36,-0.01,.5,1.38) slideUp;animation-delay: 0.7333333333333333s;opacity: 0}svg#freepik_stories-fast-loading.animated #elfxvkts38srh {animation: 1s 1 forwards cubic-bezier(.36,-0.01,.5,1.38) slideUp;animation-delay: 0.8s;opacity: 0}svg#freepik_stories-fast-loading.animated #eloorl4zmcl {animation: 1s 1 forwards cubic-bezier(.36,-0.01,.5,1.38) slideUp;animation-delay: 0.8666666666666667s;opacity: 0}svg#freepik_stories-fast-loading.animated #el18g7xwps6a6 {animation: 1s 1 forwards cubic-bezier(.36,-0.01,.5,1.38) slideUp;animation-delay: 0.9333333333333333s;opacity: 0}svg#freepik_stories-fast-loading.animated #freepik--Speedometer--inject-4 {animation: 1s 1 forwards cubic-bezier(.36,-0.01,.5,1.38) slideUp,1.5s Infinite  linear wind;animation-delay: 0s,1s;}svg#freepik_stories-fast-loading.animated #freepik--Character--inject-4 {animation: 1.5s Infinite  linear floating;animation-delay: 0s;}            @keyframes slideUp {                0% {                    opacity: 0;                    transform: translateY(30px);                }                100% {                    opacity: 1;                    transform: inherit;                }            }                    @keyframes wind {                0% {                    transform: rotate( 0deg );                }                25% {                    transform: rotate( 1deg );                }                75% {                    transform: rotate( -1deg );                }            }                    @keyframes floating {                0% {                    opacity: 1;                    transform: translateY(0px);                }                50% {                    transform: translateY(-10px);                }                100% {                    opacity: 1;                    transform: translateY(0px);                }            }        .animator-hidden { display: none; }</style><g id="freepik--background-complete--inject-4" class="animable animator-active animator-hidden" style="transform-origin: 250px 228.23px;"><rect y="382.4" width="500" height="0.25" style="fill: rgb(235, 235, 235); transform-origin: 250px 382.525px;" id="el06j5yna72a4y" class="animable"></rect><rect x="359" y="391.92" width="90.9" height="0.25" style="fill: rgb(235, 235, 235); transform-origin: 404.45px 392.045px;" id="el1ph9o0gjox8" class="animable"></rect><rect x="306.33" y="389.21" width="24.89" height="0.25" style="fill: rgb(235, 235, 235); transform-origin: 318.775px 389.335px;" id="elyw5a4xhzm7i" class="animable"></rect><rect x="349.52" y="401.21" width="38.59" height="0.25" style="fill: rgb(235, 235, 235); transform-origin: 368.815px 401.335px;" id="elec6c0tvjuii" class="animable"></rect><rect x="52.46" y="399.53" width="22.64" height="0.25" style="fill: rgb(235, 235, 235); transform-origin: 63.78px 399.655px;" id="elwl6erh90jx9" class="animable"></rect><rect x="84" y="399.53" width="26.89" height="0.25" style="fill: rgb(235, 235, 235); transform-origin: 97.445px 399.655px;" id="elrvsp4r2hpl" class="animable"></rect><rect x="178.31" y="395.31" width="46.84" height="0.25" style="fill: rgb(235, 235, 235); transform-origin: 201.73px 395.435px;" id="elkey086xoo5d" class="animable"></rect><path d="M237,337.8H43.91a5.71,5.71,0,0,1-5.7-5.71V60.66A5.71,5.71,0,0,1,43.91,55H237a5.71,5.71,0,0,1,5.71,5.71V332.09A5.71,5.71,0,0,1,237,337.8ZM43.91,55.2a5.46,5.46,0,0,0-5.45,5.46V332.09a5.46,5.46,0,0,0,5.45,5.46H237a5.47,5.47,0,0,0,5.46-5.46V60.66A5.47,5.47,0,0,0,237,55.2Z" style="fill: rgb(235, 235, 235); transform-origin: 140.46px 196.4px;" id="el49pbbv1orhl" class="animable"></path><path d="M453.31,337.8H260.21a5.72,5.72,0,0,1-5.71-5.71V60.66A5.72,5.72,0,0,1,260.21,55h193.1A5.71,5.71,0,0,1,459,60.66V332.09A5.71,5.71,0,0,1,453.31,337.8ZM260.21,55.2a5.47,5.47,0,0,0-5.46,5.46V332.09a5.47,5.47,0,0,0,5.46,5.46h193.1a5.47,5.47,0,0,0,5.46-5.46V60.66a5.47,5.47,0,0,0-5.46-5.46Z" style="fill: rgb(235, 235, 235); transform-origin: 356.75px 196.4px;" id="elm73a2h2slbb" class="animable"></path><g id="elwfgbku2h1vi"><rect x="316.49" y="79.8" width="104.93" height="116.58" style="fill: rgb(230, 230, 230); transform-origin: 368.955px 138.09px; transform: rotate(180deg);" class="animable"></rect></g><g id="elfxsycqo8xaj"><rect x="294.04" y="79.8" width="122.54" height="116.58" style="fill: rgb(245, 245, 245); transform-origin: 355.31px 138.09px; transform: rotate(180deg);" class="animable"></rect></g><g id="elb0zyh2y6bbs"><rect x="304.51" y="88.86" width="101.6" height="98.46" style="fill: rgb(255, 255, 255); transform-origin: 355.31px 138.09px; transform: rotate(90deg);" class="animable"></rect></g><g id="el4tcu0tke1zr"><rect x="303.21" y="137.45" width="104.2" height="1.28" style="fill: rgb(245, 245, 245); transform-origin: 355.31px 138.09px; transform: rotate(90deg);" class="animable"></rect></g><g id="elxserkzupbu"><rect x="81.11" y="86.38" width="134.04" height="270.4" style="fill: rgb(230, 230, 230); transform-origin: 148.13px 221.58px; transform: rotate(180deg);" class="animable"></rect></g><g id="el6xn0hd2jh4c"><rect x="71.8" y="86.38" width="140.88" height="270.4" style="fill: rgb(240, 240, 240); transform-origin: 142.24px 221.58px; transform: rotate(180deg);" class="animable"></rect></g><g id="el5kaz66b7fmu"><rect x="18.84" y="162.95" width="246.8" height="117.27" style="fill: rgb(255, 255, 255); transform-origin: 142.24px 221.585px; transform: rotate(90deg);" class="animable"></rect></g><polygon points="127.84 344.98 150.97 98.19 124.27 98.19 101.13 344.98 127.84 344.98" style="fill: rgb(250, 250, 250); transform-origin: 126.05px 221.585px;" id="elr2zucgp2dud" class="animable"></polygon><polygon points="148.53 344.98 171.67 98.19 158.31 98.19 135.18 344.98 148.53 344.98" style="fill: rgb(250, 250, 250); transform-origin: 153.425px 221.585px;" id="el9w442gkbt7i" class="animable"></polygon><g id="elof5awpen8xn"><rect x="265.86" y="276.51" width="25.05" height="105.89" style="fill: rgb(230, 230, 230); transform-origin: 278.385px 329.455px; transform: rotate(180deg);" class="animable"></rect></g><polygon points="280.43 382.4 265.86 382.4 265.86 367.78 295.71 367.78 280.43 382.4" style="fill: rgb(250, 250, 250); transform-origin: 280.785px 375.09px;" id="el2ovsm0a4csy" class="animable"></polygon><g id="elnktsdhrggi8"><rect x="414.67" y="276.51" width="25.05" height="105.89" style="fill: rgb(230, 230, 230); transform-origin: 427.195px 329.455px; transform: rotate(180deg);" class="animable"></rect></g><g id="elkivcuw17lms"><rect x="265.86" y="276.51" width="161.53" height="100.86" style="fill: rgb(250, 250, 250); transform-origin: 346.625px 326.94px; transform: rotate(180deg);" class="animable"></rect></g><polygon points="412.81 382.4 427.39 382.4 427.39 367.78 397.53 367.78 412.81 382.4" style="fill: rgb(250, 250, 250); transform-origin: 412.46px 375.09px;" id="elk191m7zq5qf" class="animable"></polygon><g id="eli54q0vfzgw"><rect x="277.16" y="314.09" width="138.92" height="25.24" style="fill: rgb(240, 240, 240); transform-origin: 346.62px 326.71px; transform: rotate(180deg);" class="animable"></rect></g><g id="elkor2qwryts"><rect x="277.16" y="344.73" width="138.92" height="25.24" style="fill: rgb(240, 240, 240); transform-origin: 346.62px 357.35px; transform: rotate(180deg);" class="animable"></rect></g><g id="el235h9vwgq7"><path d="M303.57,311.9h86.11a4.58,4.58,0,0,1,4.58,4.58v.31a0,0,0,0,1,0,0H299a0,0,0,0,1,0,0v-.31a4.58,4.58,0,0,1,4.58-4.58Z" style="fill: rgb(250, 250, 250); transform-origin: 346.63px 314.345px; transform: rotate(180deg);" class="animable"></path></g><g id="el5lhknzjliyx"><rect x="277.16" y="283.46" width="138.92" height="25.24" style="fill: rgb(240, 240, 240); transform-origin: 346.62px 296.08px; transform: rotate(180deg);" class="animable"></rect></g><g id="elm5f8yh8yao"><path d="M303.57,281.27h86.11a4.58,4.58,0,0,1,4.58,4.58v.31a0,0,0,0,1,0,0H299a0,0,0,0,1,0,0v-.31A4.58,4.58,0,0,1,303.57,281.27Z" style="fill: rgb(250, 250, 250); transform-origin: 346.63px 283.715px; transform: rotate(180deg);" class="animable"></path></g><g id="elgvjbel7igv"><path d="M303.57,342.54h86.11a4.58,4.58,0,0,1,4.58,4.58v.31a0,0,0,0,1,0,0H299a0,0,0,0,1,0,0v-.31A4.58,4.58,0,0,1,303.57,342.54Z" style="fill: rgb(250, 250, 250); transform-origin: 346.63px 344.985px; transform: rotate(180deg);" class="animable"></path></g><g id="elccxxivrm94e"><rect x="292.33" y="228.92" width="4.94" height="45.82" style="fill: rgb(245, 245, 245); transform-origin: 294.8px 251.83px; transform: rotate(180deg);" class="animable"></rect></g><g id="el5pu63257exa"><rect x="292.97" y="228.88" width="1.39" height="45.82" style="fill: rgb(250, 250, 250); transform-origin: 293.665px 251.79px; transform: rotate(180deg);" class="animable"></rect></g><path d="M283.91,276.51h21.77a2.74,2.74,0,0,0-2.74-2.75H286.66a2.75,2.75,0,0,0-2.75,2.75Z" style="fill: rgb(240, 240, 240); transform-origin: 294.795px 275.135px;" id="elb51rgnf485r" class="animable"></path><path d="M285.34,261.44h0a1.43,1.43,0,0,0,1.42-1.42V234.74a1.43,1.43,0,0,0-1.42-1.42h0a1.43,1.43,0,0,0-1.43,1.42V260A1.43,1.43,0,0,0,285.34,261.44Z" style="fill: rgb(240, 240, 240); transform-origin: 285.335px 247.38px;" id="ellcz27vopvnj" class="animable"></path><path d="M272.7,241.05h44.2l-1.57-4.36A14.71,14.71,0,0,0,301.51,227H288.09a14.71,14.71,0,0,0-13.82,9.69Z" style="fill: rgb(224, 224, 224); transform-origin: 294.8px 234.025px;" id="elgm3oedw94as" class="animable"></path><g id="elz9fkzjcqhg"><rect x="405.4" y="228.92" width="4.94" height="45.82" style="fill: rgb(245, 245, 245); transform-origin: 407.87px 251.83px; transform: rotate(180deg);" class="animable"></rect></g><g id="ele5lmvo47rnr"><rect x="406.03" y="228.88" width="1.39" height="45.82" style="fill: rgb(250, 250, 250); transform-origin: 406.725px 251.79px; transform: rotate(180deg);" class="animable"></rect></g><path d="M397,276.51h21.77a2.75,2.75,0,0,0-2.74-2.75H399.72a2.75,2.75,0,0,0-2.74,2.75Z" style="fill: rgb(240, 240, 240); transform-origin: 407.875px 275.135px;" id="elx3rwcc510jn" class="animable"></path><path d="M398.4,261.44h0a1.43,1.43,0,0,0,1.42-1.42V234.74a1.43,1.43,0,0,0-1.42-1.42h0a1.43,1.43,0,0,0-1.42,1.42V260A1.43,1.43,0,0,0,398.4,261.44Z" style="fill: rgb(240, 240, 240); transform-origin: 398.4px 247.38px;" id="elh38upqfhxvm" class="animable"></path><path d="M385.76,241.05H430l-1.58-4.36A14.7,14.7,0,0,0,414.57,227H401.16a14.71,14.71,0,0,0-13.82,9.69Z" style="fill: rgb(224, 224, 224); transform-origin: 407.88px 234.025px;" id="elubq1uvfwi2a" class="animable"></path></g><g id="freepik--Shadow--inject-4" class="animable" style="transform-origin: 250px 416.24px;"><ellipse id="freepik--path--inject-4" cx="250" cy="416.24" rx="193.89" ry="11.32" style="fill: rgb(245, 245, 245); transform-origin: 250px 416.24px;" class="animable"></ellipse></g><g id="freepik--Speedometer--inject-4" class="animable" style="transform-origin: 216.41px 181.2px;"><path d="M166.53,113.94l-.63-.78a166.31,166.31,0,0,1,13.7-10l.55.84A164.35,164.35,0,0,0,166.53,113.94Z" style="fill: rgb(38, 50, 56); transform-origin: 173.025px 108.55px;" id="elthg11lf286" class="animable"></path><path d="M159.15,120.25l-.68-.74c1.34-1.21,2.72-2.42,4.09-3.59l.65.77C161.84,117.85,160.48,119.05,159.15,120.25Z" style="fill: rgb(38, 50, 56); transform-origin: 160.84px 118.085px;" id="elj9r1zkifjz" class="animable"></path><g id="el5hgh5mq10j8"><ellipse cx="216.41" cy="181.2" rx="115.24" ry="81.19" style="fill: rgb(38, 50, 56); transform-origin: 216.41px 181.2px; transform: rotate(-41.22deg);" class="animable"></ellipse></g><g id="el1ov52l3xnkn"><ellipse cx="216.41" cy="181.2" rx="99.97" ry="70.43" style="fill: rgb(255, 255, 255); transform-origin: 216.41px 181.2px; transform: rotate(-41.22deg);" class="animable"></ellipse></g><path d="M237.15,103.89c-43.29,3.51-87.67,41-99.13,83.66l156.77-12.69C306.25,132.16,280.44,100.39,237.15,103.89Z" style="fill: rgb(12, 162, 15); transform-origin: 217.765px 145.588px;" id="el7dy4yvk93qd" class="animable"></path><g id="elupyje0x28r"><path d="M138,187.55l78.39-6.35L175.65,131C157.71,146.16,143.75,166.2,138,187.55Z" style="fill: rgb(255, 255, 255); opacity: 0.7; transform-origin: 177.195px 159.275px;" class="animable"></path></g><g id="elr1ajxd2y0q"><path d="M237.15,103.89c-21.64,1.76-43.56,12-61.5,27.13l40.76,50.18,20.74-77.31Z" style="fill: rgb(255, 255, 255); opacity: 0.4; transform-origin: 206.4px 142.545px;" class="animable"></path></g><g id="ela63nlsltlnf"><path d="M237.15,103.89,216.41,181.2l70.09-59.15C276.07,109.21,258.8,102.14,237.15,103.89Z" style="fill: rgb(255, 255, 255); opacity: 0.1; transform-origin: 251.455px 142.413px;" class="animable"></path></g><g id="el5esxhi62dzn"><ellipse cx="216.41" cy="181.2" rx="40.79" ry="28.73" style="fill: rgb(255, 255, 255); transform-origin: 216.41px 181.2px; transform: rotate(-41.22deg);" class="animable"></ellipse></g><g id="elocite21crvq"><ellipse cx="216.41" cy="181.2" rx="23.8" ry="16.77" style="fill: rgb(38, 50, 56); transform-origin: 216.41px 181.2px; transform: rotate(-41.22deg);" class="animable"></ellipse></g><path d="M275.08,139.85a236.29,236.29,0,0,0-52.63,27.9l7.37,13.2A257.66,257.66,0,0,0,275.08,139.85Z" style="fill: rgb(38, 50, 56); transform-origin: 248.765px 160.4px;" id="elgev9aeegplu" class="animable"></path><path d="M147,217.06a1.51,1.51,0,0,1-1.55-1.84,2.73,2.73,0,0,1,2.36-2.16L234,206.23a1.51,1.51,0,0,1,1.7,1.83,2.7,2.7,0,0,1-2.35,2.15l-86.12,6.84Z" style="fill: rgb(12, 162, 15); transform-origin: 190.576px 211.637px;" id="eluq3u8at6tc" class="animable"></path><path d="M221.55,225.26a1.5,1.5,0,0,1-1.55-1.84,2.7,2.7,0,0,1,2.36-2.15l28-2.23a1.51,1.51,0,0,1,1.71,1.83,2.72,2.72,0,0,1-2.36,2.16l-28,2.22Z" style="fill: rgb(12, 162, 15); transform-origin: 236.034px 222.142px;" id="elfxvkts38srh" class="animable"></path><path d="M79.15,261.08a1.51,1.51,0,0,1-1.55-1.84A2.72,2.72,0,0,1,80,257.09l28-2.23a1.52,1.52,0,0,1,1.71,1.83,2.72,2.72,0,0,1-2.35,2.16l-28,2.22Z" style="fill: rgb(12, 162, 15); transform-origin: 93.6543px 257.963px;" id="eloorl4zmcl" class="animable"></path><path d="M104.09,244.71a1.5,1.5,0,0,1-1.54-1.84,2.71,2.71,0,0,1,2.35-2.15l84-6.67a1.52,1.52,0,0,1,1.71,1.83,2.73,2.73,0,0,1-2.36,2.16l-84,6.66Z" style="fill: rgb(12, 162, 15); transform-origin: 146.578px 239.373px;" id="el18g7xwps6a6" class="animable"></path></g><g id="freepik--Character--inject-4" class="animable" style="transform-origin: 290.826px 275.972px;"><polygon points="284.39 334.51 287.95 341.7 305.56 335.37 302 328.18 284.39 334.51" style="fill: rgb(255, 139, 123); transform-origin: 294.975px 334.94px;" id="el6ojgpmr5oxe" class="animable"></polygon><polygon points="198.77 393.64 204.12 399.63 217.72 384.18 211.13 379.6 198.77 393.64" style="fill: rgb(255, 139, 123); transform-origin: 208.245px 389.615px;" id="el7j5h5yfmbrk" class="animable"></polygon><path d="M205.34,399l-3.64-9.09a.67.67,0,0,0-.75-.41L193.84,391a1.22,1.22,0,0,0-.86,1.67c1.22,2.9,2.24,5,3.71,8.64.91,2.27,3.41,9.2,4.67,12.33s4.45,2.17,4.22.76c-1.07-6.29-1.1-11.38-.21-13.95A2,2,0,0,0,205.34,399Z" style="fill: rgb(38, 50, 56); transform-origin: 199.237px 402.606px;" id="elh2tul9wckfd" class="animable"></path><path d="M288.76,341.24l-3.89-7.86a.71.71,0,0,0-.79-.37l-7.1,1.75a1.16,1.16,0,0,0-.77,1.67c1.45,2.81,3.64,6.82,5.41,10.38,2.06,4.17,2.34,4.3,4.76,9.18,1.46,2.95,4.85,2.3,4.51.93-1.56-6.24-2.43-7.32-1.83-13.67A3.73,3.73,0,0,0,288.76,341.24Z" style="fill: rgb(38, 50, 56); transform-origin: 283.496px 345.535px;" id="elfzk55quuzz" class="animable"></path><path d="M358,205.24c-.37,2.6-.77,5.4-1.08,8.11s-.62,5.47-.85,8.2a116.24,116.24,0,0,0-.48,16.06c0,.65.06,1.3.14,1.91l.18,1.78a2.51,2.51,0,0,0,1.71,2.39,10.94,10.94,0,0,0,2.85.86,34,34,0,0,0,7.44.28c1.31-.09,2.65-.19,4-.35s2.72-.37,4-.56l1.94,5.71a44,44,0,0,1-4.24,1.73,43,43,0,0,1-4.35,1.36,39.66,39.66,0,0,1-4.59.93,28.36,28.36,0,0,1-4.94.32,20.11,20.11,0,0,1-5.48-.83,13.71,13.71,0,0,1-5.74-3.45,13.05,13.05,0,0,1-3.32-6.27c-.07-.31-.1-.48-.13-.68l-.1-.58-.21-1.18c-.15-.78-.25-1.55-.34-2.32a103.34,103.34,0,0,1-.38-18c.19-2.94.4-5.86.76-8.76s.71-5.75,1.27-8.76Z" style="fill: rgb(255, 139, 123); transform-origin: 360.827px 228.559px;" id="el5xtjrws447" class="animable"></path><path d="M345.19,198c-5.26,5.59-3.14,19.7-3.14,19.7L356.83,220s3.43-8,2.14-16.25C357.39,193.73,350.94,191.85,345.19,198Z" style="fill: rgb(12, 162, 15); transform-origin: 350.444px 207.237px;" id="elfg6q1b6tq0i" class="animable"></path><g id="eld8fy90wxsxi"><path d="M350,204.19c-2.44-3.14-5-4.26-6.36-4-3.27,6.41-1.61,17.47-1.61,17.47l10.47,1.7C353.7,216.11,353.85,209.1,350,204.19Z" style="opacity: 0.2; transform-origin: 347.43px 209.757px;" class="animable"></path></g><path d="M373.94,244.79l8.57-5.62,1.9,8.7s-5.33,5.4-9.77,1.59Z" style="fill: rgb(255, 139, 123); transform-origin: 379.175px 244.995px;" id="elfwsgbdsybxt" class="animable"></path><polygon points="387.78 237.29 388.77 244.81 384.41 247.87 382.5 239.17 387.78 237.29" style="fill: rgb(255, 139, 123); transform-origin: 385.635px 242.58px;" id="elzbjpf7pihej" class="animable"></polygon><g id="elh09h5hi8am5"><polygon points="305.55 335.38 296.48 338.64 292.92 331.44 301.99 328.18 305.55 335.38" style="opacity: 0.2; transform-origin: 299.235px 333.41px;" class="animable"></polygon></g><g id="elyupt5980yj"><polygon points="211.13 379.6 217.72 384.18 211.34 391.42 204.75 386.83 211.13 379.6" style="opacity: 0.2; transform-origin: 211.235px 385.51px;" class="animable"></polygon></g><path d="M314.74,178.71c-6.08,31.11-22.27,59.18-24.53,65.38,5.8,2.43,27.69,11.55,39.62,16.52,22.25-33.11,25.66-57.07,26.17-62.87a2.38,2.38,0,0,0-1-2.15c-.95-.69-2.47-1.77-4.32-3-1-.64-2.07-1.31-3.22-2-.63-.37-1.28-.73-1.94-1.08a159,159,0,0,0-16.85-7c-1.08-.39-2.19-.77-3.28-1.11s-2-.61-2.95-.87C318.18,179.39,314.74,178.71,314.74,178.71Z" style="fill: rgb(12, 162, 15); transform-origin: 323.109px 219.66px;" id="elfhpjsnijvn" class="animable"></path><path d="M338.56,223.07l2.19.56a12.53,12.53,0,0,1-5.13,3,12.4,12.4,0,0,1-6.76.1,10,10,0,0,1-5.16-2.82,6.52,6.52,0,0,1-1.62-4.9,14.78,14.78,0,0,1,1.74-6,20.92,20.92,0,0,1,4.62-6,15,15,0,0,1,6-3.44,11.89,11.89,0,0,1,6.18-.1,7.43,7.43,0,0,1,4,2.34A6.06,6.06,0,0,1,346,210a11.5,11.5,0,0,1-1.39,5,14.46,14.46,0,0,1-4.47,5.16c-2.43,1.75-4.7,2.35-6.8,1.82a1.66,1.66,0,0,1-1.11-.67,1.54,1.54,0,0,1,0-1.17,4.79,4.79,0,0,1-3.5.67,2.71,2.71,0,0,1-2.12-2.1,5.67,5.67,0,0,1,.77-3.95,14.37,14.37,0,0,1,4-4.83q3.1-2.43,5.67-1.79a2.23,2.23,0,0,1,1.86,2.32l.94-1.27,2.71.69-6,8.25a10,10,0,0,0-.69,1,.88.88,0,0,0-.12.49.28.28,0,0,0,.21.22,2.9,2.9,0,0,0,1.63-.38,9.86,9.86,0,0,0,3-2,11.36,11.36,0,0,0,2.3-3,7,7,0,0,0,.73-5.43q-.81-2.46-4.08-3.28a9.62,9.62,0,0,0-5.4.14,12.36,12.36,0,0,0-4.85,3,18.56,18.56,0,0,0-3.58,4.79,10.6,10.6,0,0,0-1.29,4.91,5.21,5.21,0,0,0,1.5,3.82,8.65,8.65,0,0,0,4,2.1,11.37,11.37,0,0,0,4.64.26A9.84,9.84,0,0,0,338.56,223.07ZM330,215.32a4.13,4.13,0,0,0-.63,2.38,1.21,1.21,0,0,0,.94,1.06,2.32,2.32,0,0,0,1.27-.06,4.55,4.55,0,0,0,1.16-.57,9.89,9.89,0,0,0,2.05-1.91,13.44,13.44,0,0,0,1.75-2.53,3.65,3.65,0,0,0,.53-2.22,1.25,1.25,0,0,0-1-1.08,2.89,2.89,0,0,0-2.05.39,7.93,7.93,0,0,0-2.3,2A14.65,14.65,0,0,0,330,215.32Z" style="fill: rgb(255, 255, 255); transform-origin: 334.032px 215.13px;" id="el5te77rqzs4y" class="animable"></path><path d="M338.29,164.45c-1.19,5.86-4.27,16.24-9.57,18.27,1.72,4.16,4.16,9.15,10.51,12.06s7.06-2,6.33-5c-5.44-4-3.41-8.38-.61-12.15Z" style="fill: rgb(255, 139, 123); transform-origin: 337.256px 180.06px;" id="elbzet0qew4oh" class="animable"></path><g id="elmqanas1999o"><path d="M341,169.81l3.94,7.77a18.26,18.26,0,0,0-1.76,2.78c-2.17-1.3-4.29-5.16-3.53-7.68A8.83,8.83,0,0,1,341,169.81Z" style="opacity: 0.2; transform-origin: 342.216px 175.085px;" class="animable"></path></g><path d="M354.28,164.67c6.27.46,11.82-15.18,2.67-17-6.17-1.23-6.11,2.46-6.76,6.5S350.31,164.38,354.28,164.67Z" style="fill: rgb(38, 50, 56); transform-origin: 355.882px 156.055px;" id="elmzzprmtwce" class="animable"></path><path d="M339,156.75c-1.61,7.8-2.95,12.28-.15,17.28,4.22,7.51,14.64,6.57,18.56-.59,3.52-6.45,5.57-18.12-1.11-23.22A10.87,10.87,0,0,0,339,156.75Z" style="fill: rgb(255, 139, 123); transform-origin: 348.957px 163.607px;" id="elq52ojigfvmr" class="animable"></path><path d="M337.67,162.33c6.27.46,10.47-13.84,1.32-15.67-6.17-1.23-6.69,2.38-6.59,6.24C332.5,157,333.69,162,337.67,162.33Z" style="fill: rgb(38, 50, 56); transform-origin: 338.34px 154.378px;" id="elk6gisvl9d7m" class="animable"></path><path d="M342.73,151.39c4.23,2.05,24.62,6.44,23.45-2.33s-12.06-12.84-12.06-12.84,6.34,6.95,1.11,5.28-6.73-2.89-13-4c0,0,6.16,5.11-1,3.67a17,17,0,0,0-12.16,1.94,12.09,12.09,0,0,1,5.28,11.27C333.86,162.09,342.73,151.39,342.73,151.39Z" style="fill: rgb(38, 50, 56); transform-origin: 347.649px 146.696px;" id="elkalh9idow2" class="animable"></path><path d="M334,162.7a7,7,0,0,0,2.72,4.55c1.92,1.41,3.67-.21,3.8-2.55.11-2.11-.75-5.39-3-5.86S333.7,160.44,334,162.7Z" style="fill: rgb(255, 139, 123); transform-origin: 337.246px 163.274px;" id="elf9tmzdl8b44" class="animable"></path><path d="M303.92,249.81l-8.34,26.86,42.93,27c-7.41,12.36-45.06,24.66-45.06,24.66l6,12.18s52.43-4,63.06-27.18c10.23-22.26-32.7-52.72-32.7-52.72Z" style="fill: rgb(38, 50, 56); transform-origin: 328.768px 295.16px;" id="elqyhn8ugvvij" class="animable"></path><g id="el4uck1eq025w"><path d="M309.49,285.42,302,280.73l9.22-13.4S311.48,278.07,309.49,285.42Z" style="opacity: 0.2; transform-origin: 306.616px 276.375px;" class="animable"></path></g><g id="elg2vgjkh450q"><path d="M309.49,285.42,302,280.73l9.22-13.4S311.48,278.07,309.49,285.42Z" style="opacity: 0.2; transform-origin: 306.616px 276.375px;" class="animable"></path></g><path d="M320.53,256.74S285.91,314.32,271.62,333c-15.65,20.46-56.17,59-56.17,59l-12.07-8.4s35-38.58,48.19-59.93c15.05-24.32,38.64-79.6,38.64-79.6Z" style="fill: rgb(38, 50, 56); transform-origin: 261.955px 318.035px;" id="el4yqoymb3m3k" class="animable"></path><polygon points="216.71 393.28 202.5 383.4 205.45 379.15 221.53 389.92 216.71 393.28" style="fill: rgb(12, 162, 15); transform-origin: 212.015px 386.215px;" id="elsi3ym629vxp" class="animable"></polygon><polygon points="299.95 342.18 292.76 327.67 297.45 325.35 305.73 341.45 299.95 342.18" style="fill: rgb(12, 162, 15); transform-origin: 299.245px 333.765px;" id="elgavvscydzs" class="animable"></polygon><path d="M350.07,162.06c-.17.62,0,1.22.43,1.33s.88-.3,1.05-.93,0-1.22-.44-1.33S350.24,161.44,350.07,162.06Z" style="fill: rgb(38, 50, 56); transform-origin: 350.81px 162.26px;" id="elodeeqik0ybo" class="animable"></path><path d="M357.13,164c-.17.63,0,1.22.43,1.33s.88-.3,1.05-.93,0-1.22-.43-1.33S357.3,163.36,357.13,164Z" style="fill: rgb(38, 50, 56); transform-origin: 357.87px 164.2px;" id="el5dgvzrkjmt2" class="animable"></path><path d="M354.8,163.68a23.26,23.26,0,0,0,1.53,6.16,3.74,3.74,0,0,1-3.14-.26Z" style="fill: rgb(255, 86, 82); transform-origin: 354.76px 166.875px;" id="eldl7av65tlj" class="animable"></path><path d="M350.11,170.54a5.38,5.38,0,0,1-3-3,.2.2,0,0,1,.13-.24.2.2,0,0,1,.24.12,5.1,5.1,0,0,0,3.5,3,.18.18,0,0,1,.14.23.19.19,0,0,1-.24.13A5.63,5.63,0,0,1,350.11,170.54Z" style="fill: rgb(38, 50, 56); transform-origin: 349.116px 169.041px;" id="el1bg00h5rhju" class="animable"></path><path d="M348.51,159.19a.44.44,0,0,1-.15-.12.37.37,0,0,1,.07-.53,3.79,3.79,0,0,1,3.4-.71.39.39,0,0,1,.23.49.38.38,0,0,1-.48.23h0a3,3,0,0,0-2.69.59A.4.4,0,0,1,348.51,159.19Z" style="fill: rgb(38, 50, 56); transform-origin: 350.18px 158.455px;" id="elkljzqyqjn5" class="animable"></path><path d="M360.83,162.38a.37.37,0,0,1-.22-.28,3,3,0,0,0-1.62-2.22.38.38,0,1,1,.29-.7,3.76,3.76,0,0,1,2.07,2.78.37.37,0,0,1-.3.44A.33.33,0,0,1,360.83,162.38Z" style="fill: rgb(38, 50, 56); transform-origin: 360.043px 160.775px;" id="elnk9r6t62lyg" class="animable"></path><path d="M205.05,402.07a9.22,9.22,0,0,1-.52-2.07.2.2,0,0,1,.09-.2.17.17,0,0,1,.2,0c.28.19,2.69,1.94,2.61,2.95a.66.66,0,0,1-.37.53,1.11,1.11,0,0,1-1.07,0A2.33,2.33,0,0,1,205.05,402.07ZM205,400.4c.25,1.38.69,2.33,1.19,2.59a.72.72,0,0,0,.72-.05c.14-.06.16-.14.16-.2C207.1,402.22,205.92,401.13,205,400.4Z" style="fill: rgb(12, 162, 15); transform-origin: 205.98px 401.592px;" id="elrdvsvxi112f" class="animable"></path><path d="M204.54,400a.2.2,0,0,1,.12-.26c.09,0,2.27-.8,3.32-.25a1,1,0,0,1,.52.65h0a.65.65,0,0,1-.23.77c-.75.52-3-.25-3.68-.83A.22.22,0,0,1,204.54,400Zm3.57.17a.66.66,0,0,0-.31-.33,4.37,4.37,0,0,0-2.65.15c.88.51,2.47.91,2.92.6,0,0,.13-.09.07-.33h0Z" style="fill: rgb(12, 162, 15); transform-origin: 206.536px 400.189px;" id="eltxmcxf4u9q" class="animable"></path><path d="M288.12,342.44a.18.18,0,0,1,.08-.18.2.2,0,0,1,.22,0c.33.25,3.22,2.41,3.17,3.53a.6.6,0,0,1-.31.5h0a1,1,0,0,1-1,.09c-1.09-.44-1.83-2.64-2.17-3.91Zm3.09,3.25c-.08-.63-1.46-1.9-2.57-2.78.53,1.72,1.18,2.87,1.79,3.12a.69.69,0,0,0,.65-.06.21.21,0,0,0,.13-.2Z" style="fill: rgb(12, 162, 15); transform-origin: 289.85px 344.35px;" id="el1sin4mlx1vc" class="animable"></path><path d="M288.12,342.44a0,0,0,0,1,0-.05.17.17,0,0,1,.12-.15c.08,0,2.12-.8,3.32-.25a1.36,1.36,0,0,1,.76.8h0c.18.49,0,.74-.16.87-.75.53-3.16-.42-4-1.1A.17.17,0,0,1,288.12,342.44Zm3.89.67a.59.59,0,0,0-.05-.19h0a1,1,0,0,0-.56-.59,4.39,4.39,0,0,0-2.68.15c1,.62,2.77,1.19,3.22.87A.22.22,0,0,0,292,343.11Zm.13-.26h0Z" style="fill: rgb(12, 162, 15); transform-origin: 290.257px 342.806px;" id="eljzfovy3b97q" class="animable"></path><path d="M315.05,192.32l-3.16-2.11c-1.09-.71-2.2-1.4-3.31-2.09-2.23-1.37-4.49-2.67-6.77-3.92s-4.59-2.39-6.92-3.41c-1.16-.53-2.33-1-3.5-1.45l-1.75-.62-.44-.15-.22-.08h0s-.07,0-.16-.07a8.74,8.74,0,0,0-2.51.15,27.67,27.67,0,0,0-3.4.85,75,75,0,0,0-7.23,2.72c-4.85,2.09-9.79,4.47-14.59,6.9l-3.39-5a107.76,107.76,0,0,1,13.83-10,69.7,69.7,0,0,1,7.83-4.11,38.08,38.08,0,0,1,4.49-1.62,18.06,18.06,0,0,1,5.68-.79,13.53,13.53,0,0,1,1.88.23l.47.11.28.07.55.14,2.2.57c1.44.43,2.89.86,4.27,1.39a77.09,77.09,0,0,1,8.13,3.44c2.63,1.26,5.18,2.66,7.67,4.14,1.23.76,2.46,1.53,3.67,2.33s2.37,1.6,3.67,2.57Z" style="fill: rgb(255, 139, 123); transform-origin: 290.01px 179.918px;" id="elyoe4au9zwyh" class="animable"></path><path d="M327,183.83c-1.77-4.38-18.5-10.37-18.5-10.37l-5.41,14.12s5.85,3.87,10.7,6.77C323,199.9,330.46,192.45,327,183.83Z" style="fill: rgb(12, 162, 15); transform-origin: 315.476px 184.862px;" id="el9paltk5pvew" class="animable"></path><path d="M262.7,186.93l-3.39,7.35-5.17-6.7s3.9-6.56,6.68-4Z" style="fill: rgb(255, 139, 123); transform-origin: 258.42px 188.634px;" id="el0w2omi35wy49" class="animable"></path><polygon points="252.16 196.59 249.54 190.71 254.14 187.58 259.31 194.28 252.16 196.59" style="fill: rgb(255, 139, 123); transform-origin: 254.425px 192.085px;" id="elpo60gzmps5p" class="animable"></polygon></g><defs>     <filter id="active" height="200%">         <feMorphology in="SourceAlpha" result="DILATED" operator="dilate" radius="2"></feMorphology>                <feFlood flood-color="#32DFEC" flood-opacity="1" result="PINK"></feFlood>        <feComposite in="PINK" in2="DILATED" operator="in" result="OUTLINE"></feComposite>        <feMerge>            <feMergeNode in="OUTLINE"></feMergeNode>            <feMergeNode in="SourceGraphic"></feMergeNode>        </feMerge>    </filter>    <filter id="hover" height="200%">        <feMorphology in="SourceAlpha" result="DILATED" operator="dilate" radius="2"></feMorphology>                <feFlood flood-color="#ff0000" flood-opacity="0.5" result="PINK"></feFlood>        <feComposite in="PINK" in2="DILATED" operator="in" result="OUTLINE"></feComposite>        <feMerge>            <feMergeNode in="OUTLINE"></feMergeNode>            <feMergeNode in="SourceGraphic"></feMergeNode>        </feMerge>            <feColorMatrix type="matrix" values="0   0   0   0   0                0   1   0   0   0                0   0   0   0   0                0   0   0   1   0 "></feColorMatrix>    </filter></defs></svg>