<svg class="animated" id="freepik_stories-onboarding" xmlns="http://www.w3.org/2000/svg" viewBox="0 0 500 500" version="1.1" xmlns:xlink="http://www.w3.org/1999/xlink" xmlns:svgjs="http://svgjs.com/svgjs"><style>svg#freepik_stories-onboarding:not(.animated) .animable {opacity: 0;}svg#freepik_stories-onboarding.animated #freepik--character-1--inject-8 {animation: 1.5s Infinite  linear floating;animation-delay: 0s;}svg#freepik_stories-onboarding.animated #freepik--character-2--inject-8 {animation: 1.5s Infinite  linear shake;animation-delay: 0s;}svg#freepik_stories-onboarding.animated #freepik--character-3--inject-8 {animation: 1.5s Infinite  linear floating;animation-delay: 0s;}            @keyframes floating {                0% {                    opacity: 1;                    transform: translateY(0px);                }                50% {                    transform: translateY(-10px);                }                100% {                    opacity: 1;                    transform: translateY(0px);                }            }                    @keyframes shake {                10%, 90% {                    transform: translate3d(-1px, 0, 0);                  }                  20%, 80% {                    transform: translate3d(2px, 0, 0);                  }                  30%, 50%, 70% {                    transform: translate3d(-4px, 0, 0);                  }                  40%, 60% {                    transform: translate3d(4px, 0, 0);                  }            }        </style><g id="freepik--Shadow--inject-8" class="animable" style="transform-origin: 250px 416.24px;"><g id="freepik--Shape--inject-8" class="animable" style="transform-origin: 250px 416.24px;"><ellipse id="freepik--path--inject-63--inject-8" cx="250" cy="416.24" rx="193.89" ry="11.32" style="fill: rgb(245, 245, 245); transform-origin: 250px 416.24px;" class="animable"></ellipse></g></g><g id="freepik--background-complete--inject-8" class="animable" style="transform-origin: 250px 228.23px;"><rect y="382.4" width="500" height="0.25" style="fill: rgb(235, 235, 235); transform-origin: 250px 382.525px;" id="el0j5df9na01qd" class="animable"></rect><rect x="52.46" y="391.92" width="21.21" height="0.25" style="fill: rgb(235, 235, 235); transform-origin: 63.065px 392.045px;" id="elqzhpsuub6ag" class="animable"></rect><rect x="171.14" y="389.21" width="84.97" height="0.25" style="fill: rgb(235, 235, 235); transform-origin: 213.625px 389.335px;" id="el1uh2azmbfc" class="animable"></rect><rect x="67.67" y="401.21" width="38.11" height="0.25" style="fill: rgb(235, 235, 235); transform-origin: 86.725px 401.335px;" id="elyjus8fhgq3p" class="animable"></rect><rect x="406.71" y="399.53" width="43.19" height="0.25" style="fill: rgb(235, 235, 235); transform-origin: 428.305px 399.655px;" id="eloak4flwhbwf" class="animable"></rect><rect x="391.47" y="399.53" width="11.97" height="0.25" style="fill: rgb(235, 235, 235); transform-origin: 397.455px 399.655px;" id="el830po0dpgxf" class="animable"></rect><rect x="347.89" y="395.31" width="23" height="0.25" style="fill: rgb(235, 235, 235); transform-origin: 359.39px 395.435px;" id="elbkwmk5oq6z" class="animable"></rect><rect x="287.89" y="395.31" width="48.44" height="0.25" style="fill: rgb(235, 235, 235); transform-origin: 312.11px 395.435px;" id="ellhjlpaifgn" class="animable"></rect><path d="M237,337.8H43.91a5.71,5.71,0,0,1-5.7-5.71V60.66A5.71,5.71,0,0,1,43.91,55H237a5.71,5.71,0,0,1,5.71,5.71h0V332.09A5.71,5.71,0,0,1,237,337.8ZM43.91,55.2a5.46,5.46,0,0,0-5.45,5.46V332.09a5.46,5.46,0,0,0,5.45,5.46H237a5.48,5.48,0,0,0,5.46-5.46V60.66A5.48,5.48,0,0,0,237,55.2Z" style="fill: rgb(235, 235, 235); transform-origin: 140.46px 196.4px;" id="elot7kiyvct8" class="animable"></path><path d="M453.31,337.8H260.21a5.73,5.73,0,0,1-5.71-5.71V60.66A5.72,5.72,0,0,1,260.21,55h193.1A5.71,5.71,0,0,1,459,60.66V332.09A5.7,5.7,0,0,1,453.31,337.8ZM260.21,55.2a5.48,5.48,0,0,0-5.46,5.46V332.09a5.48,5.48,0,0,0,5.46,5.46h193.1a5.48,5.48,0,0,0,5.46-5.46V60.66a5.48,5.48,0,0,0-5.46-5.46Z" style="fill: rgb(235, 235, 235); transform-origin: 356.75px 196.4px;" id="elavxve29wplp" class="animable"></path><g id="freepik--background-complete--inject-457--inject-8" class="animable" style="transform-origin: 185.631px 258.163px;"><rect x="311.01" y="282.07" width="4.26" height="100.52" style="fill: rgb(240, 240, 240); transform-origin: 313.14px 332.33px;" id="elf1g1rk0555s" class="animable"></rect><rect x="148.58" y="284.94" width="118.99" height="21.71" style="fill: rgb(224, 224, 224); transform-origin: 208.075px 295.795px;" id="el0717403603s5" class="animable"></rect><path d="M198.2,382.67h-51a.74.74,0,0,1,0-1.48h51c7.37,0,8.36-2.15,8.36-10.69V262.81a.74.74,0,1,1,1.47,0V370.5C208,379.63,206.61,382.67,198.2,382.67Z" style="fill: rgb(224, 224, 224); transform-origin: 177.248px 322.327px;" id="el157n4aat2qch" class="animable"></path><rect x="153.16" y="282.46" width="160.95" height="7.54" style="fill: rgb(240, 240, 240); transform-origin: 233.635px 286.23px;" id="el70begnnmz6x" class="animable"></rect><rect x="102.64" y="282.07" width="51.68" height="100.52" style="fill: rgb(245, 245, 245); transform-origin: 128.48px 332.33px;" id="elftqo9i1e1p" class="animable"></rect><rect x="150.05" y="282.07" width="4.26" height="100.52" style="fill: rgb(240, 240, 240); transform-origin: 152.18px 332.33px;" id="elmw80rmx14z9" class="animable"></rect><rect x="64.86" y="169.22" width="52.86" height="213.38" style="fill: rgb(250, 250, 250); transform-origin: 91.29px 275.91px;" id="eltmkj8j3hqs" class="animable"></rect><rect x="67.76" y="175.45" width="47.06" height="47.06" style="fill: rgb(245, 245, 245); transform-origin: 91.29px 198.98px;" id="eljv3e9rto6wm" class="animable"></rect><path d="M80.87,174.82h20.87a4.88,4.88,0,0,1-4.88,4.88H85.78a4.88,4.88,0,0,1-4.91-4.85Z" style="fill: rgb(224, 224, 224); transform-origin: 91.305px 177.26px;" id="elka0cmzc6tjc" class="animable"></path><rect x="67.75" y="226.73" width="47.06" height="47.06" style="fill: rgb(245, 245, 245); transform-origin: 91.28px 250.26px;" id="eldem6azhgyup" class="animable"></rect><rect x="67.76" y="278.02" width="47.06" height="47.06" style="fill: rgb(245, 245, 245); transform-origin: 91.29px 301.55px;" id="elic41rjudjo" class="animable"></rect><rect x="67.76" y="329.31" width="47.06" height="47.06" style="fill: rgb(245, 245, 245); transform-origin: 91.29px 352.84px;" id="elg0jwaqtglp5" class="animable"></rect><path d="M80.87,226.11h20.87A4.9,4.9,0,0,1,96.86,231H85.78a4.88,4.88,0,0,1-4.91-4.86Z" style="fill: rgb(224, 224, 224); transform-origin: 91.305px 228.555px;" id="eldoazqbt4nkc" class="animable"></path><path d="M80.87,277.39h20.87a4.87,4.87,0,0,1-4.88,4.88H85.78a4.88,4.88,0,0,1-4.91-4.84Z" style="fill: rgb(224, 224, 224); transform-origin: 91.305px 279.83px;" id="elnxuebtmgba" class="animable"></path><path d="M80.87,328.67h20.87a4.87,4.87,0,0,1-4.88,4.88H85.78a4.88,4.88,0,0,1-4.91-4.84Z" style="fill: rgb(224, 224, 224); transform-origin: 91.305px 331.11px;" id="elybm6s92a5u" class="animable"></path><rect x="38.46" y="169.22" width="26.4" height="213.38" style="fill: rgb(240, 240, 240); transform-origin: 51.66px 275.91px;" id="elgy2czal1b2h" class="animable"></rect><polygon points="201.22 282.07 190.08 282.07 192.78 260.37 203.94 260.37 201.22 282.07" style="fill: rgb(240, 240, 240); transform-origin: 197.01px 271.22px;" id="el2nldutqya2w" class="animable"></polygon><polygon points="203.69 282.07 192.54 282.07 195.26 260.37 206.4 260.37 203.69 282.07" style="fill: rgb(245, 245, 245); transform-origin: 199.47px 271.22px;" id="elneftrzfwer" class="animable"></polygon><polygon points="227.61 282.07 219.54 282.07 218 279.61 226.06 279.61 227.61 282.07" style="fill: rgb(240, 240, 240); transform-origin: 222.805px 280.84px;" id="elur6lac1yf4" class="animable"></polygon><polygon points="270.8 282.07 222.01 282.07 220.47 279.61 264.22 279.61 270.8 282.07" style="fill: rgb(250, 250, 250); transform-origin: 245.635px 280.84px;" id="el7z7z3cwtrq" class="animable"></polygon><path d="M165.87,275.84h3.53a6.22,6.22,0,0,1,6.22,6.23h-16a6.23,6.23,0,0,1,6.23-6.23Z" style="fill: rgb(240, 240, 240); transform-origin: 167.62px 278.955px;" id="el6e0bz12kind" class="animable"></path><polygon points="205.04 271.22 193.9 271.22 195.26 260.37 206.4 260.37 205.04 271.22" style="fill: rgb(240, 240, 240); transform-origin: 200.15px 265.795px;" id="elile5duq1z0m" class="animable"></polygon><path d="M164.06,268.62H243a1.08,1.08,0,0,0,1.09-1.09.71.71,0,0,0,0-.14L238,218.77a1.08,1.08,0,0,0-1.08-1H158a1.09,1.09,0,0,0-1.09,1.09.66.66,0,0,0,0,.14L163,267.67A1.1,1.1,0,0,0,164.06,268.62Z" style="fill: rgb(240, 240, 240); transform-origin: 200.5px 243.195px;" id="eli5gl0hfo2u" class="animable"></path><path d="M165.25,268.62h78.87a1.08,1.08,0,0,0,1.09-1.09.71.71,0,0,0,0-.14l-6.07-48.62a1.12,1.12,0,0,0-1.09-1H159.17a1.09,1.09,0,0,0-1.09,1.09.66.66,0,0,0,0,.14l6.08,48.63A1.08,1.08,0,0,0,165.25,268.62Z" style="fill: rgb(245, 245, 245); transform-origin: 201.645px 243.195px;" id="el5gr2fbxohc4" class="animable"></path><path d="M242.66,265.93,237,220.42a.3.3,0,0,0-.31-.26H160.94a.29.29,0,0,0-.31.28v.06L166.32,266a.3.3,0,0,0,.3.27h75.74a.31.31,0,0,0,.3-.32Z" style="fill: rgb(224, 224, 224); transform-origin: 201.645px 243.215px;" id="eln3qbkfuflv" class="animable"></path><path d="M213.84,282.07H195.68v-.23a1.81,1.81,0,0,1,1.8-1.81H212a1.81,1.81,0,0,1,1.81,1.81h0v.23Z" style="fill: rgb(250, 250, 250); transform-origin: 204.76px 281.05px;" id="el1yqf3t32va7" class="animable"></path><path d="M197.79,282.07H185.48v-.23a1.8,1.8,0,0,1,1.8-1.81H196a1.81,1.81,0,0,1,1.8,1.81v.23Z" style="fill: rgb(240, 240, 240); transform-origin: 191.64px 281.05px;" id="el1liw7o1zch1h" class="animable"></path><path d="M87.2,145.12v0c.2-.68.39-1.37.56-2.05a3.56,3.56,0,0,0,2.76,1.66h.24c1.47-.14,2.87-1.57,3.76-3.81a.28.28,0,0,0,0-.25.34.34,0,0,0-.2-.17,7.74,7.74,0,0,0-6.22,1.08c.14-.65.25-1.31.35-2a3.26,3.26,0,0,0,.7.07,6.22,6.22,0,0,0,4.24-2.24.33.33,0,0,0,0-.45l-.08,0a4.39,4.39,0,0,0-3.6-.14,3.22,3.22,0,0,0-1.42,1.43A7.86,7.86,0,0,0,82,132.88a.28.28,0,0,0-.25.06.32.32,0,0,0-.13.23c-.12,2.17,0,4.84,1.58,6.1a3.68,3.68,0,0,0,2.35.72,8.12,8.12,0,0,0,2.24-.35,36.67,36.67,0,0,1-1,4.65,12.43,12.43,0,0,0-6.43-4.52A.34.34,0,0,0,80,140c-.49,1.88-.24,3.4.73,4.4a5,5,0,0,0,3.64,1.25,11.44,11.44,0,0,0,2.11-.22c-.4,1.28-.88,2.54-1.33,3.73-1-.88-3.85-3.06-7-2.14a.35.35,0,0,0-.19.17.28.28,0,0,0,0,.25c.88,2.08,1.82,3.23,3,3.62a3.12,3.12,0,0,0,1,.16,5.7,5.7,0,0,0,2.64-.77c-.67,1.59-1.38,3.07-2.05,4.39a6.39,6.39,0,0,0-6.31-1.67.31.31,0,0,0-.24.34,3.8,3.8,0,0,0,2.27,3.06,3.75,3.75,0,0,0,1.47.3,4.42,4.42,0,0,0,2-.52c-.69,1.27-1.32,2.34-1.82,3.14H74c-1-1.62-2-3.64-3.13-5.91a5.37,5.37,0,0,0,1.54.23,4.17,4.17,0,0,0,4.23-4.12,4,4,0,0,0-.13-1.09.31.31,0,0,0-.34-.22,7.64,7.64,0,0,0-5.91,3.84c-.7-1.58-1.39-3.26-2-5a5.6,5.6,0,0,0,2.49.72,3,3,0,0,0,1-.17c1.76-.58,2.77-2.7,3.63-4.89a.3.3,0,0,0,0-.26.34.34,0,0,0-.2-.17c-3.52-1-6.41,2.4-7.31,3.62a43,43,0,0,1-1.17-4.46,13,13,0,0,0,2.25.23,5.46,5.46,0,0,0,4.11-1.44c1.06-1.13,1.32-2.82.75-4.87a.31.31,0,0,0-.38-.23h0a13.39,13.39,0,0,0-7,5l-.14-.8a.3.3,0,0,0-.08-.18,3.89,3.89,0,0,0-2-2.42,4.84,4.84,0,0,0-3.94.21.35.35,0,0,0-.19.22.32.32,0,0,0,.07.28,6.78,6.78,0,0,0,4.62,2.4,6,6,0,0,0,.84-.09c.11.74.25,1.49.41,2.23a8.51,8.51,0,0,0-6.87-1.11.39.39,0,0,0-.21.17.39.39,0,0,0,0,.26c1,2.45,2.58,4,4.2,4.13h.22a3.88,3.88,0,0,0,3-1.88,50,50,0,0,0,1.6,5c-1.52-.72-4.94-2-7.39-.07a.32.32,0,0,0-.07.43h0c1.58,2.16,3,3.2,4.48,3.2h0c1.18,0,2.32-.75,3.45-2.22.65,1.61,1.36,3.16,2,4.59-1.52-.94-3.19-.8-5.16.44a.33.33,0,0,0-.15.27.28.28,0,0,0,.13.26,7.75,7.75,0,0,0,4,1.45,3.46,3.46,0,0,0,2.09-.63c.56,1.08,1.11,2.07,1.62,3H70.41v1.55h1l.82,8.19h12l.81-8.19h1V159.5H80.64c.6-1,1.36-2.32,2.18-3.87a.54.54,0,0,0,.05-.11c.21-.4.42-.8.63-1.22a4.05,4.05,0,0,0,3.25,1.82h.4a3.91,3.91,0,0,0,3.22-2.52.29.29,0,0,0-.14-.37,6.66,6.66,0,0,0-6.08-.25c.45-1,.88-2,1.33-3a.27.27,0,0,0,.07-.14c.12-.3.23-.6.36-.88,1,1.32,2.08,2,3.16,2h0c1.31,0,2.64-1,4.06-3a.31.31,0,0,0-.06-.44c-2.24-1.68-5.27-.53-6.7.14.29-.8.56-1.6.8-2.41Z" style="fill: rgb(224, 224, 224); transform-origin: 76.7336px 151.026px;" id="el79lk101ecuk" class="animable"></path><path d="M286.91,332.33H320A11.59,11.59,0,0,0,331.56,321l1.24-60.53a8.45,8.45,0,0,0-8.28-8.61H303.63a8.43,8.43,0,0,0-8.39,7.48Z" style="fill: rgb(230, 230, 230); transform-origin: 309.856px 292.095px;" id="el0ikulqvp5ix" class="animable"></path><path d="M305,332.33H269.73a1.65,1.65,0,0,1-1.65-1.65v-.16A4.52,4.52,0,0,1,272.6,326H305v6.34Z" style="fill: rgb(230, 230, 230); transform-origin: 286.54px 329.17px;" id="elrxg5hh9n1ii" class="animable"></path><path d="M302.17,383.42a.73.73,0,0,1-.73-.58l-10.33-49.77h-18l-10.32,49.77a.76.76,0,0,1-1.48-.31l10.46-50.35a.73.73,0,0,1,.74-.59h19.18a.73.73,0,0,1,.73.59l10.45,50.35a.73.73,0,0,1-.56.87Z" style="fill: rgb(230, 230, 230); transform-origin: 282.096px 357.505px;" id="elmky76w6nz5b" class="animable"></path><path d="M291,383.42h-.15a.74.74,0,0,1-.58-.87h0l10.46-50.36a.75.75,0,0,1,.74-.59h19.18a.75.75,0,0,1,.73.59l10.45,50.36a.75.75,0,1,1-1.47.3L320,333.08H302l-10.32,49.77A.75.75,0,0,1,291,383.42Z" style="fill: rgb(230, 230, 230); transform-origin: 311.051px 357.527px;" id="els6xxj93v6u" class="animable"></path></g><path d="M415.29,368.81h2.06c0-4.24,0-15,.22-39.68.36-44.72,1.08-47.44,1.08-47.44l-4.9,20.65C410.63,325.19,414.63,348.19,415.29,368.81Z" style="fill: rgb(230, 230, 230); transform-origin: 415.612px 325.25px;" id="elsdu3lvn5cv" class="animable"></path><path d="M406.16,294.68c-10.8-10.67-31.88-12.1-53.42-13-8.45-.35,23.6,15.89,39.67,28.05,12.42,9.44,20.08,11.67,24.22,21.85C417.11,318.37,415.46,303.88,406.16,294.68Z" style="fill: rgb(230, 230, 230); transform-origin: 384.025px 306.627px;" id="elwv8icnluqw" class="animable"></path><path d="M418,271.48c7.32-13.9,25.73-27,46.39-32,8.1-1.95-18.8,25.66-29,43.48-7.94,13.84-18.47,30.08-20.1,41.76C412.82,301.63,410.7,285.38,418,271.48Z" style="fill: rgb(224, 224, 224); transform-origin: 439.433px 282.051px;" id="el9okdzkhdrtn" class="animable"></path><path d="M417.11,382.19h0a13.59,13.59,0,0,1-13.54-12.8l-1.24-12.26h29.48l-1.24,12.26A13.59,13.59,0,0,1,417.11,382.19Z" style="fill: rgb(235, 235, 235); transform-origin: 417.07px 369.66px;" id="elsqpxr7wu1cc" class="animable"></path><polygon points="433.74 361.85 400.43 361.85 399.47 348.19 434.69 348.19 433.74 361.85" style="fill: rgb(240, 240, 240); transform-origin: 417.08px 355.02px;" id="ellgs4t4ri7t7" class="animable"></polygon><rect x="276.59" y="75.78" width="169.54" height="121.22" style="fill: rgb(224, 224, 224); transform-origin: 361.36px 136.39px;" id="elhvbb6nkpoqe" class="animable"></rect><rect x="276.59" y="75.78" width="165.8" height="121.22" style="fill: rgb(240, 240, 240); transform-origin: 359.49px 136.39px;" id="elrhdp18dz0i" class="animable"></rect><rect x="282.13" y="80.91" width="154.05" height="108.16" style="fill: rgb(250, 250, 250); transform-origin: 359.155px 134.99px;" id="elgopyulgmwai" class="animable"></rect><rect x="270.85" y="70.49" width="177.7" height="2.12" style="fill: rgb(224, 224, 224); transform-origin: 359.7px 71.55px;" id="el6au1ouhh3w4" class="animable"></rect><circle cx="269.43" cy="71.59" r="2.96" style="fill: rgb(224, 224, 224); transform-origin: 269.43px 71.59px;" id="ele45sub9uv54" class="animable"></circle><circle cx="448.55" cy="71.59" r="2.96" style="fill: rgb(224, 224, 224); transform-origin: 448.55px 71.59px;" id="elgolukm6lwbc" class="animable"></circle><g id="elk56c4tfmwja"><polygon points="420.89 80.91 372.05 189.07 352.8 189.07 401.64 80.91 420.89 80.91" style="fill: rgb(255, 255, 255); opacity: 0.7; transform-origin: 386.845px 134.99px;" class="animable"></polygon></g><g id="elzh76iu71pz9"><polygon points="383.93 80.91 335.09 189.07 300.73 189.07 349.57 80.91 383.93 80.91" style="fill: rgb(255, 255, 255); opacity: 0.7; transform-origin: 342.33px 134.99px;" class="animable"></polygon></g><rect x="276.59" y="124.45" width="169.54" height="3.68" style="fill: rgb(224, 224, 224); transform-origin: 361.36px 126.29px;" id="elk6ivdmsbbhl" class="animable"></rect><rect x="276.59" y="119.04" width="169.54" height="3.68" style="fill: rgb(224, 224, 224); transform-origin: 361.36px 120.88px;" id="elb6nhm5vi89a" class="animable"></rect><rect x="276.59" y="113.64" width="169.54" height="3.68" style="fill: rgb(224, 224, 224); transform-origin: 361.36px 115.48px;" id="elrfzkz17n84j" class="animable"></rect><rect x="276.59" y="108.23" width="169.54" height="3.68" style="fill: rgb(224, 224, 224); transform-origin: 361.36px 110.07px;" id="elpehm6fpf2m" class="animable"></rect><rect x="276.59" y="102.83" width="169.54" height="3.68" style="fill: rgb(224, 224, 224); transform-origin: 361.36px 104.67px;" id="elh60yeb9ss1" class="animable"></rect><rect x="276.59" y="97.43" width="169.54" height="3.68" style="fill: rgb(224, 224, 224); transform-origin: 361.36px 99.27px;" id="elilh7uqbtmgh" class="animable"></rect><rect x="276.59" y="92.02" width="169.54" height="3.68" style="fill: rgb(224, 224, 224); transform-origin: 361.36px 93.86px;" id="elp9em5y0ivvc" class="animable"></rect><rect x="276.59" y="86.62" width="169.54" height="3.68" style="fill: rgb(224, 224, 224); transform-origin: 361.36px 88.46px;" id="el2vngje15koh" class="animable"></rect><rect x="276.59" y="81.22" width="169.54" height="3.68" style="fill: rgb(224, 224, 224); transform-origin: 361.36px 83.06px;" id="elunmkp8zbo5m" class="animable"></rect><rect x="276.59" y="75.81" width="169.54" height="3.68" style="fill: rgb(224, 224, 224); transform-origin: 361.36px 77.65px;" id="ela4bq1w78elf" class="animable"></rect><rect x="185.14" y="74.79" width="30.99" height="30.99" style="fill: rgb(240, 240, 240); transform-origin: 200.635px 90.285px;" id="el0t2vtqratux" class="animable"></rect><rect x="182.72" y="74.79" width="30.99" height="30.99" style="fill: rgb(245, 245, 245); transform-origin: 198.215px 90.285px;" id="el44zknkb9sb8" class="animable"></rect><rect x="185.11" y="77.18" width="26.22" height="26.22" style="fill: rgb(250, 250, 250); transform-origin: 198.22px 90.29px;" id="eldcm0ktnppk" class="animable"></rect><rect x="185.11" y="77.18" width="0.74" height="26.22" style="fill: rgb(240, 240, 240); transform-origin: 185.48px 90.29px;" id="el7wt47jwq1re" class="animable"></rect><path d="M208.18,84.18V96.25a3.82,3.82,0,0,0-3.82,3.82H193.2a3.82,3.82,0,0,0-3.83-3.82V84.18a3.82,3.82,0,0,0,3.83-3.82h11.16A3.82,3.82,0,0,0,208.18,84.18Z" style="fill: rgb(255, 255, 255); transform-origin: 198.775px 90.215px;" id="el9gv4vqh0tbc" class="animable"></path><rect x="55.88" y="74.54" width="104.02" height="52.97" style="fill: rgb(230, 230, 230); transform-origin: 107.89px 101.025px;" id="el1b0glxoj358" class="animable"></rect><rect x="51.66" y="74.54" width="104.02" height="52.97" style="fill: rgb(240, 240, 240); transform-origin: 103.67px 101.025px;" id="elul4z2w1a1ln" class="animable"></rect><rect x="55.58" y="79.16" width="96.36" height="42.51" style="fill: rgb(245, 245, 245); transform-origin: 103.76px 100.415px;" id="el9qp0xrjydcp" class="animable"></rect><g id="elujpr51ajxed"><polygon points="129.14 79.16 110.49 121.67 97.5 121.67 117.21 79.16 129.14 79.16" style="fill: rgb(255, 255, 255); opacity: 0.7; transform-origin: 113.32px 100.415px;" class="animable"></polygon></g><g id="eljtm3q0od5mf"><polygon points="112.75 79.16 92.82 121.67 87.03 121.67 107.26 79.16 112.75 79.16" style="fill: rgb(255, 255, 255); opacity: 0.7; transform-origin: 99.89px 100.415px;" class="animable"></polygon></g></g><g id="freepik--character-1--inject-8" class="animable" style="transform-origin: 158.165px 247.467px;"><path d="M130.26,117.73s-6.36-1.42-7.26-9.62c-.83-7.61,2.56-9.12,2.56-9.12s-4.33-7.78,2.9-12.25,18.3,1.49,22.56-.53,9-.89,7.65,5.11S151,98.88,151,98.88l-14.59-2.56s6.29,16.4,2.56,19.49S130.26,117.73,130.26,117.73Z" style="fill: rgb(38, 50, 56); transform-origin: 140.887px 101.49px;" id="elhl3ducyucgs" class="animable"></path><path d="M155.68,93.56s3.15,12.24,0,14.35-3.83-12.54-3.83-12.54Z" style="fill: rgb(38, 50, 56); transform-origin: 154.465px 100.839px;" id="elwl3wl0145c9" class="animable"></path><path d="M132.47,212.11l-3.13,6.7-5.55-.8c-5.23.84-7.41-2.13-7.41-2.13l-3.29-3c-18.39-17.22-21.49-26-19.91-32.93,1.67-7.32,12.75-28.85,16.09-33.86s5.86-6.38,5.86-6.38c6.06-2.61,10.65-.73,12.76,5.75,1.71,5.24-2.17,10.71-5.16,14.66a159.57,159.57,0,0,0-10.18,15.1c-1,1.72-2,3.47-2.94,5.23-.41.76-2.67,4.06-2.42,4.73,1.54,4.29,9.28,16.47,12,20.69l.94,1.46C130.17,208.77,132.47,212.11,132.47,212.11Z" style="fill: rgb(38, 50, 56); transform-origin: 112.645px 178.692px;" id="ellaf0pd5vvqg" class="animable"></path><path d="M236.93,141.35l-5.83,3.33s-1.26,2.48-3.34,5.95c-4.73,7.91-13.68,21-21.59,21.88-10.39.87-21.31-3.94-32.28-11.3s-7.1-24.2-7.1-24.2,6.55,1.84,16.69,9.34,18.74,12.08,21.24,13.05c0,0,8.6-2.77,17.91-13.59h0l2.64-8.48,8.75-3Z" style="fill: rgb(38, 50, 56); transform-origin: 201.529px 153.471px;" id="elu0547c111" class="animable"></path><path d="M114.76,165.46C115.14,166,125,214.4,125,214.4h46.06s.41-29.59,1.17-36.61,5.42-36-5.44-40.78c0,0-11.06-2.63-19.22-2.74a74.64,74.64,0,0,0-14.65,1.25s-14.13.75-17.8,4.17S114.76,165.46,114.76,165.46Z" style="fill: rgb(38, 50, 56); transform-origin: 143.631px 174.332px;" id="el0vnxqlrbmhn" class="animable"></path><path d="M171.06,213.75s-.78,69.81-2.87,86.51-7.51,88.87-7.51,88.87L147,385.84s-1-52.53-2.43-78.62-1.11-57-1.11-57-10,65-13.85,71.26S110.1,363.92,100,382l-11.14-9.74S107,314.52,110.1,304.78s5.8-82,14.9-90.38Z" style="fill: rgb(11, 172, 43); transform-origin: 129.96px 301.44px;" id="el6paip8mdye9" class="animable"></path><polygon points="98.31 379.88 95.53 384.13 91.78 389.87 84.12 385.89 87.26 379.55 89.6 374.85 98.31 379.88" style="fill: rgb(206, 122, 99); transform-origin: 91.215px 382.36px;" id="elpkgvlibod4p" class="animable"></polygon><path d="M236.93,141.35l-5.83,3.33s-1.26,2.48-3.34,5.95l-5.13-4.82h0l2.64-8.48,8.75-3Z" style="fill: rgb(206, 122, 99); transform-origin: 229.78px 142.48px;" id="el2iuaaled2rj" class="animable"></path><g id="elojazrdrt65"><path d="M171.05,213.75s-.77,69.81-2.86,86.5-7.51,88.88-7.51,88.88l-13.51-2.27s-1.25-53.55-2.63-79.65c-.39-7.44-1.08-13.1-1.23-17.45s-.12-12,0-19.49h0c.13-10.84.37-21.38.37-21.38l-.3,1.92c0,.28-.09.59-.15.92l-.06.4v0c-2.13,13.46-10.25,63.89-13.55,69.31C125.75,327.74,110.1,363.92,100,382l-11.14-9.74s18.1-57.75,21.23-67.48,5.8-82,14.9-90.39Z" style="opacity: 0.3; transform-origin: 129.955px 301.44px;" class="animable"></path></g><g id="elezoy1u175th"><path d="M143.34,250.8c0,.28-.09.59-.15.92Z" style="opacity: 0.2; transform-origin: 143.265px 251.26px;" class="animable"></path></g><g id="el8gztm48yzrt"><path d="M145.53,236.79s-.26,20-2.26,33.47c.13-10.84.37-21.38.37-21.38Z" style="opacity: 0.2; transform-origin: 144.4px 253.525px;" class="animable"></path></g><path d="M149.48,132.36a13.51,13.51,0,0,0,4.5,2.31s-2.33,2.8-9.8,2.25c-2.91-.22-6.61,1.37-11.25-1.4,0,0,1.94-11.08,1.09-17.64,0,0-7.67-3.29-5.84-8.28,1.66-4.54,6.83.67,7.77,1.66-.92-1.17-6.44-8.54-2.42-14.57A15.8,15.8,0,0,1,145,89.76l6.34,1.7,2.55,6s3.41,4.62,3.65,13.87-5.11,12.53-9,13.63c0,0-.11,1-.11,2.35C148.38,129.12,148.55,131.51,149.48,132.36Z" style="fill: rgb(206, 122, 99); transform-origin: 142.723px 113.469px;" id="elylqpgmirxw" class="animable"></path><path d="M151.49,112.06l-1-7.47,4.21,5.88A4.52,4.52,0,0,1,151.49,112.06Z" style="fill: rgb(186, 77, 60); transform-origin: 152.595px 108.325px;" id="eljelmtfw3cr" class="animable"></path><path d="M144.18,112.53a4.89,4.89,0,0,0,5.09,1.75" style="fill: none; stroke: rgb(38, 50, 56); stroke-linecap: round; stroke-linejoin: round; transform-origin: 146.725px 113.482px;" id="el0aie28xhr80e" class="animable"></path><path d="M142.27,102.2s1.2-2.62,3.66-2.22" style="fill: none; stroke: rgb(38, 50, 56); stroke-linecap: round; stroke-linejoin: round; transform-origin: 144.1px 101.069px;" id="eltbydzomct38" class="animable"></path><path d="M153.08,99a4.66,4.66,0,0,1,4,1.43" style="fill: none; stroke: rgb(38, 50, 56); stroke-linecap: round; stroke-linejoin: round; transform-origin: 155.08px 99.6954px;" id="elvw62qy8wkt8" class="animable"></path><path d="M146.75,105.6c0,.73-.37,1.32-.82,1.32s-.82-.59-.82-1.32.37-1.31.82-1.31S146.75,104.88,146.75,105.6Z" style="fill: rgb(38, 50, 56); transform-origin: 145.93px 105.605px;" id="elfft74atjl3e" class="animable"></path><path d="M155.07,105.06c0,.72-.37,1.31-.82,1.31s-.82-.59-.82-1.31.37-1.32.82-1.32S155.07,104.33,155.07,105.06Z" style="fill: rgb(38, 50, 56); transform-origin: 154.25px 105.055px;" id="elx8seuwk9c3b" class="animable"></path><polygon points="141.22 140.32 147.64 139.34 149.21 145.55 146.22 151.11 144.5 151.11 141.22 146.12 141.22 140.32" style="fill: rgb(11, 172, 43); transform-origin: 145.215px 145.225px;" id="eltcbbiaiskfn" class="animable"></polygon><polygon points="144.5 151.11 141.22 180.45 147.22 186.23 151.55 180.32 146.22 151.11 144.5 151.11" style="fill: rgb(11, 172, 43); transform-origin: 146.385px 168.67px;" id="el9hgmtom7bkl" class="animable"></polygon><g id="eljnfgadv0enm"><polygon points="141.22 140.32 147.64 139.34 149.21 145.55 146.22 151.11 144.5 151.11 141.22 146.12 141.22 140.32" style="opacity: 0.3; transform-origin: 145.215px 145.225px;" class="animable"></polygon></g><g id="el1rdmsnct0i4"><polygon points="144.5 151.11 141.22 180.45 147.22 186.23 151.55 180.32 146.22 151.11 144.5 151.11" style="opacity: 0.3; transform-origin: 146.385px 168.67px;" class="animable"></polygon></g><path d="M144.18,136.92l3.25,8.56s8.4-4.19,9.63-11.21l-6-2.06A33.4,33.4,0,0,1,144.18,136.92Z" style="fill: rgb(255, 255, 255); transform-origin: 150.62px 138.845px;" id="elyax50ck07kr" class="animable"></path><path d="M133.5,131.65s5.81,3.06,10.68,5.27l-1.91,8.56s-9.62-5.76-12.85-10.26Z" style="fill: rgb(255, 255, 255); transform-origin: 136.8px 138.565px;" id="el133jqunwefx" class="animable"></path><g id="elru0db07box"><path d="M148.5,124.93s-.11,1-.11,2.35a20.28,20.28,0,0,1-4.75-1.83A10.22,10.22,0,0,0,148.5,124.93Z" style="opacity: 0.2; transform-origin: 146.07px 126.105px;" class="animable"></path></g><path d="M136,111.26a20.12,20.12,0,0,0-1.1-13s11.41,3.27,11.44-7.12c0,0-15.22,2.43-16,7.84S134.7,109.79,136,111.26Z" style="fill: rgb(38, 50, 56); transform-origin: 138.3px 101.2px;" id="elhmed9nwvdr4" class="animable"></path><path d="M146.17,92.67s4.36,6.19,8.1,4.91v-9h-13l-6.87,4.1,4.76,4.9,3.54-2.91Z" style="fill: rgb(38, 50, 56); transform-origin: 144.335px 93.1671px;" id="elevqv2ugf26m" class="animable"></path><polygon points="159.77 400.38 150.01 399.88 149.77 392.48 149.59 387.08 157.49 386.29 159.05 386.36 159.39 393.04 159.77 400.38" style="fill: rgb(206, 122, 99); transform-origin: 154.68px 393.335px;" id="elrv2l6lgv2c" class="animable"></polygon><g id="elotbvtwhigk"><polygon points="159.39 393.04 149.77 392.48 149.59 387.08 157.49 386.29 159.05 386.36 159.39 393.04" style="opacity: 0.2; transform-origin: 154.49px 389.665px;" class="animable"></polygon></g><polygon points="144.29 390.63 163.06 390.17 164.12 384.05 144.73 384.05 144.29 390.63" style="fill: rgb(38, 50, 56); transform-origin: 154.205px 387.34px;" id="elpiqzijb5vg" class="animable"></polygon><path d="M161.87,400.79s3.27-9.64,5.82-8.68S161.87,400.79,161.87,400.79Z" style="fill: none; stroke: rgb(11, 172, 43); stroke-miterlimit: 10; transform-origin: 165.022px 396.416px;" id="els5qv8hy80ua" class="animable"></path><path d="M162.43,400.79s4.94-4.7,6.93-2.87S162.43,400.79,162.43,400.79Z" style="fill: none; stroke: rgb(11, 172, 43); stroke-miterlimit: 10; transform-origin: 166.04px 399.143px;" id="ela8y89h9v3d9" class="animable"></path><g id="eldk1k5ufbxom"><polygon points="98.31 379.88 95.53 384.13 87.26 379.55 89.6 374.85 98.31 379.88" style="opacity: 0.2; transform-origin: 92.785px 379.49px;" class="animable"></polygon></g><polygon points="85.42 376.04 99.76 383.63 103.14 379.47 88.53 371.26 85.42 376.04" style="fill: rgb(38, 50, 56); transform-origin: 94.28px 377.445px;" id="elwu8bg94quw" class="animable"></polygon><path d="M94.55,392.42s4.06-5.08,5.71-3.88S94.55,392.42,94.55,392.42Z" style="fill: none; stroke: rgb(11, 172, 43); stroke-miterlimit: 10; transform-origin: 97.5255px 390.388px;" id="el5tgkp6yqo6" class="animable"></path><path d="M95.29,392.42s7-1.65,7.3.62S95.29,392.42,95.29,392.42Z" style="fill: none; stroke: rgb(11, 172, 43); stroke-miterlimit: 10; transform-origin: 98.9443px 392.875px;" id="elku7wheluihb" class="animable"></path><path d="M93.7,387l-7.53-4.23a2.28,2.28,0,0,0-3.09.87l-3.39,6a2.28,2.28,0,0,0,.87,3.1l21.37,12a2.28,2.28,0,0,0,3.1-.87h0a2.28,2.28,0,0,0-.56-2.89c-2.76-2.21-8.42-7.29-9.67-12.55A2.26,2.26,0,0,0,93.7,387Z" style="fill: rgb(38, 50, 56); transform-origin: 92.36px 393.757px;" id="elu7u609y98vn" class="animable"></path><path d="M158.87,396.63h-10a2.64,2.64,0,0,0-2.63,2.64v8a2.63,2.63,0,0,0,2.63,2.63h28.36a2.63,2.63,0,0,0,2.64-2.63h0a2.64,2.64,0,0,0-2.2-2.6c-4.05-.67-12.63-2.59-16.88-7.18A2.65,2.65,0,0,0,158.87,396.63Z" style="fill: rgb(38, 50, 56); transform-origin: 163.055px 403.265px;" id="elj7ytmjw45q" class="animable"></path><path d="M132.47,212.11l-3.13,6.7-5.55-.8c-5.23.84-7.41-2.13-7.41-2.13l-3.29-3,6.11-7,.94,1.46C130.17,208.77,132.47,212.11,132.47,212.11Z" style="fill: rgb(206, 122, 99); transform-origin: 122.78px 212.345px;" id="elhmamsm7265k" class="animable"></path><polygon points="222.63 145.37 220.69 147.95 226.37 152.91 228.04 150.63 222.63 145.37" style="fill: rgb(255, 255, 255); transform-origin: 224.365px 149.14px;" id="el3xxdub7t7mp" class="animable"></polygon><polygon points="112.84 213.16 119.39 205.5 117.18 202.69 110.34 210.92 112.84 213.16" style="fill: rgb(255, 255, 255); transform-origin: 114.865px 207.925px;" id="eljfluf34j5cf" class="animable"></polygon></g><g id="freepik--character-2--inject-8" class="animable" style="transform-origin: 245.905px 252.062px;"><path d="M238.59,97.75a14.27,14.27,0,0,0,1.46,12.17c3.88,5.88,3-13.56,3-13.56Z" style="fill: rgb(38, 50, 56); transform-origin: 240.49px 103.694px;" id="el7jmkdeqd2hq" class="animable"></path><path d="M246.54,141.84s-24,33.6-28.69,32.19-15.5-22.37-15.5-22.37l-.63-8.29-7.08-9.75-9,7.1,4.36,8.11s1.3,4.21,5.14,5.39c0,0,8.83,27.11,20,32.2s26.67-27.21,26.67-27.21Z" style="fill: rgb(255, 181, 115); transform-origin: 216.09px 160.292px;" id="el8ksyw32w6xr" class="animable"></path><path d="M297.92,386.69l-12.39,4.71c-16-35.14-29-137.62-29-137.62s-.38,2.87-.95,7.49c-1.86,15.3-5.8,49.69-5,62,1.27,20.71-2.39,71.89-2.39,71.89l-15,1.78s.51-50.59-1.63-78.62,4.41-99.95,4.41-99.95l41.37-1.9c7.1,8.16,8.87,108.59,10.65,117.82S297.92,386.69,297.92,386.69Z" style="fill: rgb(38, 50, 56); transform-origin: 264.525px 306.705px;" id="elinwbfxvyd5" class="animable"></path><path d="M231.89,146.85a4.17,4.17,0,0,1,1.79-2.72c3.35-2.24,11.94-7.82,14.25-8,2.9-.23,18.06-3.79,24.07,0s9.81,14.93,9.81,14.93-.44,51.49-3.12,68.21l-42.79-.89S229.17,161.94,231.89,146.85Z" style="fill: rgb(11, 172, 43); transform-origin: 256.526px 176.832px;" id="elt27ldaetmn" class="animable"></path><path d="M279.81,165.55l6.68,12.26s.89,27.64-1.33,34.77l-3.35,6.69V230l8,1.11,2.23-8.47s1.33-6.24,0-8.91c0,0,9.36-21.4,6-39.9,0,0-16.89-37.24-27.25-38.27S279.81,165.55,279.81,165.55Z" style="fill: rgb(255, 181, 115); transform-origin: 283.255px 183.322px;" id="el4dun7a3ck56" class="animable"></path><path d="M266.17,135.61s-6.61,6.38-12.64,6.2-4.38-5.32-4.38-5.32c3.1-.58,4.11-3.68,4.4-6.34a18.73,18.73,0,0,0,0-4s-7.19,0-11.23-8.78,0-20.35,0-20.35,15.27-3.86,22.11-1.93,1.41,19.12,1.41,19.12C264.06,123.86,266.17,135.61,266.17,135.61Z" style="fill: rgb(255, 181, 115); transform-origin: 254.204px 118.182px;" id="ely9f85m87wx" class="animable"></path><path d="M252.77,106.17c0,.69-.38,1.25-.84,1.25s-.83-.56-.83-1.25.37-1.25.83-1.25S252.77,105.48,252.77,106.17Z" style="fill: rgb(38, 50, 56); transform-origin: 251.935px 106.17px;" id="elpeyfhipj31" class="animable"></path><path d="M244.25,107c0,.69-.37,1.25-.83,1.25s-.84-.56-.84-1.25.38-1.25.84-1.25S244.25,106.28,244.25,107Z" style="fill: rgb(38, 50, 56); transform-origin: 243.415px 107px;" id="elzbq29fm02x9" class="animable"></path><path d="M247.07,107.6l0,6.71a2.92,2.92,0,0,1-3.11-.92Z" style="fill: rgb(237, 137, 62); transform-origin: 245.515px 111.021px;" id="elwruvd0aokz" class="animable"></path><path d="M249.92,115.48s3.56,0,4.86-2.93" style="fill: none; stroke: rgb(38, 50, 56); stroke-linecap: round; stroke-linejoin: round; transform-origin: 252.35px 114.015px;" id="elstn44hxhdq" class="animable"></path><path d="M251.1,101.35s3.1-.25,4,1.68" style="fill: none; stroke: rgb(38, 50, 56); stroke-linecap: round; stroke-linejoin: round; transform-origin: 253.1px 102.185px;" id="el59ktwv49vwk" class="animable"></path><path d="M240.51,103.71a3.87,3.87,0,0,1,2.91-2.37" style="fill: none; stroke: rgb(38, 50, 56); stroke-linecap: round; stroke-linejoin: round; transform-origin: 241.965px 102.525px;" id="elgwnl02zcyd9" class="animable"></path><g id="el7segcqih3kl"><path d="M259,125.08a16.72,16.72,0,0,1-5.44,5.07,18.73,18.73,0,0,0,0-4A14.23,14.23,0,0,0,259,125.08Z" style="opacity: 0.2; transform-origin: 256.28px 127.615px;" class="animable"></path></g><polygon points="251.75 142.02 255.38 141.68 256.4 149.26 254.51 152.73 252.35 152.73 250.33 148.97 251.75 142.02" style="fill: rgb(38, 50, 56); transform-origin: 253.365px 147.205px;" id="el60zv2h6d61f" class="animable"></polygon><path d="M265.73,132.56a55.27,55.27,0,0,1-12.2,9.25l2.16,5.36s9.06-1.56,12.94-12.31Z" style="fill: rgb(255, 255, 255); transform-origin: 261.08px 139.865px;" id="ele5x525o80xs" class="animable"></path><path d="M253.53,141.81l-2.43,5.36s-3.68-3.63-4.56-10.64l4.56-2.91S251.27,138.87,253.53,141.81Z" style="fill: rgb(255, 255, 255); transform-origin: 250.035px 140.395px;" id="el2w07hz1adbo" class="animable"></path><polygon points="252.51 150.73 250.04 182.78 254.19 187.82 258.02 182.47 254.28 150.73 252.51 150.73" style="fill: rgb(38, 50, 56); transform-origin: 254.03px 169.275px;" id="ela7z7j0i4b5" class="animable"></polygon><path d="M268.92,109.4s-8.76,1.06-10.21-11.63c0,0-15.43,4.61-21-.12s-1.05-10.88-1.05-10.88a24.42,24.42,0,0,0,1.71,3.46v-4a29.11,29.11,0,0,0,3.09,3.45,19.29,19.29,0,0,0,13-2.51c6.69-4,15.2,3.59,13.63,9.44C268.14,96.64,275.68,102.52,268.92,109.4Z" style="fill: rgb(38, 50, 56); transform-origin: 253.331px 97.7375px;" id="elfoay3ktzhq5" class="animable"></path><path d="M262.91,109.76s2.36-8.37,6.24-5.42-1.65,11.19-4.35,10.72S262.91,109.76,262.91,109.76Z" style="fill: rgb(255, 181, 115); transform-origin: 266.642px 109.395px;" id="elcdlpg7qbzyl" class="animable"></path><path d="M194.87,156l8.44-4.66s9.07,17.52,14.33,19.72c0,0,10.69-10.79,14.21-24.3l4.79,22.52s-8.29,17.51-18.77,17.76S198.8,167.35,194.87,156Z" style="fill: rgb(11, 172, 43); transform-origin: 215.755px 166.901px;" id="elypjcfog5kpk" class="animable"></path><path d="M273.81,158.58,286.53,179l-2.12,31.63,9.57,1.87s7.37-22,4.1-38.65c-2.37-12.09-9.86-27.42-18.55-34.75a18.58,18.58,0,0,0-10.9-4.19s-2.35,5.42-2.23,10S273.81,158.58,273.81,158.58Z" style="fill: rgb(11, 172, 43); transform-origin: 282.656px 173.705px;" id="elk1sq3in4d2" class="animable"></path><g id="el0y5ltpzvc9l"><path d="M281.47,170.86l-7.66-12.28c.66,1.06,7.66,22.28,7.66,22.28Z" style="opacity: 0.2; transform-origin: 277.64px 169.72px;" class="animable"></path></g><g id="els4yzc88x9pq"><path d="M256.53,253.78s-.38,2.87-.95,7.49l-2-24.32Z" style="opacity: 0.2; transform-origin: 255.055px 249.11px;" class="animable"></path></g><polygon points="292.77 401.84 300.53 398.23 298.3 392.14 296.67 387.69 289.99 389.64 288.75 390.2 290.66 395.75 292.77 401.84" style="fill: rgb(255, 181, 115); transform-origin: 294.64px 394.765px;" id="el3feocts6qig" class="animable"></polygon><g id="elfn7wmg1plbr"><polygon points="290.66 395.75 298.3 392.14 296.67 387.69 289.99 389.64 288.75 390.2 290.66 395.75" style="opacity: 0.2; transform-origin: 293.525px 391.72px;" class="animable"></polygon></g><path d="M291.19,402.86s-5.82-6.76-7.58-5.15S291.19,402.86,291.19,402.86Z" style="fill: none; stroke: rgb(11, 172, 43); stroke-miterlimit: 10; transform-origin: 287.29px 400.161px;" id="elx9i1qrd4z8s" class="animable"></path><path d="M290.74,403s-5.56-2.2-6.58-.06S290.74,403,290.74,403Z" style="fill: none; stroke: rgb(11, 172, 43); stroke-miterlimit: 10; transform-origin: 287.403px 402.956px;" id="eln1gf9j6ih7" class="animable"></path><path d="M292.27,398.5l8.11-3.28a2.31,2.31,0,0,1,3,1.27L306,403a2.3,2.3,0,0,1-1.27,3l-23.05,9.31a2.29,2.29,0,0,1-3-1.28h0a2.3,2.3,0,0,1,.93-2.83c3.06-1.87,9.42-6.25,11.36-11.37A2.26,2.26,0,0,1,292.27,398.5Z" style="fill: rgb(38, 50, 56); transform-origin: 292.34px 405.267px;" id="el2euem7p1jba" class="animable"></path><polygon points="236.07 409.49 244.62 409.28 245 402.8 245.28 398.07 238.38 397.2 237.02 397.22 236.56 403.07 236.07 409.49" style="fill: rgb(255, 181, 115); transform-origin: 240.675px 403.345px;" id="ele4c1ex7s44" class="animable"></polygon><g id="el4bp7h46sir3"><polygon points="236.56 403.07 245 402.8 245.28 398.07 238.38 397.2 237.02 397.22 236.56 403.07" style="opacity: 0.2; transform-origin: 240.92px 400.135px;" class="animable"></polygon></g><path d="M234.21,409.8s-2.64-8.52-4.89-7.74S234.21,409.8,234.21,409.8Z" style="fill: none; stroke: rgb(11, 172, 43); stroke-miterlimit: 10; transform-origin: 231.546px 405.905px;" id="el3kosdvu4td1" class="animable"></path><path d="M233.72,409.79s-4.22-4.24-6-2.68S233.72,409.79,233.72,409.79Z" style="fill: none; stroke: rgb(11, 172, 43); stroke-miterlimit: 10; transform-origin: 230.588px 408.278px;" id="elgvh7ute5zai" class="animable"></path><path d="M236.94,406.23l8.75.23a2.31,2.31,0,0,1,2.25,2.37l-.19,7a2.3,2.3,0,0,1-2.37,2.24l-24.85-.65a2.3,2.3,0,0,1-2.24-2.37h0a2.31,2.31,0,0,1,2-2.22c3.56-.5,11.13-2,14.95-5.91A2.32,2.32,0,0,1,236.94,406.23Z" style="fill: rgb(38, 50, 56); transform-origin: 233.115px 412.15px;" id="elbe3z4b6rhwr" class="animable"></path><polygon points="285.26 394.88 280.97 387.41 299.64 380.5 300.95 390.4 285.26 394.88" style="fill: rgb(11, 172, 43); transform-origin: 290.96px 387.69px;" id="elqj87ek1zol" class="animable"></polygon><polygon points="231.11 390.34 231.11 400 250.7 400 251.45 390.34 231.11 390.34" style="fill: rgb(11, 172, 43); transform-origin: 241.28px 395.17px;" id="eleqbiornkbk" class="animable"></polygon></g><g id="freepik--character-3--inject-8" class="animable" style="transform-origin: 344.752px 257.129px;"><path d="M335.68,154.22S330,176.62,324,183.56c0,0-10.89-10.88-14.2-20.35,0,0-.31-4.42-3.47-6.31l-4.73-6.47-7.89,2.84,1.89,6.31,8.21,4.58s10.41,28.71,19.87,28.55,13.73-12.78,13.73-12.78l5.2-27Z" style="fill: rgb(255, 139, 123); transform-origin: 318.16px 171.57px;" id="el6z4nv27bop9" class="animable"></path><path d="M304,166.85l5.84-3.64s9.94,16.24,14.59,19.5c0,0,5.79-10.56,7.77-19.25a142.86,142.86,0,0,1,3.83-14l6.62,9.59s-4.35,30.54-13.35,33.64-14.09-5.69-16.14-9.15S304,166.85,304,166.85Z" style="fill: rgb(38, 50, 56); transform-origin: 323.325px 171.401px;" id="eloj6ar6iwlh" class="animable"></path><path d="M354.05,386.69c0,.37,6,8.85,6,8.85l6.28-8.12-6.77-9.59Z" style="fill: rgb(255, 139, 123); transform-origin: 360.19px 386.685px;" id="elmvg2pb5o2qo" class="animable"></path><path d="M357.22,392.3l6.5-7.05a2.54,2.54,0,0,1,3.58-.14l5.64,5.22a2.52,2.52,0,0,1,.14,3.57l-18.48,20a2.54,2.54,0,0,1-3.57.14h0a2.53,2.53,0,0,1-.4-3.25c2.16-3.29,6.4-10.59,5.93-16.58A2.51,2.51,0,0,1,357.22,392.3Z" style="fill: rgb(38, 50, 56); transform-origin: 361.984px 399.573px;" id="el6t9cy8bkadq" class="animable"></path><polygon points="340.58 382.75 358.82 366.75 365.53 380.68 353.06 391.52 340.58 382.75" style="fill: rgb(11, 172, 43); transform-origin: 353.055px 379.135px;" id="el36inhx3dwws" class="animable"></polygon><path d="M333.91,201.45s-19.67,85.87-20,106.47,17.64,56.33,29,73.06l15.3-12.17-22.17-54,10.29-67.24,11.88,136.24,14.68,1.88s1.87-51.52,0-70.25,8.53-82.43.83-106.79Z" style="fill: rgb(38, 50, 56); transform-origin: 345.252px 293.57px;" id="elkp54c5l5uyf" class="animable"></path><path d="M373.77,208.63s3.35-31.94,9.78-44.45l2.5-14.47s-4.65-5.72-15.19-5.54-15.18-1-15.18-1-13.77-.93-17,2.11-3.39,16.8-3.93,23.41-1.8,37-1.8,37Z" style="fill: rgb(11, 172, 43); transform-origin: 359.5px 175.833px;" id="el5yz062gtcft" class="animable"></path><path d="M372.84,143.11S357,161.66,360,208.63l18.52,3.18L376,192.33l11.87-35.61S390.36,145.63,372.84,143.11Z" style="fill: rgb(38, 50, 56); transform-origin: 373.807px 177.46px;" id="el5rwbehx4rc7" class="animable"></path><path d="M354.78,143.11s-17.06,12.46-18.37,60.27l-8.93.25,7.31-38.24a17.59,17.59,0,0,1-.48-10.77c1-3.44,2.08-7.48,4.38-9.38C342.35,142.21,348.18,142.47,354.78,143.11Z" style="fill: rgb(38, 50, 56); transform-origin: 341.13px 173.166px;" id="el54ft13agpq8" class="animable"></path><path d="M375.68,154.33s10.62,25.78,8,36.21c0,0-18.32-4.71-26.77-12.9,0,0-2.65-4.47-7-4.8l-8.36-4.29-6.78,7.12,5.3,5.62,11,.49s26,24.65,35.86,19.51c4.61-2.41,6.59-7.09,7.39-11.39a28,28,0,0,0-.68-12.67L386.59,152Z" style="fill: rgb(255, 139, 123); transform-origin: 364.759px 176.998px;" id="elt8y32o6xg9h" class="animable"></path><path d="M350.4,184.24l7.24-8.42s16.08,12.4,26,14.72a229.87,229.87,0,0,0-4-25.21l-5-8.61.46-3.62,12.12-1.57s11,30.75,8.08,41.83-9.19,12.18-19.75,8.09S350.4,184.24,350.4,184.24Z" style="fill: rgb(38, 50, 56); transform-origin: 373.097px 177.582px;" id="elrlc7tv5edkm" class="animable"></path><polygon points="373.09 407.96 363.02 407.96 362.44 399.58 362.15 395.39 361.98 392.97 373.08 393.9 373.08 399.58 373.09 407.96" style="fill: rgb(255, 139, 123); transform-origin: 367.535px 400.465px;" id="elqmtzhuvxr1a" class="animable"></polygon><path d="M362.59,404.21h9.59a2.53,2.53,0,0,1,2.53,2.53v7.69a2.53,2.53,0,0,1-2.53,2.52H344.94a2.52,2.52,0,0,1-2.53-2.52h0a2.53,2.53,0,0,1,2.11-2.5c3.89-.64,12.13-2.48,16.21-6.9A2.53,2.53,0,0,1,362.59,404.21Z" style="fill: rgb(38, 50, 56); transform-origin: 358.56px 410.58px;" id="el60wgbdxw5ol" class="animable"></path><g id="elc9pk7laz2wg"><path d="M372.84,143.11a39.71,39.71,0,0,0-4.6,7.79,88.64,88.64,0,0,0-7.13,24.92l11.73-9.5-2.55-8.17,14.27-10.36S380.83,144,372.84,143.11Z" style="fill: rgb(255, 255, 255); opacity: 0.1; transform-origin: 372.835px 159.465px;" class="animable"></path></g><g id="elq4i7x1lmjwp"><path d="M340.94,169.36s5.65-20.15,13.84-26.25c0,0-9.71-1.35-14.18.92l1,14.12-4.17,1.31Z" style="fill: rgb(255, 255, 255); opacity: 0.1; transform-origin: 346.105px 156.036px;" class="animable"></path></g><path d="M384.76,109.75c1.92,4.81-.14,10.22.05,15.39.08,2.36.64,4.68.7,7s-.48,4.88-2.21,6.49c-1.56,1.47-3.79,1.91-5.89,2.3-3.28.59-6.84,1.15-9.78-.41-.68-.36-1.3-.82-2-1.12a9.43,9.43,0,0,0-4.52-.39,11,11,0,0,1-4.54-.22c-4.68-1.63-1.46-8.07-.66-11.37q1.85-7.58,3.68-15.15c5.05-1,10.06-2.4,15.12-3.42a10.94,10.94,0,0,1,5.08-.22C381.37,109.11,383.18,110.26,384.76,109.75Z" style="fill: rgb(38, 50, 56); transform-origin: 369.835px 124.981px;" id="elidec2hfuhqh" class="animable"></path><path d="M384.89,119.69a5.82,5.82,0,0,1-2.38,3.2c-1.17.62-1.35,1.72-1.25,3,.21,3,1.84,7.24-3.77,9.64a4.78,4.78,0,0,1-5.16-.57c-3.94-3.11-5.19-11.83-5.19-11.83L360,102.54h0a.47.47,0,0,1,.09-.12l.06-.11a.48.48,0,0,1,.09-.11,9.37,9.37,0,0,1,.83-1,9.55,9.55,0,0,1,.71-.74c2.61-2.42,8-5.51,15.73-.35C386,105.79,386.73,114.78,384.89,119.69Z" style="fill: rgb(38, 50, 56); transform-origin: 372.859px 116.671px;" id="elu6xgs51xuaq" class="animable"></path><path d="M385.3,121.43c.09,2.39-2.11,3.76-4,4.51a15.3,15.3,0,0,1-2.85.77c-1.76,2.93-5.57,5-5.57,5a16.36,16.36,0,0,0-.51,3.32,40.56,40.56,0,0,0,.51,8.11l-2.58,4c-10.75,4.92-14.58-4-14.58-4,3.94-.42,5.2-3.73,5.57-6.51a16.26,16.26,0,0,0,0-3.84,11.92,11.92,0,0,1-7-8.35c-1.27-5.38-.23-10.44,2-15.41a36,36,0,0,1,3.21-5.67l.5-.81h0a.47.47,0,0,1,.09-.12,1.42,1.42,0,0,1,.15-.22l0-.07c.18-.23.44-.56.78-.92l.06,0,13.49-1.75,5.86,4.68,2.05,11.6-3,3.57-1.25,1.49-.31.36.39-.33c2.38-2,5.42-3,6.53-1.11A3.72,3.72,0,0,1,385.3,121.43Z" style="fill: rgb(255, 139, 123); transform-origin: 369.522px 124.045px;" id="elsqams05zdj" class="animable"></path><path d="M367.08,112.77c-.17.71-.69,1.2-1.15,1.09s-.71-.78-.54-1.5.69-1.2,1.16-1.09S367.26,112.05,367.08,112.77Z" style="fill: rgb(38, 50, 56); transform-origin: 366.238px 112.565px;" id="eltf91dzy7x3" class="animable"></path><path d="M359.4,110.7c-.17.72-.69,1.21-1.16,1.1s-.71-.79-.54-1.5.69-1.21,1.16-1.1S359.57,110,359.4,110.7Z" style="fill: rgb(38, 50, 56); transform-origin: 358.55px 110.5px;" id="el267q85svu2g" class="animable"></path><path d="M366.67,111.32l-1.85-1S365.14,112.21,366.67,111.32Z" style="fill: rgb(38, 50, 56); transform-origin: 365.745px 110.939px;" id="el8noxl5y5wip" class="animable"></path><path d="M359,109.31l-1.85-1S357.5,110.21,359,109.31Z" style="fill: rgb(38, 50, 56); transform-origin: 358.075px 108.931px;" id="elbmis8nkil1n" class="animable"></path><path d="M361.28,111.55l-1.76,6.33a1.85,1.85,0,0,1-2.34-1.28Z" style="fill: rgb(255, 86, 82); transform-origin: 359.23px 114.758px;" id="elqmlf648wq0j" class="animable"></path><path d="M361.66,122.28s4.37.65,5.62-3" style="fill: none; stroke: rgb(38, 50, 56); stroke-linecap: round; stroke-linejoin: round; transform-origin: 364.47px 120.802px;" id="el4rx2uy3r31" class="animable"></path><path d="M367.14,107.81a3.07,3.07,0,0,1,4.22,1.45" style="fill: none; stroke: rgb(38, 50, 56); stroke-linecap: round; stroke-linejoin: round; transform-origin: 369.25px 108.36px;" id="elhm8m28ctb7p" class="animable"></path><path d="M361.05,105.19a2.79,2.79,0,0,0-4.05,1.08" style="fill: none; stroke: rgb(38, 50, 56); stroke-linecap: round; stroke-linejoin: round; transform-origin: 359.025px 105.495px;" id="eli68mak99ua" class="animable"></path><path d="M383.54,115.91l-5.18,4.89-.08,0C369.62,118,371.36,102,371.36,102c-2.45,1.56-11.13.7-11.36.52a12.18,12.18,0,0,1,1.61-1.92c.38-.37,1.59-.26,2.09-.3l3.19-.25,6.46-.52c.19,0,1.09-.23,1.25-.1l5.86,4.68Z" style="fill: rgb(38, 50, 56); transform-origin: 371.77px 110.095px;" id="eluw7fdhhfuo" class="animable"></path><g id="el6y247a9o5gh"><path d="M365.7,133.47a9.17,9.17,0,0,1-4.45,3.15,16.26,16.26,0,0,0,0-3.84A14.76,14.76,0,0,0,365.7,133.47Z" style="opacity: 0.2; transform-origin: 363.475px 134.7px;" class="animable"></path></g><g id="eltcl9hsgau7"><polygon points="344.17 261.98 345.28 233.43 346.38 247.55 344.17 261.98" style="opacity: 0.3; transform-origin: 345.275px 247.705px;" class="animable"></polygon></g><g id="elvxhe8fw88i"><path d="M373.08,394.87v4.71H362.44l-.29-4.19Z" style="opacity: 0.1; transform-origin: 367.615px 397.225px;" class="animable"></path></g><polygon points="356.07 383.44 358.65 397.89 374.47 397.89 376.65 382.75 356.07 383.44" style="fill: rgb(11, 172, 43); transform-origin: 366.36px 390.32px;" id="elr7xhs4imykn" class="animable"></polygon></g><defs>     <filter id="active" height="200%">         <feMorphology in="SourceAlpha" result="DILATED" operator="dilate" radius="2"></feMorphology>                <feFlood flood-color="#32DFEC" flood-opacity="1" result="PINK"></feFlood>        <feComposite in="PINK" in2="DILATED" operator="in" result="OUTLINE"></feComposite>        <feMerge>            <feMergeNode in="OUTLINE"></feMergeNode>            <feMergeNode in="SourceGraphic"></feMergeNode>        </feMerge>    </filter>    <filter id="hover" height="200%">        <feMorphology in="SourceAlpha" result="DILATED" operator="dilate" radius="2"></feMorphology>                <feFlood flood-color="#ff0000" flood-opacity="0.5" result="PINK"></feFlood>        <feComposite in="PINK" in2="DILATED" operator="in" result="OUTLINE"></feComposite>        <feMerge>            <feMergeNode in="OUTLINE"></feMergeNode>            <feMergeNode in="SourceGraphic"></feMergeNode>        </feMerge>            <feColorMatrix type="matrix" values="0   0   0   0   0                0   1   0   0   0                0   0   0   0   0                0   0   0   1   0 "></feColorMatrix>    </filter></defs></svg>